<?xml version="1.0" encoding="UTF-8"?>
<svg version="1.1" xmlns="http://www.w3.org/2000/svg" width="1920" height="1080">
<path d="M0 0 C3.65021722 1.89756094 6.15407433 5.03052299 8.85546875 8.078125 C14.07510093 12.79054911 22.45110758 11.2853453 29.06640625 11.07421875 C30.77722407 10.91093557 32.48634453 10.72694785 34.19140625 10.51171875 C38.06640625 10.07421875 38.06640625 10.07421875 41.06640625 11.07421875 C42.67058508 11.09409353 44.27555726 11.06700665 45.87890625 11.01171875 C62.73633713 10.85417267 62.73633713 10.85417267 69.06640625 15.07421875 C70.72190156 15.45921766 72.38864955 15.8021501 74.06640625 16.07421875 C74.06640625 16.73421875 74.06640625 17.39421875 74.06640625 18.07421875 C75.71640625 17.74421875 77.36640625 17.41421875 79.06640625 17.07421875 C79.06640625 17.73421875 79.06640625 18.39421875 79.06640625 19.07421875 C80.09765625 19.15671875 81.12890625 19.23921875 82.19140625 19.32421875 C86.06640625 20.07421875 86.06640625 20.07421875 88.72265625 22.125 C93.76153999 25.06238667 98.23605962 24.24830386 103.90234375 23.83007812 C109.35697877 23.59843096 112.93197884 24.35351473 117.43212891 27.54370117 C120.00037379 29.94888898 120.98042377 32.45475126 122.06640625 35.76171875 C122.45828125 36.89996094 122.85015625 38.03820312 123.25390625 39.2109375 C124.06640625 42.07421875 124.06640625 42.07421875 124.06640625 44.07421875 C125.54753906 44.25597656 125.54753906 44.25597656 127.05859375 44.44140625 C128.33992188 44.60898438 129.62125 44.7765625 130.94140625 44.94921875 C132.21757813 45.11164063 133.49375 45.2740625 134.80859375 45.44140625 C138.06640625 46.07421875 138.06640625 46.07421875 140.06640625 48.07421875 C141.48711636 48.58221333 142.92815947 49.03471967 144.37890625 49.44921875 C147.48342581 50.41969057 149.11307685 51.11199971 151.69140625 53.19921875 C154.76262572 55.6238657 157.22806826 55.65549097 161.06640625 56.07421875 C161.76765625 56.44546875 162.46890625 56.81671875 163.19140625 57.19921875 C165.85935648 58.44426219 167.29348388 57.95343804 170.06640625 57.07421875 C170.82953125 56.53796875 171.59265625 56.00171875 172.37890625 55.44921875 C175.50255686 53.85107193 177.70755553 53.82947265 181.1484375 54.44921875 C186.84555644 56.30571372 189.28649444 61.91647004 191.85546875 66.890625 C193.1265749 69.18271642 194.26811906 71.15865196 196.06640625 73.07421875 C198.31888387 73.35359582 200.27016346 73.07946616 202.51953125 72.82421875 C208.97292974 73.45768118 214.24546903 78.64048454 218.94140625 82.76171875 C219.54637939 83.28556152 220.15135254 83.8094043 220.7746582 84.34912109 C225.13758799 88.16341899 229.28692083 92.1457311 233.296875 96.33203125 C235.15025737 98.26624047 235.15025737 98.26624047 238.06640625 100.07421875 C238.39640625 101.06421875 238.72640625 102.05421875 239.06640625 103.07421875 C241.06657091 104.28303971 241.06657091 104.28303971 243.06640625 105.07421875 C243.06640625 105.73421875 243.06640625 106.39421875 243.06640625 107.07421875 C243.99453125 107.36296875 244.92265625 107.65171875 245.87890625 107.94921875 C249.06640625 109.07421875 249.06640625 109.07421875 252.06640625 111.07421875 C252.75390625 114.69921875 252.75390625 114.69921875 253.06640625 118.07421875 C253.72640625 118.07421875 254.38640625 118.07421875 255.06640625 118.07421875 C255.31390625 116.98109375 255.56140625 115.88796875 255.81640625 114.76171875 C257.06640625 111.07421875 257.06640625 111.07421875 258.75390625 109.13671875 C262.05956602 107.6179021 264.47880587 107.61761507 268.06640625 108.07421875 C271.28102582 110.86022238 271.75448659 113.94128321 272.06640625 118.07421875 C271.8539021 121.09375443 271.49907459 124.07882253 271.06640625 127.07421875 C271.68128906 127.35394531 272.29617188 127.63367188 272.9296875 127.921875 C276.74140587 129.97755493 278.7204249 133.03627471 280.06640625 137.07421875 C281.38640625 137.07421875 282.70640625 137.07421875 284.06640625 137.07421875 C284.66453125 136.41421875 285.26265625 135.75421875 285.87890625 135.07421875 C288.06640625 133.07421875 288.06640625 133.07421875 291.62890625 132.63671875 C295.06640625 133.07421875 295.06640625 133.07421875 296.94140625 134.44921875 C298.99375593 137.41372384 299.17724417 139.22401916 299.12890625 142.79296875 C299.12117187 143.72496094 299.1134375 144.65695313 299.10546875 145.6171875 C299.07942708 147.58854167 299.05338542 149.55989583 299.02734375 151.53125 C299.01960937 152.46324219 299.011875 153.39523438 299.00390625 154.35546875 C298.98650391 155.6403418 298.98650391 155.6403418 298.96875 156.95117188 C298.92512076 159.12968333 298.92512076 159.12968333 300.06640625 161.07421875 C301.72173248 162.09288104 303.38900763 163.09232688 305.06640625 164.07421875 C305.72640625 164.73421875 306.38640625 165.39421875 307.06640625 166.07421875 C306.69140625 169.19921875 306.69140625 169.19921875 306.06640625 172.07421875 C306.78828125 172.07421875 307.51015625 172.07421875 308.25390625 172.07421875 C312.10215589 173.44248529 312.97227957 175.61633723 314.9296875 179.07421875 C316.07185801 181.19818857 316.07185801 181.19818857 317.87890625 183.38671875 C319.06640625 185.07421875 319.06640625 185.07421875 319.06640625 188.07421875 C320.05640625 188.40421875 321.04640625 188.73421875 322.06640625 189.07421875 C322.06640625 190.39421875 322.06640625 191.71421875 322.06640625 193.07421875 C322.68515625 193.11546875 323.30390625 193.15671875 323.94140625 193.19921875 C324.64265625 193.48796875 325.34390625 193.77671875 326.06640625 194.07421875 C327.12890625 196.76171875 327.12890625 196.76171875 328.06640625 200.07421875 C328.87078125 201.62109375 328.87078125 201.62109375 329.69140625 203.19921875 C331.06640625 206.07421875 331.06640625 206.07421875 331.06640625 210.07421875 C332.38640625 210.07421875 333.70640625 210.07421875 335.06640625 210.07421875 C335.35515625 211.04359375 335.64390625 212.01296875 335.94140625 213.01171875 C336.70855307 216.18086078 336.70855307 216.18086078 339.06640625 217.07421875 C339.06640625 218.06421875 339.06640625 219.05421875 339.06640625 220.07421875 C339.72640625 220.07421875 340.38640625 220.07421875 341.06640625 220.07421875 C340.73640625 221.39421875 340.40640625 222.71421875 340.06640625 224.07421875 C341.05640625 224.40421875 342.04640625 224.73421875 343.06640625 225.07421875 C344.4577106 234.29161005 344.4577106 234.29161005 343.06640625 237.07421875 C345.54140625 238.06421875 345.54140625 238.06421875 348.06640625 239.07421875 C347.73640625 242.70421875 347.40640625 246.33421875 347.06640625 250.07421875 C347.72640625 250.07421875 348.38640625 250.07421875 349.06640625 250.07421875 C349.06640625 251.06421875 349.06640625 252.05421875 349.06640625 253.07421875 C350.71640625 253.40421875 352.36640625 253.73421875 354.06640625 254.07421875 C353.73640625 255.72421875 353.40640625 257.37421875 353.06640625 259.07421875 C354.05640625 259.40421875 355.04640625 259.73421875 356.06640625 260.07421875 C356.75390625 262.13671875 356.75390625 262.13671875 357.06640625 264.07421875 C355.41640625 264.73421875 353.76640625 265.39421875 352.06640625 266.07421875 C352.39640625 267.39421875 352.72640625 268.71421875 353.06640625 270.07421875 C354.71640625 270.07421875 356.36640625 270.07421875 358.06640625 270.07421875 C358.76715469 273.22758675 359.06640625 275.80146849 359.06640625 279.07421875 C360.05640625 279.40421875 361.04640625 279.73421875 362.06640625 280.07421875 C362.06640625 283.04421875 362.06640625 286.01421875 362.06640625 289.07421875 C363.15953125 289.17734375 364.25265625 289.28046875 365.37890625 289.38671875 C369.06640625 290.07421875 369.06640625 290.07421875 371.00390625 291.26171875 C372.65893966 294.08501104 372.49471765 295.8312896 372.06640625 299.07421875 C371.38650561 300.31933799 370.67531955 301.547652 369.94140625 302.76171875 C367.45954267 307.2884981 368.22818051 310.75407556 369.29296875 315.65625 C370.01478766 318.29452754 370.01478766 318.29452754 372.06640625 321.07421875 C372.48046875 323.30859375 372.48046875 323.30859375 372.69140625 325.82421875 C372.76746094 326.70722656 372.84351563 327.59023438 372.921875 328.5 C373.0435613 330.66733175 373.03835818 332.84124702 373.00390625 335.01171875 C372.7954803 338.25023809 372.7954803 338.25023809 375.06640625 341.07421875 C375.26171875 343.3359375 375.26171875 343.3359375 375.19140625 345.76171875 C375.17335938 346.56996094 375.1553125 347.37820313 375.13671875 348.2109375 C375.10191406 349.13326172 375.10191406 349.13326172 375.06640625 350.07421875 C375.72640625 350.07421875 376.38640625 350.07421875 377.06640625 350.07421875 C376.86015625 351.02296875 376.65390625 351.97171875 376.44140625 352.94921875 C376.31765625 353.98046875 376.19390625 355.01171875 376.06640625 356.07421875 C376.72640625 356.73421875 377.38640625 357.39421875 378.06640625 358.07421875 C378.25203125 359.68296875 378.25203125 359.68296875 378.44140625 361.32421875 C379.1437712 365.53840847 380.52783485 367.68945688 383.06640625 371.07421875 C383.72640625 372.06421875 384.38640625 373.05421875 385.06640625 374.07421875 C386.18015625 374.07421875 387.29390625 374.07421875 388.44140625 374.07421875 C392.06640625 374.07421875 392.06640625 374.07421875 394.50390625 375.07421875 C396.43787644 377.5497006 396.79561221 379.55431837 396.66796875 382.67578125 C395.39781427 387.73990364 392.02743003 391.85635754 389.06640625 396.07421875 C388.73640625 396.73421875 388.40640625 397.39421875 388.06640625 398.07421875 C389.30390625 397.97109375 390.54140625 397.86796875 391.81640625 397.76171875 C395.24758464 397.76781321 395.84826823 397.89332381 398.62890625 400.19921875 C400.43226197 403.8059302 400.0476258 405.21156424 399.06640625 409.07421875 C397.54296875 411.75 397.54296875 411.75 395.69140625 414.38671875 C390.45830726 422.3328793 387.7476499 430.43563396 388.06640625 440.07421875 C388.70319071 441.42207919 389.37126996 442.75550432 390.06640625 444.07421875 C391.03051877 448.93827514 391.7493917 453.43505366 389.81640625 458.07421875 C388.06640625 460.07421875 388.06640625 460.07421875 386.5390625 461.38671875 C384.64236333 463.5601247 384.34266679 465.25457645 383.75390625 468.07421875 C382.26914589 474.55819884 380.29986944 480.82153664 378.22338867 487.13476562 C376.95588998 491.04182726 375.76190396 494.96289634 374.73828125 498.94140625 C374.55233398 499.65280762 374.36638672 500.36420898 374.17480469 501.09716797 C374.03310336 503.68162137 374.73151681 504.5575781 376.37890625 506.51171875 C377.26578125 507.35734375 378.15265625 508.20296875 379.06640625 509.07421875 C380.67046709 512.28234043 380.54833488 515.59362308 380.06640625 519.07421875 C378.20540288 522.17589104 376.72972316 523.70939445 373.56640625 525.44921875 C370.18025113 527.65021958 368.45831551 530.35767752 367.06640625 534.07421875 C366.89206957 535.56928789 366.76836345 537.07098803 366.69140625 538.57421875 C366.39817974 543.2182926 364.61571626 545.37912617 361.34375 548.56640625 C359.74321366 550.12636871 359.74321366 550.12636871 360.06640625 553.07421875 C361.05640625 553.40421875 362.04640625 553.73421875 363.06640625 554.07421875 C364.52936425 557.00013475 364.51163734 558.83039222 364.06640625 562.07421875 C362.07581229 563.97433116 360.27016626 565.49009786 358.06640625 567.07421875 C354.66957853 570.0120157 353.69748551 571.65666391 353.06640625 576.07421875 C352.12890625 579.32421875 352.12890625 579.32421875 351.06640625 582.07421875 C350.40640625 582.40421875 349.74640625 582.73421875 349.06640625 583.07421875 C349.06640625 584.06421875 349.06640625 585.05421875 349.06640625 586.07421875 C348.43534196 588.08573616 347.77266864 590.08785577 347.06640625 592.07421875 C346.40640625 592.07421875 345.74640625 592.07421875 345.06640625 592.07421875 C344.93363281 592.70070313 344.80085937 593.3271875 344.6640625 593.97265625 C344.48746094 594.78992188 344.31085937 595.6071875 344.12890625 596.44921875 C343.95488281 597.26132812 343.78085937 598.0734375 343.6015625 598.91015625 C343.06640625 601.07421875 343.06640625 601.07421875 342.06640625 603.07421875 C341.07640625 603.40421875 340.08640625 603.73421875 339.06640625 604.07421875 C338.96328125 605.00234375 338.86015625 605.93046875 338.75390625 606.88671875 C338.01081017 610.33198237 337.52475646 610.8049724 335.06640625 613.07421875 C334.44765625 614.40453125 334.44765625 614.40453125 333.81640625 615.76171875 C331.54853249 620.05447979 328.69496622 623.82500823 325.06640625 627.07421875 C324.07640625 627.07421875 323.08640625 627.07421875 322.06640625 627.07421875 C322.06640625 627.73421875 322.06640625 628.39421875 322.06640625 629.07421875 C321.0879043 630.09526426 320.08660198 631.09483085 319.06640625 632.07421875 C318.73640625 632.73421875 318.40640625 633.39421875 318.06640625 634.07421875 C317.07640625 634.07421875 316.08640625 634.07421875 315.06640625 634.07421875 C315.06640625 635.06421875 315.06640625 636.05421875 315.06640625 637.07421875 C313.74640625 637.40421875 312.42640625 637.73421875 311.06640625 638.07421875 C311.06640625 638.73421875 311.06640625 639.39421875 311.06640625 640.07421875 C310.40640625 640.07421875 309.74640625 640.07421875 309.06640625 640.07421875 C309.06640625 641.06421875 309.06640625 642.05421875 309.06640625 643.07421875 C307.38671875 644.3203125 307.38671875 644.3203125 305.19140625 645.51171875 C301.93067356 647.28233166 300.32659702 648.52578684 299.06640625 652.07421875 C299.06640625 653.39421875 299.06640625 654.71421875 299.06640625 656.07421875 C298.40640625 656.40421875 297.74640625 656.73421875 297.06640625 657.07421875 C296.73640625 658.06421875 296.40640625 659.05421875 296.06640625 660.07421875 C295.07640625 660.07421875 294.08640625 660.07421875 293.06640625 660.07421875 C292.98390625 660.68394531 292.90140625 661.29367187 292.81640625 661.921875 C291.83156251 664.74817135 290.68457652 665.16055588 288.06640625 666.51171875 C284.75888461 668.25683976 284.75888461 668.25683976 283.37890625 671.57421875 C283.27578125 672.39921875 283.17265625 673.22421875 283.06640625 674.07421875 C280.69140625 676.69921875 280.69140625 676.69921875 278.06640625 679.07421875 C277.23109375 679.97140625 277.23109375 679.97140625 276.37890625 680.88671875 C275.06640625 682.07421875 275.06640625 682.07421875 273.06640625 682.07421875 C272.61265625 682.87859375 272.15890625 683.68296875 271.69140625 684.51171875 C269.78961014 687.51070492 269.30751168 687.34235623 266.06640625 688.07421875 C265.36246013 689.38825151 264.70294967 690.72624445 264.06640625 692.07421875 C262.44191382 693.78201848 260.77420598 695.44972632 259.06640625 697.07421875 C258.23109375 697.97140625 258.23109375 697.97140625 257.37890625 698.88671875 C256.06640625 700.07421875 256.06640625 700.07421875 254.06640625 700.07421875 C253.86015625 700.67234375 253.65390625 701.27046875 253.44140625 701.88671875 C252.06640625 704.07421875 252.06640625 704.07421875 249.12890625 705.51171875 C245.58229761 707.32121295 245.02844952 708.72239483 243.06640625 712.07421875 C239.48437005 714.87755143 236.60469853 716.54030201 232.06640625 717.07421875 C232.06640625 717.73421875 232.06640625 718.39421875 232.06640625 719.07421875 C231.40640625 719.40421875 230.74640625 719.73421875 230.06640625 720.07421875 C229.73640625 721.06421875 229.40640625 722.05421875 229.06640625 723.07421875 C227.08640625 723.07421875 225.10640625 723.07421875 223.06640625 723.07421875 C223.02515625 723.69296875 222.98390625 724.31171875 222.94140625 724.94921875 C222.06640625 727.07421875 222.06640625 727.07421875 219.12890625 728.32421875 C216.06640625 729.07421875 216.06640625 729.07421875 214.06640625 729.07421875 C214.06640625 729.73421875 214.06640625 730.39421875 214.06640625 731.07421875 C213.07640625 731.40421875 212.08640625 731.73421875 211.06640625 732.07421875 C210.73640625 732.73421875 210.40640625 733.39421875 210.06640625 734.07421875 C208.30053711 734.94384766 208.30053711 734.94384766 206.03125 735.80078125 C205.22236328 736.11015625 204.41347656 736.41953125 203.58007812 736.73828125 C202.72994141 737.05539062 201.87980469 737.3725 201.00390625 737.69921875 C200.14990234 738.0240625 199.29589844 738.34890625 198.41601562 738.68359375 C196.30177253 739.4867699 194.1852665 740.28332089 192.06640625 741.07421875 C192.06640625 741.73421875 192.06640625 742.39421875 192.06640625 743.07421875 C190.04817708 743.23697917 188.02994792 743.39973958 186.01171875 743.5625 C183.67121409 743.94814911 183.67121409 743.94814911 182.06640625 747.07421875 C180.07468443 747.76522428 178.07478821 748.43324578 176.06640625 749.07421875 C175.73640625 749.73421875 175.40640625 750.39421875 175.06640625 751.07421875 C172.42640625 751.07421875 169.78640625 751.07421875 167.06640625 751.07421875 C167.39640625 752.39421875 167.72640625 753.71421875 168.06640625 755.07421875 C166.08640625 755.73421875 164.10640625 756.39421875 162.06640625 757.07421875 C162.06640625 758.06421875 162.06640625 759.05421875 162.06640625 760.07421875 C159.75640625 760.40421875 157.44640625 760.73421875 155.06640625 761.07421875 C154.73640625 760.41421875 154.40640625 759.75421875 154.06640625 759.07421875 C153.07640625 758.74421875 152.08640625 758.41421875 151.06640625 758.07421875 C151.39640625 760.38421875 151.72640625 762.69421875 152.06640625 765.07421875 C148.78261245 767.56194133 147.45442042 768.10602319 143.25390625 767.76171875 C142.20203125 767.53484375 141.15015625 767.30796875 140.06640625 767.07421875 C139.73640625 768.39421875 139.40640625 769.71421875 139.06640625 771.07421875 C136.75640625 771.07421875 134.44640625 771.07421875 132.06640625 771.07421875 C132.06640625 771.73421875 132.06640625 772.39421875 132.06640625 773.07421875 C131.07640625 773.40421875 130.08640625 773.73421875 129.06640625 774.07421875 C128.40640625 774.73421875 127.74640625 775.39421875 127.06640625 776.07421875 C120.94170307 778.38979651 114.46075009 779.73346923 108.06640625 781.07421875 C108.06640625 781.73421875 108.06640625 782.39421875 108.06640625 783.07421875 C105.89766373 782.56817883 104.06672998 782.07438062 102.06640625 781.07421875 C101.44140625 779.01171875 101.44140625 779.01171875 101.06640625 777.07421875 C100.07640625 777.07421875 99.08640625 777.07421875 98.06640625 777.07421875 C97.73640625 779.71421875 97.40640625 782.35421875 97.06640625 785.07421875 C93.10640625 786.06421875 89.14640625 787.05421875 85.06640625 788.07421875 C84.40640625 787.08421875 83.74640625 786.09421875 83.06640625 785.07421875 C82.40640625 786.06421875 81.74640625 787.05421875 81.06640625 788.07421875 C77.50390625 788.82421875 77.50390625 788.82421875 74.06640625 789.07421875 C73.73640625 788.74421875 73.40640625 788.41421875 73.06640625 788.07421875 C72.73640625 788.73421875 72.40640625 789.39421875 72.06640625 790.07421875 C69.42640625 789.74421875 66.78640625 789.41421875 64.06640625 789.07421875 C64.06640625 789.73421875 64.06640625 790.39421875 64.06640625 791.07421875 C60.73307292 791.07421875 57.39973958 791.07421875 54.06640625 791.07421875 C52.55884393 791.37148456 51.05831266 791.70635142 49.56640625 792.07421875 C44.21082083 793.39477406 35.07987125 794.58095125 30.06640625 792.07421875 C29.73640625 793.06421875 29.40640625 794.05421875 29.06640625 795.07421875 C28.40640625 795.07421875 27.74640625 795.07421875 27.06640625 795.07421875 C26.40640625 794.41421875 25.74640625 793.75421875 25.06640625 793.07421875 C24.73640625 793.73421875 24.40640625 794.39421875 24.06640625 795.07421875 C20.9434999 794.58843332 18.07060266 794.07561755 15.06640625 793.07421875 C12.85385765 793.56941172 12.85385765 793.56941172 10.56640625 794.44921875 C9.40625 794.86300781 9.40625 794.86300781 8.22265625 795.28515625 C7.51109375 795.54554688 6.79953125 795.8059375 6.06640625 796.07421875 C5.07640625 796.40421875 4.08640625 796.73421875 3.06640625 797.07421875 C2.73640625 797.73421875 2.40640625 798.39421875 2.06640625 799.07421875 C-0.93359375 799.07421875 -0.93359375 799.07421875 -2.49609375 797.57421875 C-2.97046875 797.07921875 -3.44484375 796.58421875 -3.93359375 796.07421875 C-4.59359375 796.07421875 -5.25359375 796.07421875 -5.93359375 796.07421875 C-6.17078125 796.71746094 -6.40796875 797.36070312 -6.65234375 798.0234375 C-7.93359375 800.07421875 -7.93359375 800.07421875 -10.02734375 800.71875 C-10.82140625 800.77417969 -11.61546875 800.82960938 -12.43359375 800.88671875 C-13.22765625 800.95503906 -14.02171875 801.02335938 -14.83984375 801.09375 C-16.93359375 801.07421875 -16.93359375 801.07421875 -18.93359375 800.07421875 C-19.26359375 799.08421875 -19.59359375 798.09421875 -19.93359375 797.07421875 C-20.59359375 796.74421875 -21.25359375 796.41421875 -21.93359375 796.07421875 C-22.05734375 796.85796875 -22.18109375 797.64171875 -22.30859375 798.44921875 C-22.93359375 801.07421875 -22.93359375 801.07421875 -24.93359375 803.07421875 C-28.86649358 804.27593814 -31.94263534 803.90953563 -35.93359375 803.07421875 C-36.26359375 804.06421875 -36.59359375 805.05421875 -36.93359375 806.07421875 C-37.92359375 805.74421875 -38.91359375 805.41421875 -39.93359375 805.07421875 C-39.93359375 804.41421875 -39.93359375 803.75421875 -39.93359375 803.07421875 C-41.02671875 803.25984375 -42.11984375 803.44546875 -43.24609375 803.63671875 C-46.93359375 804.07421875 -46.93359375 804.07421875 -49.93359375 803.07421875 C-49.93359375 804.06421875 -49.93359375 805.05421875 -49.93359375 806.07421875 C-56.62352594 805.53470809 -62.56820103 804.18715704 -68.93359375 802.07421875 C-68.93359375 803.06421875 -68.93359375 804.05421875 -68.93359375 805.07421875 C-70.57989703 804.93378998 -72.22563554 804.78672546 -73.87109375 804.63671875 C-74.78761719 804.55550781 -75.70414062 804.47429688 -76.6484375 804.390625 C-78.93359375 804.07421875 -78.93359375 804.07421875 -79.93359375 803.07421875 C-81.47618432 803.10672545 -83.01806501 803.17561669 -84.55859375 803.26171875 C-88.35761627 803.33227203 -90.6144887 803.02538704 -93.80859375 800.94921875 C-94.83984375 800.33046875 -95.87109375 799.71171875 -96.93359375 799.07421875 C-98.27888414 799.71641498 -99.61125057 800.3860104 -100.93359375 801.07421875 C-103.29296875 801.05078125 -103.29296875 801.05078125 -105.68359375 800.69921875 C-106.88242187 800.53292969 -106.88242187 800.53292969 -108.10546875 800.36328125 C-108.70875 800.26789062 -109.31203125 800.1725 -109.93359375 800.07421875 C-110.59359375 798.42421875 -111.25359375 796.77421875 -111.93359375 795.07421875 C-114.90359375 795.73421875 -117.87359375 796.39421875 -120.93359375 797.07421875 C-121.92359375 795.42421875 -122.91359375 793.77421875 -123.93359375 792.07421875 C-124.4853125 792.27917969 -125.03703125 792.48414063 -125.60546875 792.6953125 C-128.67791736 793.19535867 -130.34974803 792.36720439 -133.18359375 791.13671875 C-134.52164063 790.56630859 -134.52164063 790.56630859 -135.88671875 789.984375 C-136.5621875 789.68402344 -137.23765625 789.38367188 -137.93359375 789.07421875 C-137.93359375 788.08421875 -137.93359375 787.09421875 -137.93359375 786.07421875 C-140.57359375 786.40421875 -143.21359375 786.73421875 -145.93359375 787.07421875 C-146.92359375 785.75421875 -147.91359375 784.43421875 -148.93359375 783.07421875 C-149.63484375 783.75484375 -150.33609375 784.43546875 -151.05859375 785.13671875 C-153.93359375 787.07421875 -153.93359375 787.07421875 -156.87109375 787.32421875 C-163.07379073 784.7925057 -166.38600512 778.01859222 -168.93359375 772.07421875 C-168.93359375 771.41421875 -168.93359375 770.75421875 -168.93359375 770.07421875 C-169.45566406 769.98140625 -169.97773438 769.88859375 -170.515625 769.79296875 C-173.13865987 769.0132621 -175.40222328 767.83921219 -177.80712891 766.54785156 C-183.94026773 763.25593263 -188.95233046 761.52462283 -195.93359375 761.07421875 C-198.49609375 759.63671875 -198.49609375 759.63671875 -199.93359375 758.07421875 C-199.93359375 757.41421875 -199.93359375 756.75421875 -199.93359375 756.07421875 C-200.66835937 756.13222656 -201.403125 756.19023438 -202.16015625 756.25 C-205.43905181 756.04218268 -206.69647154 755.19959281 -209.30859375 753.26171875 C-212.06693481 751.30196562 -214.58681026 749.66537304 -217.74609375 748.44921875 C-221.03950891 747.02852986 -222.55334587 745.69249142 -224.93359375 743.07421875 C-227.70263659 740.6045319 -230.19817739 738.87520411 -233.62109375 737.51171875 C-236.93359375 736.07421875 -236.93359375 736.07421875 -238.93359375 733.07421875 C-240.66689166 731.99908349 -242.44619704 731.13055061 -244.27734375 730.234375 C-246.32910378 728.79717517 -246.98036953 727.35719076 -247.93359375 725.07421875 C-248.91199219 725.12642578 -248.91199219 725.12642578 -249.91015625 725.1796875 C-255.36839692 725.34874805 -259.26819496 725.26034475 -263.93359375 722.07421875 C-265.79810032 720.20971218 -266.77714656 718.48207111 -267.71875 716.02734375 C-269.48859801 711.46098265 -270.81242314 708.82622129 -274.99609375 706.13671875 C-279.36279865 703.23626522 -279.89022775 700.61160029 -281.03515625 695.66015625 C-282.41737657 691.68176558 -285.04085988 689.18278229 -287.92578125 686.19140625 C-290.61492304 683.35577424 -292.73726017 680.3000837 -294.93359375 677.07421875 C-295.61421875 677.38359375 -296.29484375 677.69296875 -296.99609375 678.01171875 C-300.44432226 679.25895034 -303.25591078 679.94517724 -306.93359375 680.07421875 C-311.92446877 677.67475961 -314.03776579 675.22003749 -315.93359375 670.07421875 C-317.83741772 663.39320685 -319.16460882 657.14907137 -318.921875 650.19921875 C-318.95709435 643.81277573 -320.43435747 638.72342957 -324.93359375 634.07421875 C-327.66572509 635.08901039 -329.92176704 636.06581556 -332.30859375 637.76171875 C-335.90321248 639.55902811 -338.08124254 638.98477449 -341.93359375 638.07421875 C-344.72593075 637.14343975 -345.81796272 636.20141288 -347.80859375 634.01171875 C-349.47699903 629.65532719 -348.48949869 626.3758383 -346.93359375 622.07421875 C-345.34080751 619.27311192 -343.68283256 616.9046251 -341.52734375 614.515625 C-338.75583784 611.66165068 -338.75583784 611.66165068 -337.93359375 607.94921875 C-338.92267103 605.97600307 -338.92267103 605.97600307 -340.49609375 604.01171875 C-341.93359375 602.07421875 -341.93359375 602.07421875 -341.93359375 599.07421875 C-342.92359375 598.74421875 -343.91359375 598.41421875 -344.93359375 598.07421875 C-346.5390625 595.859375 -346.5390625 595.859375 -348.12109375 593.13671875 C-348.65089844 592.24082031 -349.18070313 591.34492187 -349.7265625 590.421875 C-350.93359375 588.07421875 -350.93359375 588.07421875 -350.93359375 586.07421875 C-351.59359375 586.07421875 -352.25359375 586.07421875 -352.93359375 586.07421875 C-353.42859375 583.59921875 -353.42859375 583.59921875 -353.93359375 581.07421875 C-354.71734375 580.95046875 -355.50109375 580.82671875 -356.30859375 580.69921875 C-358.93359375 580.07421875 -358.93359375 580.07421875 -360.93359375 578.07421875 C-361.19365179 576.09127618 -361.44907886 574.1071492 -361.6484375 572.1171875 C-362.00441357 569.56683839 -362.84417799 567.39830571 -363.93359375 565.07421875 C-364.59359375 565.07421875 -365.25359375 565.07421875 -365.93359375 565.07421875 C-366.11535156 564.38714844 -366.29710937 563.70007813 -366.484375 562.9921875 C-366.73574219 562.09113281 -366.98710937 561.19007813 -367.24609375 560.26171875 C-367.61154297 558.92173828 -367.61154297 558.92173828 -367.984375 557.5546875 C-368.75221992 555.0432583 -368.75221992 555.0432583 -370.49609375 553.51171875 C-373.07834085 550.92947165 -372.64561844 547.58751754 -372.93359375 544.07421875 C-373.59359375 544.07421875 -374.25359375 544.07421875 -374.93359375 544.07421875 C-375.12695312 543.41035156 -375.3203125 542.74648438 -375.51953125 542.0625 C-377.03615711 536.91948655 -378.52856324 531.88427977 -380.93359375 527.07421875 C-381.0347374 524.79102563 -381.06873705 522.50478652 -381.07403564 520.21936035 C-381.07700677 519.50600194 -381.07997789 518.79264354 -381.08303905 518.05766821 C-381.09174608 515.65497021 -381.09323601 513.25232192 -381.09472656 510.84960938 C-381.09935354 509.13157036 -381.10437804 507.41353238 -381.10977173 505.69549561 C-381.12291455 501.01740623 -381.12934505 496.33933123 -381.13378239 491.66122627 C-381.13671178 488.73742097 -381.14081647 485.81361961 -381.14528656 482.88981628 C-381.15897019 473.73920793 -381.16863101 464.58860855 -381.17248845 455.43799067 C-381.17696303 444.8812796 -381.19447935 434.32469841 -381.22348905 423.76802683 C-381.24513613 415.60653625 -381.25519445 407.44508211 -381.25652957 399.28356314 C-381.25757599 394.41061509 -381.2634483 389.53778899 -381.28134918 384.66487122 C-381.29788082 380.07497055 -381.29996071 375.48528277 -381.29121017 370.89536285 C-381.29044236 369.21604592 -381.29474863 367.53671731 -381.30466843 365.8574295 C-381.34897333 357.88562374 -381.36801875 350.44682416 -378.57731247 342.85024261 C-377.820008 341.07568214 -377.820008 341.07568214 -377.93359375 339.07421875 C-378.92359375 339.07421875 -379.91359375 339.07421875 -380.93359375 339.07421875 C-380.93359375 328.51421875 -380.93359375 317.95421875 -380.93359375 307.07421875 C-376.64359375 304.76421875 -372.35359375 302.45421875 -367.93359375 300.07421875 C-366.90051881 296.64875975 -366.77069469 295.38858806 -366.93359375 292.07421875 C-366.62884802 290.56340305 -366.27506799 289.06157844 -365.87109375 287.57421875 C-365.56171875 286.41921875 -365.25234375 285.26421875 -364.93359375 284.07421875 C-364.27359375 284.07421875 -363.61359375 284.07421875 -362.93359375 284.07421875 C-362.75183594 283.15189453 -362.75183594 283.15189453 -362.56640625 282.2109375 C-362.39882813 281.40269531 -362.23125 280.59445312 -362.05859375 279.76171875 C-361.89617187 278.96121094 -361.73375 278.16070312 -361.56640625 277.3359375 C-360.93359375 275.07421875 -360.93359375 275.07421875 -358.93359375 272.07421875 C-358.59205438 270.40921432 -358.25909877 268.74243198 -357.93359375 267.07421875 C-356.87109375 264.76171875 -356.87109375 264.76171875 -355.93359375 263.07421875 C-355.27359375 263.07421875 -354.61359375 263.07421875 -353.93359375 263.07421875 C-353.83046875 262.43484375 -353.72734375 261.79546875 -353.62109375 261.13671875 C-352.14513466 254.5619919 -350.29527928 249.20155423 -346.20703125 243.8125 C-342.13176965 238.24964291 -340.66634391 233.97784017 -340.97265625 227.109375 C-340.88960929 222.78262862 -338.27576884 220.4335026 -335.43359375 217.44921875 C-332.93359375 215.07421875 -332.93359375 215.07421875 -331.3828125 213.87109375 C-329.18129178 211.14144542 -328.89840118 208.3660672 -328.24609375 204.94921875 C-328.11581787 204.27850342 -327.98554199 203.60778809 -327.85131836 202.91674805 C-327.16764051 199.18149956 -326.81896585 195.67599055 -326.99609375 191.88671875 C-326.93359375 188.07421875 -326.93359375 188.07421875 -325.24609375 185.63671875 C-322.93359375 184.07421875 -322.93359375 184.07421875 -320.43359375 183.19921875 C-317.57226263 181.91161975 -316.80536273 180.54715444 -315.2265625 177.91796875 C-312.36579238 173.83856241 -308.4987165 170.53112529 -304.93359375 167.07421875 C-303.83724609 165.92179687 -303.83724609 165.92179687 -302.71875 164.74609375 C-298.97425457 161.15389897 -294.92052515 158.04491967 -290.80859375 154.88671875 C-289.99777344 154.25830078 -289.18695313 153.62988281 -288.3515625 152.98242188 C-285.25602821 150.59041811 -282.18988839 148.24508184 -278.93359375 146.07421875 C-278.72094297 144.06286504 -278.72094297 144.06286504 -278.99609375 141.82421875 C-279.14078011 137.08764414 -278.1893195 134.67265247 -274.93359375 131.07421875 C-272.30859375 129.44921875 -272.30859375 129.44921875 -268.93359375 128.07421875 C-268.09570312 127.72230469 -267.2578125 127.37039062 -266.39453125 127.0078125 C-259.30075403 124.07421875 -259.30075403 124.07421875 -256.93359375 124.07421875 C-256.93359375 123.41421875 -256.93359375 122.75421875 -256.93359375 122.07421875 C-256.27359375 122.07421875 -255.61359375 122.07421875 -254.93359375 122.07421875 C-254.93359375 121.08421875 -254.93359375 120.09421875 -254.93359375 119.07421875 C-253.94359375 118.74421875 -252.95359375 118.41421875 -251.93359375 118.07421875 C-250.56720033 116.43454665 -249.23865185 114.76311747 -247.93359375 113.07421875 C-246.28762865 111.38710452 -244.62122226 109.71965655 -242.93359375 108.07421875 C-242.21171875 107.31109375 -241.48984375 106.54796875 -240.74609375 105.76171875 C-238.93359375 104.07421875 -238.93359375 104.07421875 -236.93359375 104.07421875 C-236.59328125 103.14609375 -236.59328125 103.14609375 -236.24609375 102.19921875 C-234.5542954 99.46011666 -232.94115214 99.02397403 -229.93359375 98.07421875 C-229.93359375 97.08421875 -229.93359375 96.09421875 -229.93359375 95.07421875 C-226.96359375 94.57921875 -226.96359375 94.57921875 -223.93359375 94.07421875 C-223.91296875 93.35234375 -223.89234375 92.63046875 -223.87109375 91.88671875 C-222.51347143 87.8138518 -219.63290882 86.08193016 -215.93359375 84.07421875 C-215.27359375 84.07421875 -214.61359375 84.07421875 -213.93359375 84.07421875 C-213.66546875 83.45546875 -213.39734375 82.83671875 -213.12109375 82.19921875 C-211.93359375 80.07421875 -211.93359375 80.07421875 -208.93359375 78.07421875 C-207.94359375 78.07421875 -206.95359375 78.07421875 -205.93359375 78.07421875 C-205.60359375 77.08421875 -205.27359375 76.09421875 -204.93359375 75.07421875 C-201.50293412 72.04176068 -197.74713353 69.53624317 -193.93359375 67.01171875 C-192.41765625 66.00431641 -192.41765625 66.00431641 -190.87109375 64.9765625 C-188.25553228 63.2827082 -185.60857564 61.67154074 -182.93359375 60.07421875 C-181.18083787 58.95351726 -179.43093284 57.82834722 -177.68359375 56.69921875 C-170.96150508 52.41988101 -164.56902067 48.46028966 -156.93359375 46.07421875 C-155.34110363 45.45130595 -153.758156 44.80365117 -152.18359375 44.13671875 C-151.04664063 43.65912109 -151.04664063 43.65912109 -149.88671875 43.171875 C-147.61685839 42.09049976 -147.61685839 42.09049976 -145.93359375 39.07421875 C-143.94736355 38.66678691 -141.94150145 38.35603036 -139.93359375 38.07421875 C-138.03100761 37.64477788 -136.13533123 37.18402308 -134.24609375 36.69921875 C-133.31410156 36.46460938 -132.38210938 36.23 -131.421875 35.98828125 C-128.92088893 35.27938178 -128.92088893 35.27938178 -127.546875 33.60546875 C-125.02757994 31.21427344 -122.12875853 30.81505228 -118.80859375 29.94921875 C-114.55372942 29.14470132 -114.55372942 29.14470132 -110.93359375 27.07421875 C-109.24750409 27.00216364 -107.55858716 26.99035807 -105.87109375 27.01171875 C-104.95199219 27.02074219 -104.03289062 27.02976562 -103.0859375 27.0390625 C-102.37566406 27.05066406 -101.66539062 27.06226562 -100.93359375 27.07421875 C-100.6603125 26.4296875 -100.38703125 25.78515625 -100.10546875 25.12109375 C-98.93359375 23.07421875 -98.93359375 23.07421875 -96.18359375 22.32421875 C-92.93359375 22.07421875 -92.93359375 22.07421875 -90.12109375 22.19921875 C-87.15652512 22.08296116 -85.42041167 21.63236253 -82.68359375 20.63671875 C-79.2894693 19.40405531 -76.28522804 18.82611877 -72.68359375 18.57421875 C-68.57131243 18.26516693 -66.44555892 17.26919698 -62.93359375 15.07421875 C-60.4778986 14.46756648 -58.02603538 14.01670111 -55.53125 13.6015625 C-52.55315532 12.99698689 -49.80471927 12.07118626 -46.93359375 11.07421875 C-37.32485097 7.78986368 -28.93750656 5.47309095 -18.69140625 5.99609375 C-15.8429822 6.23455104 -15.8429822 6.23455104 -12.93359375 5.07421875 C-11.94359375 5.07421875 -10.95359375 5.07421875 -9.93359375 5.07421875 C-8.88467137 3.43789983 -7.88452672 1.76936012 -6.93359375 0.07421875 C-4.35289968 -1.21612828 -2.71010531 -0.79775543 0 0 Z M314.06640625 189.07421875 C314.06640625 190.72421875 314.06640625 192.37421875 314.06640625 194.07421875 C315.05640625 193.74421875 316.04640625 193.41421875 317.06640625 193.07421875 C317.06640625 192.08421875 317.06640625 191.09421875 317.06640625 190.07421875 C316.07640625 189.74421875 315.08640625 189.41421875 314.06640625 189.07421875 Z M325.06640625 208.07421875 C325.06640625 208.73421875 325.06640625 209.39421875 325.06640625 210.07421875 C325.72640625 209.74421875 326.38640625 209.41421875 327.06640625 209.07421875 C326.40640625 208.74421875 325.74640625 208.41421875 325.06640625 208.07421875 Z M214.06640625 724.07421875 C214.06640625 724.73421875 214.06640625 725.39421875 214.06640625 726.07421875 C215.05640625 726.40421875 216.04640625 726.73421875 217.06640625 727.07421875 C216.73640625 726.08421875 216.40640625 725.09421875 216.06640625 724.07421875 C215.40640625 724.07421875 214.74640625 724.07421875 214.06640625 724.07421875 Z M47.06640625 787.07421875 C47.06640625 788.06421875 47.06640625 789.05421875 47.06640625 790.07421875 C47.72640625 790.07421875 48.38640625 790.07421875 49.06640625 790.07421875 C49.39640625 789.08421875 49.72640625 788.09421875 50.06640625 787.07421875 C49.07640625 787.07421875 48.08640625 787.07421875 47.06640625 787.07421875 Z M-97.93359375 794.07421875 C-97.93359375 797.07421875 -97.93359375 797.07421875 -97.93359375 797.07421875 Z " fill="#573912" transform="translate(425.93359375,62.92578125)"/>
</svg>
