<?xml version="1.0" encoding="UTF-8"?>
<svg version="1.1" xmlns="http://www.w3.org/2000/svg" width="1920" height="1080">
<path d="M0 0 C0 0.66 0 1.32 0 2 C0.66 2 1.32 2 2 2 C2 1.34 2 0.68 2 0 C8.70775541 -0.02542717 15.4154983 -0.04289929 22.12329102 -0.05493164 C24.40356918 -0.05994964 26.68384414 -0.0667655 28.96411133 -0.07543945 C32.24821769 -0.08761607 35.53228137 -0.09325375 38.81640625 -0.09765625 C39.83021866 -0.10281754 40.84403107 -0.10797882 41.88856506 -0.11329651 C47.04708412 -0.11370217 51.91410425 0.14507742 57 1 C58.91522392 1.08523248 60.83288814 1.13041557 62.75 1.125 C63.67296875 1.12757813 64.5959375 1.13015625 65.546875 1.1328125 C68.13783438 1.10098776 68.13783438 1.10098776 71 0 C72.62978339 0.11049379 74.25589088 0.28346261 75.875 0.5 C79.58999709 0.92288872 82.34787681 0.82172772 86 0 C90.748201 -0.22730749 95.37552541 -0.09266928 100.08984375 0.5 C105.66500745 1.14752057 111.20582186 1.1466057 116.8125 1.125 C117.83537109 1.12886719 118.85824219 1.13273437 119.91210938 1.13671875 C121.3884082 1.13478516 121.3884082 1.13478516 122.89453125 1.1328125 C124.22254761 1.13112061 124.22254761 1.13112061 125.57739258 1.12939453 C127.94378888 1.08588211 127.94378888 1.08588211 129.94311523 0.48413086 C132.69771396 -0.16422158 135.19054451 -0.00460385 138.015625 0.12109375 C139.18480469 0.16943359 140.35398437 0.21777344 141.55859375 0.26757812 C142.77675781 0.32365234 143.99492188 0.37972656 145.25 0.4375 C156.12109339 0.91686122 156.12109339 0.91686122 167 1 C167 1.66 167 2.32 167 3 C167.99 2.34 168.98 1.68 170 1 C172.72343063 0.75111103 172.72343063 0.75111103 176.08416748 0.75276184 C177.35712677 0.74856735 178.63008606 0.74437286 179.94161987 0.74005127 C181.3552864 0.74553498 182.76895217 0.75121797 184.18261719 0.75708008 C185.66922082 0.75600728 187.15582404 0.75406864 188.64242554 0.75132751 C192.68395249 0.74647395 196.72536926 0.75414259 200.7668829 0.76428056 C204.99703281 0.77305972 209.22717926 0.77130359 213.45733643 0.7709198 C220.56597741 0.77185695 227.67457577 0.78054537 234.78320312 0.79418945 C242.99411557 0.80989134 251.20498124 0.81518839 259.41590762 0.8144539 C268.16132833 0.8137773 276.90673106 0.82072785 285.65214634 0.8299005 C288.16869996 0.83202857 290.68525067 0.83274126 293.20180511 0.83313942 C297.16458968 0.83414719 301.12733528 0.84027918 305.09010696 0.85030556 C306.54169348 0.8532162 307.99328449 0.85445885 309.44487381 0.85387802 C311.43255277 0.85338385 313.42022989 0.85968614 315.40789795 0.86628723 C316.51844921 0.86796308 317.62900047 0.86963892 318.7732048 0.87136555 C322 1 322 1 325.72354507 1.535182 C329.16246809 2.02304872 331.61076657 1.64818223 335 1 C337.24996994 0.9108023 339.50217001 0.86939277 341.75390625 0.8671875 C343.02041016 0.86589844 344.28691406 0.86460937 345.59179688 0.86328125 C347.55729492 0.86908203 347.55729492 0.86908203 349.5625 0.875 C351.53379883 0.86919922 351.53379883 0.86919922 353.54492188 0.86328125 C354.81013672 0.86457031 356.07535156 0.86585938 357.37890625 0.8671875 C358.5294751 0.86831543 359.68004395 0.86944336 360.86547852 0.87060547 C364 1 364 1 366.72631836 1.57080078 C369.15205005 2.219713 369.15205005 2.219713 372 1 C374.86448509 0.90347622 377.69881075 0.86074097 380.5625 0.875 C381.73329102 0.86919922 381.73329102 0.86919922 382.92773438 0.86328125 C388.74664502 0.87332251 388.74664502 0.87332251 391 2 C392.38638672 1.76796875 392.38638672 1.76796875 393.80078125 1.53125 C399.56590565 0.59951272 405.3837296 1.19775379 411.1875 1.5 C413.51405167 1.61996481 415.8408766 1.73477138 418.16796875 1.84375 C419.19172607 1.89724609 420.2154834 1.95074219 421.27026367 2.00585938 C423.86134314 2.134607 423.86134314 2.134607 425.69419861 1.47253418 C429.03094256 0.78872612 432.25532572 1.16840011 435.62255859 1.43359375 C443.97919896 2.00577943 452.28482213 2.12012839 460.65834427 2.07516479 C463.11479804 2.06209711 465.57119629 2.05581202 468.02767944 2.05102539 C473.2268119 2.03976261 478.42589675 2.0204727 483.625 2 C489.6939905 1.97627774 495.76295557 1.9559768 501.83198166 1.94406128 C504.23988153 1.93763133 506.64769927 1.92513735 509.05557251 1.91235352 C510.53655936 1.90872009 512.01754694 1.90536847 513.49853516 1.90234375 C515.42350327 1.89448853 515.42350327 1.89448853 517.38735962 1.88647461 C521 2 521 2 524.90634155 2.56860352 C526.43770248 2.78214478 526.43770248 2.78214478 528 3 C528.33 2.67 528.66 2.34 529 2 C530.67725546 1.90125206 532.35865912 1.87201099 534.03881836 1.87060547 C535.6507029 1.86587723 535.6507029 1.86587723 537.29515076 1.86105347 C538.46489944 1.8630777 539.63464813 1.86510193 540.83984375 1.8671875 C542.03227188 1.86623077 543.22470001 1.86527405 544.45326233 1.86428833 C546.9811305 1.86360624 549.50900041 1.86546254 552.03686523 1.86962891 C555.91719483 1.87497204 559.79740843 1.86968727 563.67773438 1.86328125 C566.12760442 1.86394212 568.5774744 1.86522346 571.02734375 1.8671875 C572.19506821 1.86516327 573.36279266 1.86313904 574.56590271 1.86105347 C576.18251549 1.86578171 576.18251549 1.86578171 577.83178711 1.87060547 C578.78363388 1.87140106 579.73548065 1.87219666 580.71617126 1.87301636 C583 2 583 2 585 3 C586.45072259 2.91388972 587.89772101 2.76037126 589.33886719 2.57299805 C595.42696056 1.89405259 601.45706083 1.83816375 607.578125 1.83203125 C608.74833191 1.82870285 609.91853882 1.82537445 611.12420654 1.82194519 C613.58149831 1.81691102 616.03879683 1.81453577 618.49609375 1.81469727 C622.25271735 1.81249841 626.00905273 1.79427157 629.765625 1.77539062 C632.16145734 1.77245843 634.55729106 1.77047247 636.953125 1.76953125 C638.63139374 1.75875298 638.63139374 1.75875298 640.34356689 1.74775696 C645.61459887 1.76322544 650.08180907 1.84281434 655 4 C655 3.34 655 2.68 655 2 C710.11 2 765.22 2 822 2 C822.33 2.66 822.66 3.32 823 4 C823.99 4.33 824.98 4.66 826 5 C826.33 4.34 826.66 3.68 827 3 C830.87117257 1.89294336 834.67987217 1.83534851 838.6875 1.8125 C840.39486328 1.79123047 840.39486328 1.79123047 842.13671875 1.76953125 C845 2 845 2 847 4 C850 5.33333333 850 5.33333333 853 4 C853.33 3.34 853.66 2.68 854 2 C854.86467896 2.26079346 854.86467896 2.26079346 855.74682617 2.52685547 C858.10064727 3.02113495 859.68665028 2.92525054 862.05078125 2.5703125 C867.44002635 1.8841077 872.76082673 1.85283524 878.1875 1.875 C879.14591797 1.87113281 880.10433594 1.86726563 881.09179688 1.86328125 C885.85921023 1.86987063 890.30277904 2.10794617 895 3 C900.7628443 3.3028388 906.32039825 2.98775683 912 2 C912 2.66 912 3.32 912 4 C912.53367187 3.855625 913.06734375 3.71125 913.6171875 3.5625 C921.03373498 1.71477883 927.93906281 1.55082531 935.5 2.5625 C938.60420302 2.94985289 941.33424093 2.94443958 944.4375 2.5625 C949.3642253 1.9660254 954.23161 1.88253709 959.1875 1.875 C960.32819946 1.86835327 960.32819946 1.86835327 961.49194336 1.86157227 C962.60001343 1.86435181 962.60001343 1.86435181 963.73046875 1.8671875 C964.71116333 1.86887939 964.71116333 1.86887939 965.71166992 1.87060547 C968 2 968 2 971.09741211 2.50439453 C975.99565891 3.12644276 980.77988842 3.10481911 985.7109375 3.0625 C986.71967926 3.05871338 987.72842102 3.05492676 988.76773071 3.05102539 C991.97019841 3.03886416 995.17257365 3.02021673 998.375 3 C1002.61197644 2.97351496 1006.84891001 2.95349601 1011.0859375 2.9375 C1012.55454727 2.92505249 1012.55454727 2.92505249 1014.05282593 2.91235352 C1015.40025375 2.90739868 1015.40025375 2.90739868 1016.77490234 2.90234375 C1017.96567886 2.89448853 1017.96567886 2.89448853 1019.18051147 2.88647461 C1021 3 1021 3 1022 4 C1022.77695724 3.78744064 1022.77695724 3.78744064 1023.5696106 3.57058716 C1026.99750764 2.76581323 1030.38544067 2.86106731 1033.88623047 2.87060547 C1035.07233917 2.86797699 1035.07233917 2.86797699 1036.28240967 2.86529541 C1038.89402467 2.86089763 1041.50557182 2.86380817 1044.1171875 2.8671875 C1045.93555718 2.86651373 1047.75392677 2.86554309 1049.57229614 2.86428833 C1053.38365537 2.86281406 1057.19499116 2.86495676 1061.00634766 2.86962891 C1065.88426524 2.87531791 1070.76212771 2.87205072 1075.64004326 2.86605644 C1079.39588839 2.86243663 1083.15172054 2.86359609 1086.90756607 2.86618423 C1088.70564912 2.86684999 1090.50373337 2.86603737 1092.30181503 2.86370468 C1094.81956842 2.86115577 1097.33723362 2.86505063 1099.85498047 2.87060547 C1100.59388519 2.86858124 1101.33278992 2.86655701 1102.09408569 2.86447144 C1106.17508336 2.88109078 1109.98417145 3.32465581 1114 4 C1114.33 3.67 1114.66 3.34 1115 3 C1117.70386458 2.88656047 1120.38121721 2.83581841 1123.0859375 2.83203125 C1123.89866119 2.82870285 1124.71138489 2.82537445 1125.54873657 2.82194519 C1127.27206861 2.81687201 1128.9954105 2.81453698 1130.71875 2.81469727 C1133.35693587 2.81251494 1135.99470094 2.79437517 1138.6328125 2.77539062 C1140.30468607 2.77245597 1141.97656162 2.77047166 1143.6484375 2.76953125 C1144.83450089 2.75875298 1144.83450089 2.75875298 1146.04452515 2.74775696 C1149.89443588 2.7638217 1151.72045792 2.81363862 1155 5 C1155 4.34 1155 3.68 1155 3 C1156.58294782 2.94562393 1158.16644256 2.90703729 1159.75 2.875 C1160.63171875 2.85179687 1161.5134375 2.82859375 1162.421875 2.8046875 C1165.1135858 3.00860498 1166.69904974 3.63448279 1169 5 C1169.33 4.34 1169.66 3.68 1170 3 C1207 3 1244 3 1281 3 C1282.670625 2.9690625 1282.670625 2.9690625 1284.375 2.9375 C1288 3 1288 3 1291.0625 3.5625 C1294.36929932 4.05500203 1296.70010152 3.54998308 1300 3 C1310.83453237 2.61151079 1310.83453237 2.61151079 1315 4 C1316.81606603 3.9161884 1318.62938744 3.76465399 1320.43725586 3.57299805 C1326.64156337 2.99283792 1332.77551854 2.83881087 1339.00390625 2.83203125 C1340.63246803 2.82703865 1340.63246803 2.82703865 1342.29393005 2.82194519 C1344.56354351 2.81692584 1346.83316421 2.8145353 1349.1027832 2.81469727 C1352.58491809 2.81248576 1356.06674806 2.79421004 1359.54882812 2.77539062 C1361.76301976 2.77246068 1363.97721288 2.77047322 1366.19140625 2.76953125 C1367.23196671 2.76234573 1368.27252716 2.75516022 1369.34461975 2.74775696 C1370.78773781 2.7523719 1370.78773781 2.7523719 1372.26000977 2.75708008 C1373.1053981 2.75565506 1373.95078644 2.75423004 1374.8217926 2.75276184 C1377 3 1377 3 1380 5 C1380.33 4.34 1380.66 3.68 1381 3 C1385.58980814 2.92552733 1390.17926014 2.87124678 1394.76953125 2.83520508 C1396.32916394 2.82017131 1397.88875472 2.79973865 1399.44824219 2.77368164 C1401.69737116 2.73705789 1403.94593847 2.72021979 1406.1953125 2.70703125 C1406.8861795 2.69154739 1407.57704651 2.67606354 1408.28884888 2.66011047 C1412.92988281 2.65851766 1416.01769767 3.65125434 1420 6 C1420 4.68 1420 3.36 1420 2 C1423.33672928 2.30451704 1426.66850762 2.64287218 1430 3 C1430.99 3.103125 1431.98 3.20625 1433 3.3125 C1435 4 1435 4 1436.3125 6.0625 C1436.539375 6.701875 1436.76625 7.34125 1437 8 C1436.01 8 1435.02 8 1434 8 C1434 8.66 1434 9.32 1434 10 C1435.65 9.67 1437.3 9.34 1439 9 C1439 10.32 1439 11.64 1439 13 C1439.66 13 1440.32 13 1441 13 C1442.9055227 17.95435902 1443.66592549 22.73647051 1444 28 C1444.08894531 29.23363281 1444.17789062 30.46726562 1444.26953125 31.73828125 C1444.78343393 41.78274272 1444.78343393 41.78274272 1442.80078125 44.86328125 C1441.25 46.0625 1441.25 46.0625 1438 48 C1436.63823419 49.98075027 1435.30406884 51.98079663 1434 54 C1431.375 56.875 1431.375 56.875 1429 59 C1428.34 59 1427.68 59 1427 59 C1426.67 59.99 1426.34 60.98 1426 62 C1425.34 62.66 1424.68 63.32 1424 64 C1424.969375 64.763125 1425.93875 65.52625 1426.9375 66.3125 C1429.42086332 68.26748815 1429.9521672 68.85650159 1431 72 C1432.66270287 73.33827304 1434.32916181 74.67189785 1436 76 C1436 76.66 1436 77.32 1436 78 C1436.928125 78.12375 1437.85625 78.2475 1438.8125 78.375 C1442 80 1442 80 1443.06640625 82.25390625 C1444.16992391 85.91630545 1445 89.16245503 1445 93 C1444.34 93 1443.68 93 1443 93 C1443.16371094 93.56203125 1443.32742188 94.1240625 1443.49609375 94.703125 C1444.02864997 97.13059056 1444.09898681 99.26889681 1444.0625 101.75 C1444.04896484 102.94882812 1444.04896484 102.94882812 1444.03515625 104.171875 C1444.02355469 104.77515625 1444.01195312 105.3784375 1444 106 C1443.34 106 1442.68 106 1442 106 C1442.23396484 106.81791016 1442.23396484 106.81791016 1442.47265625 107.65234375 C1442.66730469 108.40644531 1442.86195312 109.16054688 1443.0625 109.9375 C1443.35833984 111.03384766 1443.35833984 111.03384766 1443.66015625 112.15234375 C1444.03701396 115.31015147 1443.65946585 118.14148235 1443.25561523 121.28149414 C1442.72560924 126.91818639 1442.94108735 132.59438571 1443 138.25 C1443.02555896 140.73433088 1443.04657429 143.21871369 1443.0625 145.703125 C1443.07410156 146.79270508 1443.08570313 147.88228516 1443.09765625 149.00488281 C1443 152 1443 152 1442.43359375 154.83105469 C1442.21896484 155.90468262 1442.21896484 155.90468262 1442 157 C1442.33 157.33 1442.66 157.66 1443 158 C1443.09848986 159.74988302 1443.12632072 161.50377156 1443.12698364 163.25642395 C1443.13121338 164.96630241 1443.13121338 164.96630241 1443.13552856 166.71072388 C1443.13350433 167.97254486 1443.1314801 169.23436584 1443.12939453 170.53442383 C1443.1307486 171.86796619 1443.13252857 173.20150817 1443.13470459 174.53504944 C1443.13927953 178.16738362 1443.13748877 181.79968953 1443.1343255 185.43202424 C1443.13180064 189.22850259 1443.13413994 193.02497846 1443.13571167 196.82145691 C1443.13753366 203.20136959 1443.13512698 209.58127071 1443.13037109 215.96118164 C1443.1249354 223.33823189 1443.12668597 230.71525448 1443.1321975 238.09230405 C1443.13673613 244.42014993 1443.13737528 250.74798747 1443.13475883 257.07583445 C1443.13319929 260.85756075 1443.13299333 264.63927406 1443.13629532 268.42099953 C1443.13918466 271.97910162 1443.13717874 275.5371681 1443.13140106 279.09526634 C1443.12944817 281.02440721 1443.13241885 282.95355108 1443.13552856 284.88269043 C1443.13270874 286.03106888 1443.12988892 287.17944733 1443.12698364 288.36262512 C1443.12660662 289.3605499 1443.12622959 290.35847467 1443.12584114 291.3866396 C1443.01174587 293.75607182 1442.61964751 295.72427731 1442 298 C1442.09067173 300.1613328 1442.09067173 300.1613328 1442.4296875 302.44140625 C1443.13421706 308.61340238 1443.146917 314.73133646 1443.125 320.9375 C1443.13080078 322.62069336 1443.13080078 322.62069336 1443.13671875 324.33789062 C1443.13542969 325.41103516 1443.13414063 326.48417969 1443.1328125 327.58984375 C1443.13112061 329.04185181 1443.13112061 329.04185181 1443.12939453 330.52319336 C1443 333 1443 333 1442 336 C1442.08756348 338.27382586 1442.24193615 340.54540799 1442.4375 342.8125 C1442.81155047 347.23008342 1443.05692151 351.56644711 1443 356 C1443 358.25533012 1443.02820787 360.51068794 1443.0703125 362.765625 C1443.08889778 364.26041228 1443.10711355 365.75520419 1443.125 367.25 C1443.14175781 367.98863281 1443.15851563 368.72726562 1443.17578125 369.48828125 C1443.22287652 374.82888455 1443.12421192 380.36283918 1439.625 384.70703125 C1429.97053816 391.27485024 1416.94180062 390.99439275 1405.625 391.4375 C1398.75279678 391.73559163 1391.95724922 392.26884436 1385.125 393.0625 C1378.28606086 393.85679041 1371.67693758 394.1615847 1364.78515625 393.97265625 C1362.28156445 393.99723569 1360.39036756 394.3476748 1358 395 C1359.53986572 395.01401855 1359.53986572 395.01401855 1361.11083984 395.02832031 C1365.01407279 395.06897239 1368.9165778 395.13491356 1372.81933594 395.20751953 C1374.49078844 395.23530256 1376.16236192 395.25672291 1377.83398438 395.27099609 C1404.01514571 395.50757285 1404.01514571 395.50757285 1415 401 C1416.3281456 401.19446313 1417.66323918 401.34295384 1419 401.46484375 C1420.20088257 401.57965088 1420.20088257 401.57965088 1421.42602539 401.69677734 C1422.27543701 401.77621582 1423.12484863 401.8556543 1424 401.9375 C1435.32646558 403.08682343 1435.32646558 403.08682343 1440.0625 403.875 C1440.79597656 403.99617188 1441.52945312 404.11734375 1442.28515625 404.2421875 C1444 405 1444 405 1445.2578125 406.94921875 C1446.18635978 409.5149415 1445.99481889 410.47469051 1445 413 C1444.03567924 414.68756133 1443.03789581 416.35666496 1442 418 C1441.67 418.66 1441.34 419.32 1441 420 C1440.34 420 1439.68 420 1439 420 C1438.67 421.32 1438.34 422.64 1438 424 C1437.34 424 1436.68 424 1436 424 C1436 425.98 1436 427.96 1436 430 C1425.62642369 434.77676538 1425.62642369 434.77676538 1420 433 C1420 434.32 1420 435.64 1420 437 C1418.8553125 436.690625 1418.8553125 436.690625 1417.6875 436.375 C1414.78114056 435.66608797 1414.78114056 435.66608797 1412 438 C1410.68 438 1409.36 438 1408 438 C1408 438.66 1408 439.32 1408 440 C1407.01 440 1406.02 440 1405 440 C1405 439.34 1405 438.68 1405 438 C1404.34 438 1403.68 438 1403 438 C1402.67 437.34 1402.34 436.68 1402 436 C1401.34 436.66 1400.68 437.32 1400 438 C1394.63948111 438.92422739 1389.43363474 439.28105007 1384 439 C1383.34 438.34 1382.68 437.68 1382 437 C1381.34 437.66 1380.68 438.32 1380 439 C1376.875 439.125 1376.875 439.125 1374 439 C1373.67 438.34 1373.34 437.68 1373 437 C1372.01 436.67 1371.02 436.34 1370 436 C1370 436.66 1370 437.32 1370 438 C1367.36 438.33 1364.72 438.66 1362 439 C1362 438.34 1362 437.68 1362 437 C1361.01 437.33 1360.02 437.66 1359 438 C1357.65079366 438.09123238 1356.29759813 438.13065378 1354.9453125 438.1328125 C1353.77548828 438.13474609 1353.77548828 438.13474609 1352.58203125 438.13671875 C1351.77121094 438.13285156 1350.96039062 438.12898438 1350.125 438.125 C1349.32191406 438.12886719 1348.51882813 438.13273437 1347.69140625 438.13671875 C1343.66306714 438.13008228 1339.93058896 438.00253888 1336 437 C1336 437.66 1336 438.32 1336 439 C1334.02 439 1332.04 439 1330 439 C1329.67 438.34 1329.34 437.68 1329 437 C1326.33311371 437.14243597 1323.66654233 437.28886578 1321 437.4375 C1320.25621094 437.47681641 1319.51242187 437.51613281 1318.74609375 437.55664062 C1315.00972648 437.7678266 1311.33509107 438.06769169 1307.62890625 438.59375 C1303.67231757 439.0366835 1301.68615652 438.33329066 1298 437 C1293.81490756 436.77973198 1290.0716961 437.01292216 1286 438 C1285.67 437.34 1285.34 436.68 1285 436 C1284.67 436.66 1284.34 437.32 1284 438 C1275.47997524 439.70400495 1267.19960193 438.73320064 1259 436 C1259 436.99 1259 437.98 1259 439 C1258.37351562 438.9278125 1257.74703125 438.855625 1257.1015625 438.78125 C1256.28429688 438.6884375 1255.46703125 438.595625 1254.625 438.5 C1253.81289062 438.4071875 1253.00078125 438.314375 1252.1640625 438.21875 C1249.42621622 437.9420002 1246.72196434 438.01100465 1243.97265625 438.03515625 C1242.33593867 438.04447848 1240.69921984 438.05358402 1239.0625 438.0625 C1238.23814453 438.07087891 1237.41378906 438.07925781 1236.56445312 438.08789062 C1235.37432617 438.09272461 1235.37432617 438.09272461 1234.16015625 438.09765625 C1233.07166382 438.10551147 1233.07166382 438.10551147 1231.96118164 438.11352539 C1230 438 1230 438 1227 437 C1225.1903182 436.88119646 1223.37603553 436.8248035 1221.5625 436.8125 C1220.61503906 436.79832031 1219.66757813 436.78414062 1218.69140625 436.76953125 C1215.95498356 437.00385482 1214.33571877 437.60298617 1212 439 C1212 438.34 1212 437.68 1212 437 C1211.34 437 1210.68 437 1210 437 C1210 436.34 1210 435.68 1210 435 C1208.96875 435.495 1207.9375 435.99 1206.875 436.5 C1203.4586918 437.95522256 1200.74634109 438.52274527 1197 438 C1196.34 437.01 1195.68 436.02 1195 435 C1193.35 435.33 1191.7 435.66 1190 436 C1190 436.66 1190 437.32 1190 438 C1187.69 438 1185.38 438 1183 438 C1182.67 436.68 1182.34 435.36 1182 434 C1180.68 434.66 1179.36 435.32 1178 436 C1178 436.66 1178 437.32 1178 438 C1177.31292969 437.91621094 1176.62585937 437.83242188 1175.91796875 437.74609375 C1175.01691406 437.64425781 1174.11585937 437.54242187 1173.1875 437.4375 C1172.29417969 437.33308594 1171.40085937 437.22867187 1170.48046875 437.12109375 C1167.86624428 436.84341291 1167.86624428 436.84341291 1165 438 C1162.9140625 437.84375 1162.9140625 437.84375 1160.625 437.5 C1157.14412429 437.05286312 1154.42242665 437.06661091 1151 438 C1145 438 1139 438 1133 438 C1133 437.01 1133 436.02 1133 435 C1132.24074219 435.01160156 1131.48148438 435.02320313 1130.69921875 435.03515625 C1129.20841797 435.04869141 1129.20841797 435.04869141 1127.6875 435.0625 C1126.70136719 435.07410156 1125.71523437 435.08570313 1124.69921875 435.09765625 C1122 435 1122 435 1119 434 C1119 434.99 1119 435.98 1119 437 C1117.58344207 437.0272415 1116.16672955 437.04650467 1114.75 437.0625 C1113.56664062 437.07990234 1113.56664062 437.07990234 1112.359375 437.09765625 C1110.06075329 437.00251462 1108.16949782 436.76316406 1106 436 C1105.67 435.34 1105.34 434.68 1105 434 C1104.46375 434.474375 1103.9275 434.94875 1103.375 435.4375 C1100.57157164 437.28186076 1098.30379742 437.62456847 1095 438 C1094.34 436.68 1093.68 435.36 1093 434 C1091.35 434.33 1089.7 434.66 1088 435 C1088 435.66 1088 436.32 1088 437 C1086.83984375 436.9278125 1085.6796875 436.855625 1084.484375 436.78125 C1075.64588844 436.24980402 1066.85910342 435.84366288 1058 436 C1058 435.34 1058 434.68 1058 434 C1057.34 434 1056.68 434 1056 434 C1056 434.66 1056 435.32 1056 436 C1054.02 436.33 1052.04 436.66 1050 437 C1049.34 435.68 1048.68 434.36 1048 433 C1047.01 433.33 1046.02 433.66 1045 434 C1045 434.66 1045 435.32 1045 436 C1043.10507254 436.19644384 1041.20899097 436.38177288 1039.3125 436.5625 C1038.25675781 436.66691406 1037.20101563 436.77132813 1036.11328125 436.87890625 C1033.1563687 436.99391791 1030.87607278 436.58620592 1028 436 C1026.14190261 436.08170357 1024.28570161 436.22928814 1022.4375 436.4375 C1016.61701659 437.07525061 1010.84833348 437 1005 437 C1005 436.34 1005 435.68 1005 435 C1004.38125 435.185625 1003.7625 435.37125 1003.125 435.5625 C1001 436 1001 436 999 435 C996.6670134 434.95977609 994.33293334 434.95679753 992 435 C992 435.66 992 436.32 992 437 C990.80375 436.814375 989.6075 436.62875 988.375 436.4375 C985.46987476 436.05633109 983.580307 436.06994883 980.625 436.5625 C979.75875 436.706875 978.8925 436.85125 978 437 C977.34 436.34 976.68 435.68 976 435 C973.66253478 435.30300475 971.32914823 435.63858045 969 436 C967.65835921 435.7018576 966.32148827 435.37756808 965 435 C964.01 435.33 963.02 435.66 962 436 C958.03650664 436.25298894 955.41084952 436.09898432 952 434 C951.67 434.33 951.34 434.66 951 435 C943.47761194 435.23880597 943.47761194 435.23880597 941 434 C941 434.99 941 435.98 941 437 C940.09636719 436.84402344 939.19273437 436.68804688 938.26171875 436.52734375 C937.08222656 436.33269531 935.90273437 436.13804687 934.6875 435.9375 C933.51574219 435.74027344 932.34398437 435.54304688 931.13671875 435.33984375 C927.97488124 434.77694302 927.97488124 434.77694302 925 436 C922.64811553 435.40206327 920.31074405 434.74118205 918 434 C918 434.66 918 435.32 918 436 C916.91332031 435.87431641 916.91332031 435.87431641 915.8046875 435.74609375 C910.58437595 435.19622093 906.1761504 435.00882226 901 436 C892.13286713 436.37762238 892.13286713 436.37762238 888 435 C885.36195411 435.39397335 885.36195411 435.39397335 883 436 C883 435.34 883 434.68 883 434 C882.01 434.495 882.01 434.495 881 435 C877.38031652 435.24085346 873.75180726 435.1851958 870.125 435.1875 C869.11824219 435.19974609 868.11148438 435.21199219 867.07421875 435.22460938 C865.61822266 435.22750977 865.61822266 435.22750977 864.1328125 435.23046875 C863.24480957 435.23457764 862.35680664 435.23868652 861.44189453 435.24291992 C858.85575383 434.98565038 857.22557548 434.30628791 855 433 C855 433.66 855 434.32 855 435 C850.82518761 436.39160413 848.09766916 435.36588972 844 434 C844 433.34 844 432.68 844 432 C843.34 432 842.68 432 842 432 C841.67 432.99 841.34 433.98 841 435 C837.62507371 435.05845196 834.25027913 435.09374742 830.875 435.125 C829.92367187 435.14175781 828.97234375 435.15851563 827.9921875 435.17578125 C822.83420251 435.21160059 818.88637943 434.81146153 814 433 C813.01 433.33 812.02 433.66 811 434 C808.25770379 434.06792065 805.53128389 433.99793463 802.7890625 433.9375 C800.0666802 433.99850577 797.65961873 434.4590606 795 435 C793.33333333 434.66666667 791.66666667 434.33333333 790 434 C789.236875 434.165 788.47375 434.33 787.6875 434.5 C783.93092078 435.19889846 780.77155581 434.57532207 777 434 C776.67 433.01 776.34 432.02 776 431 C775.67 432.32 775.34 433.64 775 435 C771.7 435 768.4 435 765 435 C765 434.34 765 433.68 765 433 C764.01 433.66 763.02 434.32 762 435 C760.3247643 434.71281674 758.65919896 434.36871088 757 434 C755.58358639 433.9732247 754.16644004 433.97466118 752.75 434 C751.5125 434 750.275 434 749 434 C748.67 433.67 748.34 433.34 748 433 C747.67 433.66 747.34 434.32 747 435 C745.68 435 744.36 435 743 435 C743 434.01 743 433.02 743 432 C741.865625 432.185625 740.73125 432.37125 739.5625 432.5625 C738.386875 432.706875 737.21125 432.85125 736 433 C735.67 432.67 735.34 432.34 735 432 C734.67 432.66 734.34 433.32 734 434 C732.35 433.67 730.7 433.34 729 433 C729 433.66 729 434.32 729 435 C728.39414063 434.9278125 727.78828125 434.855625 727.1640625 434.78125 C721.07960345 434.10727915 715.1179836 433.89411182 709 434 C708.34 434 707.68 434 707 434 C706.38125 434.226875 705.7625 434.45375 705.125 434.6875 C704.42375 434.790625 703.7225 434.89375 703 435 C702.1028125 434.2265625 702.1028125 434.2265625 701.1875 433.4375 C700.465625 432.963125 699.74375 432.48875 699 432 C696.64315944 432.57809297 694.30988315 433.25613932 692 434 C689.66796188 434.0777346 687.33160941 434.08967728 685 434 C682.67175703 434 680.34350553 434.02923226 678.015625 434.0703125 C676.42708757 434.08890742 674.83854566 434.10712248 673.25 434.125 C672.46367188 434.14175781 671.67734375 434.15851563 670.8671875 434.17578125 C665.81241985 434.21776437 661.81830768 433.48255621 657 432 C654.96672915 432.8499169 654.96672915 432.8499169 653 434 C650.66796188 434.0777346 648.33160941 434.08967728 646 434 C646 433.01 646 432.02 646 431 C645.34 431 644.68 431 644 431 C644 431.66 644 432.32 644 433 C642.68 433.33 641.36 433.66 640 434 C640 433.01 640 432.02 640 431 C637.36 431.33 634.72 431.66 632 432 C632 431.34 632 430.68 632 430 C631.21625 430.474375 630.4325 430.94875 629.625 431.4375 C624.308896 433.72892414 618.58268877 434.86089626 613 433 C612.01 433 611.02 433 610 433 C610 432.01 610 431.02 610 430 C609.175 430.474375 608.35 430.94875 607.5 431.4375 C603.47204099 433.23569599 600.36826421 433.6234255 596 434 C596 433.34 596 432.68 596 432 C595.34 432 594.68 432 594 432 C593.67 432.66 593.34 433.32 593 434 C590 434 590 434 588.3125 432.5 C587.879375 432.005 587.44625 431.51 587 431 C587 431.66 587 432.32 587 433 C582.66200704 434.27588028 580.18949782 433.48959923 576 432 C575.01 432.495 575.01 432.495 574 433 C572.00039988 433.039992 569.99952758 433.04346799 568 433 C568 432.01 568 431.02 568 430 C565.69 430 563.38 430 561 430 C561 430.66 561 431.32 561 432 C555.86686639 433.9100032 552.2519356 434.7506452 547 433 C544.15957588 432.97045621 541.33491152 433.06590599 538.49609375 433.16015625 C536 433 536 433 534 431 C533.01 431.66 532.02 432.32 531 433 C528.14301211 432.95675599 525.40020234 432.81744051 522.5625 432.5625 C521.04344982 432.43302821 519.52391094 432.30914378 518.00390625 432.19140625 C517.33174072 432.13154541 516.6595752 432.07168457 515.96704102 432.01000977 C513.8151419 431.9990593 512.08152007 432.47930631 510 433 C507.86523438 433.03759766 507.86523438 433.03759766 505.59375 432.9140625 C504.35431641 432.84832031 504.35431641 432.84832031 503.08984375 432.78125 C502.23519531 432.7296875 501.38054688 432.678125 500.5 432.625 C499.21802734 432.55925781 499.21802734 432.55925781 497.91015625 432.4921875 C491.47613346 432.13083833 491.47613346 432.13083833 488.87304688 431.41552734 C486.87540978 430.78289425 486.87540978 430.78289425 484.625 432 C481.26792036 433.27888748 479.44376486 432.93268632 476 432 C473.125 430.4375 473.125 430.4375 471 429 C471 430.32 471 431.64 471 433 C470.01 433 469.02 433 468 433 C467.34 432.01 466.68 431.02 466 430 C465.67 430.99 465.34 431.98 465 433 C463.54257537 433.08096803 462.08387193 433.13917774 460.625 433.1875 C459.81289063 433.22230469 459.00078125 433.25710938 458.1640625 433.29296875 C457.44992187 433.19628906 456.73578125 433.09960938 456 433 C455.34 432.01 454.68 431.02 454 430 C453.67 430.33 453.34 430.66 453 431 C441.76980215 433.42545693 430.92357996 432.88260736 419.54443359 432.12207031 C416.03449241 431.95367935 412.5369714 432.00119791 409.0246582 432.07568359 C407 432 407 432 405 431 C403.68 431 402.36 431 401 431 C401 431.66 401 432.32 401 433 C399.76378906 432.84660156 398.52757812 432.69320313 397.25390625 432.53515625 C391.49192135 431.89493571 385.72829033 431.66036322 379.9375 431.4375 C378.88111328 431.39431641 377.82472656 431.35113281 376.73632812 431.30664062 C374.15765121 431.20162663 371.57889565 431.09947123 369 431 C369 430.34 369 429.68 369 429 C367.79988281 429.48855469 366.59976562 429.97710938 365.36328125 430.48046875 C359.02748306 432.58826611 352.80228971 432.40174433 346.1875 432.3125 C344.97384766 432.31572266 343.76019531 432.31894531 342.50976562 432.32226562 C333.04184946 432.26463027 333.04184946 432.26463027 329 430 C328.34 430 327.68 430 327 430 C327 430.66 327 431.32 327 432 C325.783125 431.814375 324.56625 431.62875 323.3125 431.4375 C318.08771274 430.82379483 313.12662376 431.33777479 307.91796875 431.94140625 C304.79837102 432.00404877 303.68691805 431.40068547 301 430 C298.53393437 429.97236153 298.53393437 429.97236153 296 430.375 C292.91313875 430.77967998 290.13638592 431 287 431 C285.66426864 431.16957527 284.33070516 431.35717635 283 431.5625 C279.96336791 431.97073967 277.96175613 431.76432416 275 431 C273.906875 431.165 272.81375 431.33 271.6875 431.5 C267.81678448 432.02484278 264.83524343 431.62758529 261 431 C259.0003305 430.96364237 256.99940538 430.95123402 255 431 C255 430.34 255 429.68 255 429 C254.01 429 253.02 429 252 429 C252 429.66 252 430.32 252 431 C250.948125 430.814375 249.89625 430.62875 248.8125 430.4375 C245.40457789 430.04642697 243.26910788 430.23079815 240 431 C239.67 430.67 239.34 430.34 239 430 C237.19248233 429.936958 235.38255313 429.94069979 233.57421875 429.97265625 C232.46755859 429.98490234 231.36089844 429.99714844 230.22070312 430.00976562 C227.87688867 430.04474793 225.53313082 430.08376978 223.18945312 430.12695312 C222.07892578 430.13791016 220.96839844 430.14886719 219.82421875 430.16015625 C218.29414185 430.18541382 218.29414185 430.18541382 216.7331543 430.21118164 C213.96456941 429.9972624 212.35389896 429.42442326 210 428 C210 428.66 210 429.32 210 430 C208.06447266 429.98259766 208.06447266 429.98259766 206.08984375 429.96484375 C204.37239729 429.9554588 202.65494925 429.94635936 200.9375 429.9375 C200.08994141 429.92912109 199.24238281 429.92074219 198.36914062 429.91210938 C194.52278139 429.89725857 190.82158586 429.95004403 187.01953125 430.56640625 C183.70463436 431.04241344 182.80327454 430.60187117 180 429 C179.01 429.33 178.02 429.66 177 430 C174.33333333 430 171.66666667 430 169 430 C168.01 430.33 167.02 430.66 166 431 C163.51953125 430.66015625 163.51953125 430.66015625 160.8125 430.0625 C159.46091797 429.77052734 159.46091797 429.77052734 158.08203125 429.47265625 C157.39496094 429.31667969 156.70789063 429.16070313 156 429 C155.67 429.66 155.34 430.32 155 431 C154.030625 430.690625 153.06125 430.38125 152.0625 430.0625 C147.76335509 428.82032903 143.44657366 428.38315147 139 428 C139 428.66 139 429.32 139 430 C136.98177083 429.96744792 134.96354167 429.93489583 132.9453125 429.90234375 C130.91814596 429.87350758 130.91814596 429.87350758 129 431 C128.01 430.46375 127.02 429.9275 126 429.375 C121.59480202 427.29813076 118.34771337 428.68195519 113.94140625 430.23828125 C113.30074219 430.48964844 112.66007813 430.74101563 112 431 C111.34 430.34 110.68 429.68 110 429 C108.65737935 429.29369827 107.32303717 429.6278958 106 430 C105.34 429.67 104.68 429.34 104 429 C102.16297654 429.08788229 100.32876716 429.24259192 98.5 429.4375 C92.97670689 430.01163178 87.55011248 430 82 430 C82 429.34 82 428.68 82 428 C80.9164624 428.24556641 80.9164624 428.24556641 79.81103516 428.49609375 C77.12727847 428.97718406 74.74351412 429.10031532 72.0234375 429.0625 C71.105625 429.05476563 70.1878125 429.04703125 69.2421875 429.0390625 C67.82292969 429.01972656 67.82292969 429.01972656 66.375 429 C64.48703661 428.97448698 62.59900586 428.95345551 60.7109375 428.9375 C59.46256104 428.92009766 59.46256104 428.92009766 58.18896484 428.90234375 C55.81992743 428.90800641 55.81992743 428.90800641 53 430 C51.11938477 429.88330078 51.11938477 429.88330078 48.87890625 429.5703125 C41.9963468 428.79238192 35.11704387 428.85001438 28.20141602 428.86962891 C25.91090501 428.8750631 23.62058374 428.86961602 21.33007812 428.86328125 C19.87499957 428.8639408 18.41992113 428.8652194 16.96484375 428.8671875 C14.99439087 428.86887939 14.99439087 428.86887939 12.98413086 428.87060547 C10.11653266 428.65819701 10.11653266 428.65819701 9 430 C7.31391034 430.07205511 5.62499341 430.08386068 3.9375 430.0625 C3.01839844 430.05347656 2.09929687 430.04445313 1.15234375 430.03515625 C0.44207031 430.02355469 -0.26820313 430.01195312 -1 430 C-1.33 431.32 -1.66 432.64 -2 434 C-6.84302879 432.96220812 -9.27488549 432.00710348 -12.25 427.875 C-12.8275 426.92625 -13.405 425.9775 -14 425 C-15.98 425.33 -17.96 425.66 -20 426 C-19.67 424.02 -19.34 422.04 -19 420 C-19.78375 419.896875 -20.5675 419.79375 -21.375 419.6875 C-24 419 -24 419 -26 416 C-26.21118164 413.77929688 -26.21118164 413.77929688 -26.16015625 411.21875 C-26.14919922 410.29449219 -26.13824219 409.37023437 -26.12695312 408.41796875 C-26.10568359 407.45503906 -26.08441406 406.49210937 -26.0625 405.5 C-26.02805107 403.59382603 -25.9979143 401.68756791 -25.97265625 399.78125 C-25.95468994 398.93626953 -25.93672363 398.09128906 -25.91821289 397.22070312 C-25.90227695 394.82467285 -25.90227695 394.82467285 -27 392 C-26.34 392 -25.68 392 -25 392 C-25.5259375 390.8553125 -25.5259375 390.8553125 -26.0625 389.6875 C-27 387 -27 387 -26 384 C-25.34 383.34 -24.68 382.68 -24 382 C-24.495 381.38125 -24.99 380.7625 -25.5 380.125 C-27 378 -27 378 -27 376 C-26.34 375.34 -25.68 374.68 -25 374 C-25.66 373.67 -26.32 373.34 -27 373 C-25.125 367.25 -25.125 367.25 -24 365 C-24.66 364.67 -25.32 364.34 -26 364 C-25.34 360.7 -24.68 357.4 -24 354 C-24.66 354 -25.32 354 -26 354 C-25.835 353.236875 -25.67 352.47375 -25.5 351.6875 C-24.90854604 348.96403764 -24.90854604 348.96403764 -25 346 C-25.33 345.67 -25.66 345.34 -26 345 C-26.12685806 342.36253244 -26.18520617 339.76290834 -26.1875 337.125 C-26.20586914 336.02478516 -26.20586914 336.02478516 -26.22460938 334.90234375 C-26.23509566 331.06436486 -26.17768617 329.26652926 -24 326 C-24.66 325.67 -25.32 325.34 -26 325 C-25.67 324.01 -25.34 323.02 -25 322 C-25.2475 320.5459375 -25.2475 320.5459375 -25.5 319.0625 C-26 316 -26 316 -25.5 314.125 C-24.95472519 311.80758207 -25.15453749 310.34050851 -25.5 308 C-25.9344883 305.05207937 -26.06935739 302.8516197 -25 300 C-24.34 300 -23.68 300 -23 300 C-23.33 298.02 -23.66 296.04 -24 294 C-24.66 294 -25.32 294 -26 294 C-25.62875 292.96875 -25.2575 291.9375 -24.875 290.875 C-23.92463494 286.66624045 -24.29730429 284.87836244 -26 281 C-25.34 280.34 -24.68 279.68 -24 279 C-24.66 278.67 -25.32 278.34 -26 278 C-25.7834375 276.96939453 -25.7834375 276.96939453 -25.5625 275.91796875 C-25.2840625 274.56638672 -25.2840625 274.56638672 -25 273.1875 C-24.814375 272.29417969 -24.62875 271.40085937 -24.4375 270.48046875 C-23.91315157 267.92739307 -23.91315157 267.92739307 -24 265 C-24.66 264.67 -25.32 264.34 -26 264 C-26.02692484 261.70839681 -26.04636124 259.41670454 -26.0625 257.125 C-26.07410156 255.84882812 -26.08570313 254.57265625 -26.09765625 253.2578125 C-26 250 -26 250 -25 248 C-24.87102594 244.58218746 -24.88156473 241.53295874 -25.625 238.1875 C-25.74875 237.465625 -25.8725 236.74375 -26 236 C-25.01 235.01 -25.01 235.01 -24 234 C-24.66 233.01 -25.32 232.02 -26 231 C-25.125 228.3125 -25.125 228.3125 -24 226 C-24.66 225.34 -25.32 224.68 -26 224 C-25.505 223.01 -25.505 223.01 -25 222 C-24.92773934 219.53157569 -24.9071274 217.09218974 -24.9375 214.625 C-24.94201172 213.95210937 -24.94652344 213.27921875 -24.95117188 212.5859375 C-24.96400066 210.72393139 -24.98182467 208.8619616 -25 207 C-25 205.68 -25 204.36 -25 203 C-25.07540321 201.31206228 -25.16088819 199.6245587 -25.25390625 197.9375 C-25.32834961 196.49503906 -25.32834961 196.49503906 -25.40429688 195.0234375 C-25.50977649 193.0076049 -25.61915271 190.99197242 -25.73242188 188.9765625 C-25.80493164 187.53410156 -25.80493164 187.53410156 -25.87890625 186.0625 C-25.9260376 185.18722656 -25.97316895 184.31195313 -26.02172852 183.41015625 C-26.00064356 181.07138451 -25.60850872 179.24367791 -25 177 C-24.90587396 174.52227044 -24.87008521 172.04201191 -24.875 169.5625 C-24.87242187 168.26441406 -24.86984375 166.96632813 -24.8671875 165.62890625 C-24.88300758 162.15767011 -24.88300758 162.15767011 -25.5703125 159.46484375 C-26.14793832 156.15137197 -25.48848151 153.32778027 -25 150 C-24.89929358 146.5612953 -24.94997153 143.12695708 -25 139.6875 C-25.0254477 137.89979931 -25.0465017 136.11202897 -25.0625 134.32421875 C-25.07410156 133.54135498 -25.08570313 132.75849121 -25.09765625 131.9519043 C-25 130 -25 130 -24 128 C-24.66 128 -25.32 128 -26 128 C-25.67 126.68 -25.34 125.36 -25 124 C-24.34 124 -23.68 124 -23 124 C-23.350625 123.154375 -23.70125 122.30875 -24.0625 121.4375 C-25.1298883 117.5237429 -24.66028015 114.96168088 -24 111 C-24.3577614 108.72349255 -24.3577614 108.72349255 -25 107 C-25 103 -25 99 -25 95 C-25.20625 94.05125 -25.4125 93.1025 -25.625 92.125 C-26.01886461 88.84279488 -25.76827834 87.7044257 -24 85 C-24.33 84.67 -24.66 84.34 -25 84 C-25.14636054 80.63370749 -25.07193479 78.21580438 -24 75 C-24.495 74.0409375 -24.495 74.0409375 -25 73.0625 C-26 71 -26 71 -25.75 69.125 C-25.5025 68.42375 -25.255 67.7225 -25 67 C-24.649375 65.9275 -24.29875 64.855 -23.9375 63.75 C-23.4734375 62.38875 -23.4734375 62.38875 -23 61 C-23.66 61 -24.32 61 -25 61 C-24.979375 60.071875 -24.95875 59.14375 -24.9375 58.1875 C-24.84230396 54.97713989 -24.84230396 54.97713989 -26 52 C-25.69431745 50.66005707 -25.35800212 49.32692252 -25 48 C-24.93247492 46.47140096 -24.91489262 44.94007898 -24.9375 43.41015625 C-24.94523437 42.54326172 -24.95296875 41.67636719 -24.9609375 40.78320312 C-24.98692309 38.97330649 -25.01296452 37.16341065 -25.0390625 35.35351562 C-25.07709347 31.08453935 -25.05899394 27.16589527 -24 23 C-23.835 21.845 -23.67 20.69 -23.5 19.5 C-23.335 18.345 -23.17 17.19 -23 16 C-22.95875 15.154375 -22.9175 14.30875 -22.875 13.4375 C-21.46099346 9.49848179 -18.43965713 7.26159274 -15 5 C-12.1875 4.3125 -12.1875 4.3125 -10 4 C-9.34 3.01 -8.68 2.02 -8 1 C-5.28169253 0.37705454 -2.78775729 0 0 0 Z M895 432 C895 432.66 895 433.32 895 434 C895.66 433.67 896.32 433.34 897 433 C896.34 432.67 895.68 432.34 895 432 Z M1360 434 C1360.33 434.66 1360.66 435.32 1361 436 C1361.33 435.34 1361.66 434.68 1362 434 C1361.34 434 1360.68 434 1360 434 Z " fill="#946B41" transform="translate(455,270)"/>
<path d="M0 0 C-3 2 -3 2 -5.1875 1.625 C-5.785625 1.41875 -6.38375 1.2125 -7 1 C-3.375 -1.125 -3.375 -1.125 0 0 Z " fill="#93683D" transform="translate(1889,332)"/>
<path d="M0 0 C2 1 2 1 2 1 Z " fill="#966B40" transform="translate(1867,666)"/>
<path d="M0 0 C2 1 2 1 2 1 Z " fill="#966B3F" transform="translate(1889,330)"/>
</svg>
