<?xml version="1.0" encoding="UTF-8"?>
<svg version="1.1" xmlns="http://www.w3.org/2000/svg" width="1920" height="1080">
<path d="M0 0 C3.65021722 1.89756094 6.15407433 5.03052299 8.85546875 8.078125 C14.07510093 12.79054911 22.45110758 11.2853453 29.06640625 11.07421875 C30.77722407 10.91093557 32.48634453 10.72694785 34.19140625 10.51171875 C38.06640625 10.07421875 38.06640625 10.07421875 41.06640625 11.07421875 C42.67058508 11.09409353 44.27555726 11.06700665 45.87890625 11.01171875 C62.73633713 10.85417267 62.73633713 10.85417267 69.06640625 15.07421875 C70.72190156 15.45921766 72.38864955 15.8021501 74.06640625 16.07421875 C74.06640625 16.73421875 74.06640625 17.39421875 74.06640625 18.07421875 C75.71640625 17.74421875 77.36640625 17.41421875 79.06640625 17.07421875 C79.06640625 17.73421875 79.06640625 18.39421875 79.06640625 19.07421875 C80.09765625 19.15671875 81.12890625 19.23921875 82.19140625 19.32421875 C86.06640625 20.07421875 86.06640625 20.07421875 88.72265625 22.125 C93.76153999 25.06238667 98.23605962 24.24830386 103.90234375 23.83007812 C109.35697877 23.59843096 112.93197884 24.35351473 117.43212891 27.54370117 C120.00037379 29.94888898 120.98042377 32.45475126 122.06640625 35.76171875 C122.45828125 36.89996094 122.85015625 38.03820312 123.25390625 39.2109375 C124.06640625 42.07421875 124.06640625 42.07421875 124.06640625 44.07421875 C125.54753906 44.25597656 125.54753906 44.25597656 127.05859375 44.44140625 C128.33992187 44.60898438 129.62125 44.7765625 130.94140625 44.94921875 C132.21757813 45.11164063 133.49375 45.2740625 134.80859375 45.44140625 C138.06640625 46.07421875 138.06640625 46.07421875 140.06640625 48.07421875 C141.48711636 48.58221333 142.92815947 49.03471967 144.37890625 49.44921875 C147.48342581 50.41969057 149.11307685 51.11199971 151.69140625 53.19921875 C154.76262572 55.6238657 157.22806826 55.65549097 161.06640625 56.07421875 C161.76765625 56.44546875 162.46890625 56.81671875 163.19140625 57.19921875 C165.85935648 58.44426219 167.29348388 57.95343804 170.06640625 57.07421875 C170.82953125 56.53796875 171.59265625 56.00171875 172.37890625 55.44921875 C175.50255686 53.85107193 177.70755553 53.82947265 181.1484375 54.44921875 C186.84555644 56.30571372 189.28649444 61.91647004 191.85546875 66.890625 C193.1265749 69.18271642 194.26811906 71.15865196 196.06640625 73.07421875 C198.31888387 73.35359582 200.27016346 73.07946616 202.51953125 72.82421875 C208.97292974 73.45768118 214.24546903 78.64048454 218.94140625 82.76171875 C219.54637939 83.28556152 220.15135254 83.8094043 220.7746582 84.34912109 C225.13758799 88.16341899 229.28692083 92.1457311 233.296875 96.33203125 C235.15025737 98.26624047 235.15025737 98.26624047 238.06640625 100.07421875 C238.39640625 101.06421875 238.72640625 102.05421875 239.06640625 103.07421875 C241.06657091 104.28303971 241.06657091 104.28303971 243.06640625 105.07421875 C243.06640625 105.73421875 243.06640625 106.39421875 243.06640625 107.07421875 C243.99453125 107.36296875 244.92265625 107.65171875 245.87890625 107.94921875 C249.06640625 109.07421875 249.06640625 109.07421875 252.06640625 111.07421875 C252.75390625 114.69921875 252.75390625 114.69921875 253.06640625 118.07421875 C253.72640625 118.07421875 254.38640625 118.07421875 255.06640625 118.07421875 C255.31390625 116.98109375 255.56140625 115.88796875 255.81640625 114.76171875 C257.06640625 111.07421875 257.06640625 111.07421875 258.75390625 109.13671875 C262.05956602 107.6179021 264.47880587 107.61761507 268.06640625 108.07421875 C271.28102582 110.86022238 271.75448659 113.94128321 272.06640625 118.07421875 C271.8539021 121.09375443 271.49907459 124.07882253 271.06640625 127.07421875 C271.68128906 127.35394531 272.29617188 127.63367188 272.9296875 127.921875 C276.74140587 129.97755493 278.7204249 133.03627471 280.06640625 137.07421875 C281.38640625 137.07421875 282.70640625 137.07421875 284.06640625 137.07421875 C284.66453125 136.41421875 285.26265625 135.75421875 285.87890625 135.07421875 C288.06640625 133.07421875 288.06640625 133.07421875 291.62890625 132.63671875 C295.06640625 133.07421875 295.06640625 133.07421875 296.94140625 134.44921875 C298.99375593 137.41372384 299.17724417 139.22401916 299.12890625 142.79296875 C299.12117187 143.72496094 299.1134375 144.65695313 299.10546875 145.6171875 C299.07942708 147.58854167 299.05338542 149.55989583 299.02734375 151.53125 C299.01960937 152.46324219 299.011875 153.39523438 299.00390625 154.35546875 C298.98650391 155.6403418 298.98650391 155.6403418 298.96875 156.95117188 C298.92512076 159.12968333 298.92512076 159.12968333 300.06640625 161.07421875 C301.72173248 162.09288104 303.38900763 163.09232688 305.06640625 164.07421875 C305.72640625 164.73421875 306.38640625 165.39421875 307.06640625 166.07421875 C306.69140625 169.19921875 306.69140625 169.19921875 306.06640625 172.07421875 C306.78828125 172.07421875 307.51015625 172.07421875 308.25390625 172.07421875 C312.10215589 173.44248529 312.97227957 175.61633723 314.9296875 179.07421875 C316.07185801 181.19818857 316.07185801 181.19818857 317.87890625 183.38671875 C319.06640625 185.07421875 319.06640625 185.07421875 319.06640625 188.07421875 C320.05640625 188.40421875 321.04640625 188.73421875 322.06640625 189.07421875 C322.06640625 190.39421875 322.06640625 191.71421875 322.06640625 193.07421875 C322.68515625 193.11546875 323.30390625 193.15671875 323.94140625 193.19921875 C324.64265625 193.48796875 325.34390625 193.77671875 326.06640625 194.07421875 C327.12890625 196.76171875 327.12890625 196.76171875 328.06640625 200.07421875 C328.87078125 201.62109375 328.87078125 201.62109375 329.69140625 203.19921875 C331.06640625 206.07421875 331.06640625 206.07421875 331.06640625 210.07421875 C332.38640625 210.07421875 333.70640625 210.07421875 335.06640625 210.07421875 C335.35515625 211.04359375 335.64390625 212.01296875 335.94140625 213.01171875 C336.70855307 216.18086078 336.70855307 216.18086078 339.06640625 217.07421875 C339.06640625 218.06421875 339.06640625 219.05421875 339.06640625 220.07421875 C339.72640625 220.07421875 340.38640625 220.07421875 341.06640625 220.07421875 C340.73640625 221.39421875 340.40640625 222.71421875 340.06640625 224.07421875 C341.05640625 224.40421875 342.04640625 224.73421875 343.06640625 225.07421875 C344.4577106 234.29161005 344.4577106 234.29161005 343.06640625 237.07421875 C345.54140625 238.06421875 345.54140625 238.06421875 348.06640625 239.07421875 C347.73640625 242.70421875 347.40640625 246.33421875 347.06640625 250.07421875 C347.72640625 250.07421875 348.38640625 250.07421875 349.06640625 250.07421875 C349.06640625 251.06421875 349.06640625 252.05421875 349.06640625 253.07421875 C350.71640625 253.40421875 352.36640625 253.73421875 354.06640625 254.07421875 C353.73640625 255.72421875 353.40640625 257.37421875 353.06640625 259.07421875 C354.05640625 259.40421875 355.04640625 259.73421875 356.06640625 260.07421875 C356.75390625 262.13671875 356.75390625 262.13671875 357.06640625 264.07421875 C355.41640625 264.73421875 353.76640625 265.39421875 352.06640625 266.07421875 C352.39640625 267.39421875 352.72640625 268.71421875 353.06640625 270.07421875 C354.71640625 270.07421875 356.36640625 270.07421875 358.06640625 270.07421875 C358.76715469 273.22758675 359.06640625 275.80146849 359.06640625 279.07421875 C360.05640625 279.40421875 361.04640625 279.73421875 362.06640625 280.07421875 C362.06640625 283.04421875 362.06640625 286.01421875 362.06640625 289.07421875 C363.15953125 289.17734375 364.25265625 289.28046875 365.37890625 289.38671875 C369.06640625 290.07421875 369.06640625 290.07421875 371.00390625 291.26171875 C372.65893966 294.08501104 372.49471765 295.8312896 372.06640625 299.07421875 C371.38650561 300.31933799 370.67531955 301.547652 369.94140625 302.76171875 C367.45954267 307.2884981 368.22818051 310.75407556 369.29296875 315.65625 C370.01478766 318.29452754 370.01478766 318.29452754 372.06640625 321.07421875 C372.48046875 323.30859375 372.48046875 323.30859375 372.69140625 325.82421875 C372.76746094 326.70722656 372.84351563 327.59023438 372.921875 328.5 C373.0435613 330.66733175 373.03835818 332.84124702 373.00390625 335.01171875 C372.7954803 338.25023809 372.7954803 338.25023809 375.06640625 341.07421875 C375.26171875 343.3359375 375.26171875 343.3359375 375.19140625 345.76171875 C375.17335938 346.56996094 375.1553125 347.37820313 375.13671875 348.2109375 C375.10191406 349.13326172 375.10191406 349.13326172 375.06640625 350.07421875 C375.72640625 350.07421875 376.38640625 350.07421875 377.06640625 350.07421875 C376.86015625 351.02296875 376.65390625 351.97171875 376.44140625 352.94921875 C376.31765625 353.98046875 376.19390625 355.01171875 376.06640625 356.07421875 C376.72640625 356.73421875 377.38640625 357.39421875 378.06640625 358.07421875 C378.25203125 359.68296875 378.25203125 359.68296875 378.44140625 361.32421875 C379.1437712 365.53840847 380.52783485 367.68945688 383.06640625 371.07421875 C383.72640625 372.06421875 384.38640625 373.05421875 385.06640625 374.07421875 C386.18015625 374.07421875 387.29390625 374.07421875 388.44140625 374.07421875 C392.06640625 374.07421875 392.06640625 374.07421875 394.50390625 375.07421875 C396.43787644 377.5497006 396.79561221 379.55431837 396.66796875 382.67578125 C395.39781427 387.73990364 392.02743003 391.85635754 389.06640625 396.07421875 C388.73640625 396.73421875 388.40640625 397.39421875 388.06640625 398.07421875 C389.30390625 397.97109375 390.54140625 397.86796875 391.81640625 397.76171875 C395.24758464 397.76781321 395.84826823 397.89332381 398.62890625 400.19921875 C400.43226197 403.8059302 400.0476258 405.21156424 399.06640625 409.07421875 C397.54296875 411.75 397.54296875 411.75 395.69140625 414.38671875 C390.45830726 422.3328793 387.7476499 430.43563396 388.06640625 440.07421875 C388.70319071 441.42207919 389.37126996 442.75550432 390.06640625 444.07421875 C391.03051877 448.93827514 391.7493917 453.43505366 389.81640625 458.07421875 C388.06640625 460.07421875 388.06640625 460.07421875 386.5390625 461.38671875 C384.64236333 463.5601247 384.34266679 465.25457645 383.75390625 468.07421875 C382.26914589 474.55819884 380.29986944 480.82153664 378.22338867 487.13476562 C376.95588998 491.04182726 375.76190396 494.96289634 374.73828125 498.94140625 C374.55233398 499.65280762 374.36638672 500.36420898 374.17480469 501.09716797 C374.03310336 503.68162137 374.73151681 504.5575781 376.37890625 506.51171875 C377.26578125 507.35734375 378.15265625 508.20296875 379.06640625 509.07421875 C380.67046709 512.28234043 380.54833488 515.59362308 380.06640625 519.07421875 C378.20540288 522.17589104 376.72972316 523.70939445 373.56640625 525.44921875 C370.18025113 527.65021958 368.45831551 530.35767752 367.06640625 534.07421875 C366.89206957 535.56928789 366.76836345 537.07098803 366.69140625 538.57421875 C366.39817974 543.2182926 364.61571626 545.37912617 361.34375 548.56640625 C359.74321366 550.12636871 359.74321366 550.12636871 360.06640625 553.07421875 C361.05640625 553.40421875 362.04640625 553.73421875 363.06640625 554.07421875 C364.52936425 557.00013475 364.51163734 558.83039222 364.06640625 562.07421875 C362.07581229 563.97433116 360.27016626 565.49009786 358.06640625 567.07421875 C354.66957853 570.0120157 353.69748551 571.65666391 353.06640625 576.07421875 C352.12890625 579.32421875 352.12890625 579.32421875 351.06640625 582.07421875 C350.40640625 582.40421875 349.74640625 582.73421875 349.06640625 583.07421875 C349.06640625 584.06421875 349.06640625 585.05421875 349.06640625 586.07421875 C348.43534196 588.08573616 347.77266864 590.08785577 347.06640625 592.07421875 C346.40640625 592.07421875 345.74640625 592.07421875 345.06640625 592.07421875 C344.93363281 592.70070313 344.80085937 593.3271875 344.6640625 593.97265625 C344.48746094 594.78992188 344.31085937 595.6071875 344.12890625 596.44921875 C343.95488281 597.26132812 343.78085937 598.0734375 343.6015625 598.91015625 C343.06640625 601.07421875 343.06640625 601.07421875 342.06640625 603.07421875 C341.07640625 603.40421875 340.08640625 603.73421875 339.06640625 604.07421875 C338.96328125 605.00234375 338.86015625 605.93046875 338.75390625 606.88671875 C338.01081017 610.33198237 337.52475646 610.8049724 335.06640625 613.07421875 C334.44765625 614.40453125 334.44765625 614.40453125 333.81640625 615.76171875 C331.54853249 620.05447979 328.69496622 623.82500823 325.06640625 627.07421875 C324.07640625 627.07421875 323.08640625 627.07421875 322.06640625 627.07421875 C322.06640625 627.73421875 322.06640625 628.39421875 322.06640625 629.07421875 C321.0879043 630.09526426 320.08660198 631.09483085 319.06640625 632.07421875 C318.73640625 632.73421875 318.40640625 633.39421875 318.06640625 634.07421875 C317.07640625 634.07421875 316.08640625 634.07421875 315.06640625 634.07421875 C315.06640625 635.06421875 315.06640625 636.05421875 315.06640625 637.07421875 C313.74640625 637.40421875 312.42640625 637.73421875 311.06640625 638.07421875 C311.06640625 638.73421875 311.06640625 639.39421875 311.06640625 640.07421875 C310.40640625 640.07421875 309.74640625 640.07421875 309.06640625 640.07421875 C309.06640625 641.06421875 309.06640625 642.05421875 309.06640625 643.07421875 C307.38671875 644.3203125 307.38671875 644.3203125 305.19140625 645.51171875 C301.93067356 647.28233166 300.32659702 648.52578684 299.06640625 652.07421875 C299.06640625 653.39421875 299.06640625 654.71421875 299.06640625 656.07421875 C298.40640625 656.40421875 297.74640625 656.73421875 297.06640625 657.07421875 C296.73640625 658.06421875 296.40640625 659.05421875 296.06640625 660.07421875 C295.07640625 660.07421875 294.08640625 660.07421875 293.06640625 660.07421875 C292.98390625 660.68394531 292.90140625 661.29367187 292.81640625 661.921875 C291.83156251 664.74817135 290.68457652 665.16055588 288.06640625 666.51171875 C284.75888461 668.25683976 284.75888461 668.25683976 283.37890625 671.57421875 C283.27578125 672.39921875 283.17265625 673.22421875 283.06640625 674.07421875 C280.69140625 676.69921875 280.69140625 676.69921875 278.06640625 679.07421875 C277.23109375 679.97140625 277.23109375 679.97140625 276.37890625 680.88671875 C275.06640625 682.07421875 275.06640625 682.07421875 273.06640625 682.07421875 C272.61265625 682.87859375 272.15890625 683.68296875 271.69140625 684.51171875 C269.78961014 687.51070492 269.30751168 687.34235623 266.06640625 688.07421875 C265.36246013 689.38825151 264.70294967 690.72624445 264.06640625 692.07421875 C262.44191382 693.78201848 260.77420598 695.44972632 259.06640625 697.07421875 C258.23109375 697.97140625 258.23109375 697.97140625 257.37890625 698.88671875 C256.06640625 700.07421875 256.06640625 700.07421875 254.06640625 700.07421875 C253.86015625 700.67234375 253.65390625 701.27046875 253.44140625 701.88671875 C252.06640625 704.07421875 252.06640625 704.07421875 249.12890625 705.51171875 C245.58229761 707.32121295 245.02844952 708.72239483 243.06640625 712.07421875 C239.48437005 714.87755143 236.60469853 716.54030201 232.06640625 717.07421875 C232.06640625 717.73421875 232.06640625 718.39421875 232.06640625 719.07421875 C231.40640625 719.40421875 230.74640625 719.73421875 230.06640625 720.07421875 C229.73640625 721.06421875 229.40640625 722.05421875 229.06640625 723.07421875 C227.08640625 723.07421875 225.10640625 723.07421875 223.06640625 723.07421875 C223.02515625 723.69296875 222.98390625 724.31171875 222.94140625 724.94921875 C222.06640625 727.07421875 222.06640625 727.07421875 219.12890625 728.32421875 C216.06640625 729.07421875 216.06640625 729.07421875 214.06640625 729.07421875 C214.06640625 729.73421875 214.06640625 730.39421875 214.06640625 731.07421875 C213.07640625 731.40421875 212.08640625 731.73421875 211.06640625 732.07421875 C210.73640625 732.73421875 210.40640625 733.39421875 210.06640625 734.07421875 C208.30053711 734.94384766 208.30053711 734.94384766 206.03125 735.80078125 C205.22236328 736.11015625 204.41347656 736.41953125 203.58007812 736.73828125 C202.72994141 737.05539062 201.87980469 737.3725 201.00390625 737.69921875 C200.14990234 738.0240625 199.29589844 738.34890625 198.41601562 738.68359375 C196.30177253 739.4867699 194.1852665 740.28332089 192.06640625 741.07421875 C192.06640625 741.73421875 192.06640625 742.39421875 192.06640625 743.07421875 C190.04817708 743.23697917 188.02994792 743.39973958 186.01171875 743.5625 C183.67121409 743.94814911 183.67121409 743.94814911 182.06640625 747.07421875 C180.07468443 747.76522428 178.07478821 748.43324578 176.06640625 749.07421875 C175.73640625 749.73421875 175.40640625 750.39421875 175.06640625 751.07421875 C172.42640625 751.07421875 169.78640625 751.07421875 167.06640625 751.07421875 C167.39640625 752.39421875 167.72640625 753.71421875 168.06640625 755.07421875 C166.08640625 755.73421875 164.10640625 756.39421875 162.06640625 757.07421875 C162.06640625 758.06421875 162.06640625 759.05421875 162.06640625 760.07421875 C159.75640625 760.40421875 157.44640625 760.73421875 155.06640625 761.07421875 C154.73640625 760.41421875 154.40640625 759.75421875 154.06640625 759.07421875 C153.07640625 758.74421875 152.08640625 758.41421875 151.06640625 758.07421875 C151.39640625 760.38421875 151.72640625 762.69421875 152.06640625 765.07421875 C148.78261245 767.56194133 147.45442042 768.10602319 143.25390625 767.76171875 C142.20203125 767.53484375 141.15015625 767.30796875 140.06640625 767.07421875 C139.73640625 768.39421875 139.40640625 769.71421875 139.06640625 771.07421875 C136.75640625 771.07421875 134.44640625 771.07421875 132.06640625 771.07421875 C132.06640625 771.73421875 132.06640625 772.39421875 132.06640625 773.07421875 C131.07640625 773.40421875 130.08640625 773.73421875 129.06640625 774.07421875 C128.40640625 774.73421875 127.74640625 775.39421875 127.06640625 776.07421875 C120.94170307 778.38979651 114.46075009 779.73346923 108.06640625 781.07421875 C108.06640625 781.73421875 108.06640625 782.39421875 108.06640625 783.07421875 C105.89766373 782.56817883 104.06672998 782.07438062 102.06640625 781.07421875 C101.44140625 779.01171875 101.44140625 779.01171875 101.06640625 777.07421875 C100.07640625 777.07421875 99.08640625 777.07421875 98.06640625 777.07421875 C97.73640625 779.71421875 97.40640625 782.35421875 97.06640625 785.07421875 C93.10640625 786.06421875 89.14640625 787.05421875 85.06640625 788.07421875 C84.40640625 787.08421875 83.74640625 786.09421875 83.06640625 785.07421875 C82.40640625 786.06421875 81.74640625 787.05421875 81.06640625 788.07421875 C77.50390625 788.82421875 77.50390625 788.82421875 74.06640625 789.07421875 C73.73640625 788.74421875 73.40640625 788.41421875 73.06640625 788.07421875 C72.73640625 788.73421875 72.40640625 789.39421875 72.06640625 790.07421875 C69.42640625 789.74421875 66.78640625 789.41421875 64.06640625 789.07421875 C64.06640625 789.73421875 64.06640625 790.39421875 64.06640625 791.07421875 C60.73307292 791.07421875 57.39973958 791.07421875 54.06640625 791.07421875 C52.55884393 791.37148456 51.05831266 791.70635142 49.56640625 792.07421875 C44.21082083 793.39477406 35.07987125 794.58095125 30.06640625 792.07421875 C29.73640625 793.06421875 29.40640625 794.05421875 29.06640625 795.07421875 C28.40640625 795.07421875 27.74640625 795.07421875 27.06640625 795.07421875 C26.40640625 794.41421875 25.74640625 793.75421875 25.06640625 793.07421875 C24.73640625 793.73421875 24.40640625 794.39421875 24.06640625 795.07421875 C20.9434999 794.58843332 18.07060266 794.07561755 15.06640625 793.07421875 C12.85385765 793.56941172 12.85385765 793.56941172 10.56640625 794.44921875 C9.40625 794.86300781 9.40625 794.86300781 8.22265625 795.28515625 C7.51109375 795.54554688 6.79953125 795.8059375 6.06640625 796.07421875 C5.07640625 796.40421875 4.08640625 796.73421875 3.06640625 797.07421875 C2.73640625 797.73421875 2.40640625 798.39421875 2.06640625 799.07421875 C-0.93359375 799.07421875 -0.93359375 799.07421875 -2.49609375 797.57421875 C-2.97046875 797.07921875 -3.44484375 796.58421875 -3.93359375 796.07421875 C-4.59359375 796.07421875 -5.25359375 796.07421875 -5.93359375 796.07421875 C-6.17078125 796.71746094 -6.40796875 797.36070312 -6.65234375 798.0234375 C-7.93359375 800.07421875 -7.93359375 800.07421875 -10.02734375 800.71875 C-10.82140625 800.77417969 -11.61546875 800.82960938 -12.43359375 800.88671875 C-13.22765625 800.95503906 -14.02171875 801.02335938 -14.83984375 801.09375 C-16.93359375 801.07421875 -16.93359375 801.07421875 -18.93359375 800.07421875 C-19.26359375 799.08421875 -19.59359375 798.09421875 -19.93359375 797.07421875 C-20.59359375 796.74421875 -21.25359375 796.41421875 -21.93359375 796.07421875 C-22.05734375 796.85796875 -22.18109375 797.64171875 -22.30859375 798.44921875 C-22.93359375 801.07421875 -22.93359375 801.07421875 -24.93359375 803.07421875 C-28.86649358 804.27593814 -31.94263534 803.90953563 -35.93359375 803.07421875 C-36.26359375 804.06421875 -36.59359375 805.05421875 -36.93359375 806.07421875 C-37.92359375 805.74421875 -38.91359375 805.41421875 -39.93359375 805.07421875 C-39.93359375 804.41421875 -39.93359375 803.75421875 -39.93359375 803.07421875 C-41.02671875 803.25984375 -42.11984375 803.44546875 -43.24609375 803.63671875 C-46.93359375 804.07421875 -46.93359375 804.07421875 -49.93359375 803.07421875 C-49.93359375 804.06421875 -49.93359375 805.05421875 -49.93359375 806.07421875 C-56.62352594 805.53470809 -62.56820103 804.18715704 -68.93359375 802.07421875 C-68.93359375 803.06421875 -68.93359375 804.05421875 -68.93359375 805.07421875 C-70.57989703 804.93378998 -72.22563554 804.78672546 -73.87109375 804.63671875 C-74.78761719 804.55550781 -75.70414062 804.47429688 -76.6484375 804.390625 C-78.93359375 804.07421875 -78.93359375 804.07421875 -79.93359375 803.07421875 C-81.47618432 803.10672545 -83.01806501 803.17561669 -84.55859375 803.26171875 C-88.35761627 803.33227203 -90.6144887 803.02538704 -93.80859375 800.94921875 C-94.83984375 800.33046875 -95.87109375 799.71171875 -96.93359375 799.07421875 C-98.27888414 799.71641498 -99.61125057 800.3860104 -100.93359375 801.07421875 C-103.29296875 801.05078125 -103.29296875 801.05078125 -105.68359375 800.69921875 C-106.88242187 800.53292969 -106.88242187 800.53292969 -108.10546875 800.36328125 C-108.70875 800.26789062 -109.31203125 800.1725 -109.93359375 800.07421875 C-110.59359375 798.42421875 -111.25359375 796.77421875 -111.93359375 795.07421875 C-114.90359375 795.73421875 -117.87359375 796.39421875 -120.93359375 797.07421875 C-121.92359375 795.42421875 -122.91359375 793.77421875 -123.93359375 792.07421875 C-124.4853125 792.27917969 -125.03703125 792.48414063 -125.60546875 792.6953125 C-128.67791736 793.19535867 -130.34974803 792.36720439 -133.18359375 791.13671875 C-134.52164063 790.56630859 -134.52164063 790.56630859 -135.88671875 789.984375 C-136.5621875 789.68402344 -137.23765625 789.38367188 -137.93359375 789.07421875 C-137.93359375 788.08421875 -137.93359375 787.09421875 -137.93359375 786.07421875 C-140.57359375 786.40421875 -143.21359375 786.73421875 -145.93359375 787.07421875 C-146.92359375 785.75421875 -147.91359375 784.43421875 -148.93359375 783.07421875 C-149.63484375 783.75484375 -150.33609375 784.43546875 -151.05859375 785.13671875 C-153.93359375 787.07421875 -153.93359375 787.07421875 -156.87109375 787.32421875 C-163.07379073 784.7925057 -166.38600512 778.01859222 -168.93359375 772.07421875 C-168.93359375 771.41421875 -168.93359375 770.75421875 -168.93359375 770.07421875 C-169.45566406 769.98140625 -169.97773438 769.88859375 -170.515625 769.79296875 C-173.13865987 769.0132621 -175.40222328 767.83921219 -177.80712891 766.54785156 C-183.94026773 763.25593263 -188.95233046 761.52462283 -195.93359375 761.07421875 C-198.49609375 759.63671875 -198.49609375 759.63671875 -199.93359375 758.07421875 C-199.93359375 757.41421875 -199.93359375 756.75421875 -199.93359375 756.07421875 C-200.92359375 756.16703125 -200.92359375 756.16703125 -201.93359375 756.26171875 C-206.02443429 756.00604122 -209.14026359 754.61726831 -212.93359375 753.07421875 C-212.93359375 752.41421875 -212.93359375 751.75421875 -212.93359375 751.07421875 C-216.16137262 749.33618398 -219.45333792 748.20908478 -222.93359375 747.07421875 C-223.59359375 746.74421875 -224.25359375 746.41421875 -224.93359375 746.07421875 C-224.93359375 745.41421875 -224.93359375 744.75421875 -224.93359375 744.07421875 C-225.71734375 744.01234375 -226.50109375 743.95046875 -227.30859375 743.88671875 C-228.17484375 743.61859375 -229.04109375 743.35046875 -229.93359375 743.07421875 C-231.24609375 740.51171875 -231.24609375 740.51171875 -231.93359375 738.07421875 C-233.58359375 738.07421875 -235.23359375 738.07421875 -236.93359375 738.07421875 C-236.93359375 737.41421875 -236.93359375 736.75421875 -236.93359375 736.07421875 C-237.55234375 735.99171875 -238.17109375 735.90921875 -238.80859375 735.82421875 C-239.50984375 735.57671875 -240.21109375 735.32921875 -240.93359375 735.07421875 C-241.21203125 734.44515625 -241.49046875 733.81609375 -241.77734375 733.16796875 C-243.28452864 730.43874205 -244.70008946 729.96762047 -247.55859375 728.82421875 C-248.37585938 728.4890625 -249.193125 728.15390625 -250.03515625 727.80859375 C-250.66164062 727.56625 -251.288125 727.32390625 -251.93359375 727.07421875 C-251.93359375 726.08421875 -251.93359375 725.09421875 -251.93359375 724.07421875 C-252.79984375 724.30109375 -253.66609375 724.52796875 -254.55859375 724.76171875 C-258.70992712 725.14610147 -260.46101401 724.31210347 -263.93359375 722.07421875 C-267.43548368 718.57232882 -269.03765713 713.57827123 -270.93359375 709.07421875 C-271.92359375 709.40421875 -272.91359375 709.73421875 -273.93359375 710.07421875 C-274.46146484 709.15189453 -274.46146484 709.15189453 -275 708.2109375 C-278.38524082 702.66904196 -280.66712528 699.95415929 -286.93359375 698.07421875 C-286.93359375 696.09421875 -286.93359375 694.11421875 -286.93359375 692.07421875 C-287.67609375 691.99171875 -288.41859375 691.90921875 -289.18359375 691.82421875 C-292.4766197 690.92612076 -293.79336163 689.69005801 -295.93359375 687.07421875 C-295.93359375 686.41421875 -295.93359375 685.75421875 -295.93359375 685.07421875 C-296.59359375 685.07421875 -297.25359375 685.07421875 -297.93359375 685.07421875 C-298.34609375 684.24921875 -298.75859375 683.42421875 -299.18359375 682.57421875 C-299.76109375 681.74921875 -300.33859375 680.92421875 -300.93359375 680.07421875 C-302.93310011 680.02978528 -304.93397811 680.0350106 -306.93359375 680.07421875 C-311.83932923 677.57325556 -313.9679389 675.18492135 -315.93359375 670.07421875 C-316.26144742 668.76546955 -316.57329513 667.4526323 -316.87109375 666.13671875 C-318.02858135 661.06906296 -320.22248338 656.78532912 -323.93359375 653.07421875 C-323.60359375 652.08421875 -323.27359375 651.09421875 -322.93359375 650.07421875 C-324.58359375 650.07421875 -326.23359375 650.07421875 -327.93359375 650.07421875 C-328.26359375 647.76421875 -328.59359375 645.45421875 -328.93359375 643.07421875 C-329.92359375 643.40421875 -330.91359375 643.73421875 -331.93359375 644.07421875 C-332.42859375 641.10421875 -332.42859375 641.10421875 -332.93359375 638.07421875 C-333.96484375 638.30109375 -334.99609375 638.52796875 -336.05859375 638.76171875 C-340.52112985 639.12160069 -342.26796376 638.57351192 -345.93359375 636.07421875 C-347.93359375 633.94921875 -347.93359375 633.94921875 -348.93359375 631.07421875 C-348.48337648 625.37146671 -346.33505299 620.20460895 -343.93359375 615.07421875 C-344.38605469 614.66558594 -344.83851563 614.25695312 -345.3046875 613.8359375 C-349.10708394 609.72351353 -350.83131423 603.96132402 -351.99609375 598.57421875 C-352.30546875 597.41921875 -352.61484375 596.26421875 -352.93359375 595.07421875 C-353.92359375 594.74421875 -354.91359375 594.41421875 -355.93359375 594.07421875 C-355.93359375 591.10421875 -355.93359375 588.13421875 -355.93359375 585.07421875 C-356.59359375 585.07421875 -357.25359375 585.07421875 -357.93359375 585.07421875 C-358.08828125 584.26984375 -358.08828125 584.26984375 -358.24609375 583.44921875 C-358.89426651 580.90537032 -358.89426651 580.90537032 -360.49609375 578.13671875 C-361.93359375 575.07421875 -361.93359375 575.07421875 -361.87109375 572.51171875 C-361.68645011 569.9138268 -361.68645011 569.9138268 -363.74609375 567.88671875 C-366.37406518 564.50789834 -367.11928002 561.48924009 -368.125 557.37890625 C-368.7659421 555.01808896 -368.7659421 555.01808896 -370.48046875 553.53125 C-373.0741374 550.93060912 -372.64365931 547.61141891 -372.93359375 544.07421875 C-373.59359375 544.07421875 -374.25359375 544.07421875 -374.93359375 544.07421875 C-375.12695312 543.41035156 -375.3203125 542.74648438 -375.51953125 542.0625 C-377.03615711 536.91948655 -378.52856324 531.88427977 -380.93359375 527.07421875 C-381.09132687 524.76372064 -381.20993539 522.45049224 -381.30859375 520.13671875 C-381.61191081 514.27094685 -382.57823631 508.98048254 -384.3125 503.37109375 C-385.07109517 500.56572292 -384.93359375 497.96614384 -384.93359375 495.07421875 C-385.39507812 494.1821875 -385.8565625 493.29015625 -386.33203125 492.37109375 C-388.08018906 488.77244695 -388.82710004 485.56347347 -389.55859375 481.63671875 C-389.79835938 480.37988281 -390.038125 479.12304688 -390.28515625 477.828125 C-390.90310817 474.25070457 -391.42085183 470.6678708 -391.93359375 467.07421875 C-392.11921875 466.43484375 -392.30484375 465.79546875 -392.49609375 465.13671875 C-392.93359375 463.07421875 -392.93359375 463.07421875 -392.89453125 459.453125 C-392.86609471 454.51687546 -393.56396625 449.7674416 -394.31054688 444.8984375 C-395.10465972 439.23559141 -394.40380704 434.53501099 -392.93359375 429.07421875 C-393.59359375 429.07421875 -394.25359375 429.07421875 -394.93359375 429.07421875 C-395.09463155 420.02031582 -395.09463155 420.02031582 -394.43359375 416.13671875 C-393.78893948 412.18821135 -393.90988493 408.35973351 -393.99609375 404.3671875 C-393.93359375 402.07421875 -393.93359375 402.07421875 -392.93359375 401.07421875 C-392.96581713 399.07636946 -393.00168418 397.07801822 -393.09375 395.08203125 C-392.93359375 393.07421875 -392.93359375 393.07421875 -390.93359375 390.07421875 C-391.09214844 389.34847656 -391.25070312 388.62273437 -391.4140625 387.875 C-392.11749288 384.08282266 -391.1768571 380.92675267 -390.24609375 377.26171875 C-388.16192632 368.58653192 -386.67035902 359.86632417 -385.3293457 351.04760742 C-385.17554443 350.06896729 -385.02174316 349.09032715 -384.86328125 348.08203125 C-384.73163574 347.2120752 -384.59999023 346.34211914 -384.46435547 345.44580078 C-383.93359375 343.07421875 -383.93359375 343.07421875 -382.8815918 341.2121582 C-381.48631368 338.06550601 -381.76715972 335.28433725 -381.8359375 331.859375 C-381.84000105 330.43685342 -381.84188697 329.01432425 -381.84179688 327.59179688 C-381.8499054 325.36096872 -381.87117404 323.13367156 -381.92993164 320.90356445 C-382.04259032 316.15984823 -382.0403113 311.70621333 -380.93359375 307.07421875 C-378.74976502 305.01358314 -376.87509937 304.16209787 -374.0871582 303.09155273 C-371.5182689 301.87802119 -371.03459776 301.10450487 -370.06640625 298.48046875 C-369.6956036 297.18788204 -369.35964016 295.88480872 -369.05859375 294.57421875 C-367.83626047 289.96766421 -366.43617943 286.15566084 -363.93359375 282.07421875 C-363.2094644 279.9470888 -362.54483714 277.79899224 -361.93359375 275.63671875 C-360.66064159 271.14425843 -359.11724463 267.20259687 -356.93359375 263.07421875 C-352.90990404 255.29729319 -352.90990404 255.29729319 -349.93359375 247.07421875 C-348.94359375 247.07421875 -347.95359375 247.07421875 -346.93359375 247.07421875 C-346.83046875 246.20796875 -346.72734375 245.34171875 -346.62109375 244.44921875 C-345.89643917 240.89182353 -344.63447815 238.263377 -342.93359375 235.07421875 C-342.03967946 232.39247588 -341.57280186 229.97701254 -341.12109375 227.19921875 C-340.24958424 222.81622567 -339.20552548 220.25526349 -335.93359375 217.07421875 C-334.92296875 216.45546875 -333.91234375 215.83671875 -332.87109375 215.19921875 C-327.74592206 211.12503163 -327.65303915 203.1799545 -326.93359375 197.07421875 C-326.91218737 195.34505908 -326.92422195 193.61451672 -326.99609375 191.88671875 C-326.93359375 188.07421875 -326.93359375 188.07421875 -325.24609375 185.63671875 C-322.93359375 184.07421875 -322.93359375 184.07421875 -320.43359375 183.19921875 C-317.57226263 181.91161975 -316.80536273 180.54715444 -315.2265625 177.91796875 C-312.36579238 173.83856241 -308.4987165 170.53112529 -304.93359375 167.07421875 C-303.83724609 165.92179687 -303.83724609 165.92179687 -302.71875 164.74609375 C-298.97425457 161.15389897 -294.92052515 158.04491967 -290.80859375 154.88671875 C-289.99777344 154.25830078 -289.18695313 153.62988281 -288.3515625 152.98242188 C-285.25602821 150.59041811 -282.18988839 148.24508184 -278.93359375 146.07421875 C-278.72094297 144.06286504 -278.72094297 144.06286504 -278.99609375 141.82421875 C-279.14078011 137.08764414 -278.1893195 134.67265247 -274.93359375 131.07421875 C-272.30859375 129.44921875 -272.30859375 129.44921875 -268.93359375 128.07421875 C-268.09570312 127.72230469 -267.2578125 127.37039062 -266.39453125 127.0078125 C-259.30075403 124.07421875 -259.30075403 124.07421875 -256.93359375 124.07421875 C-256.93359375 123.41421875 -256.93359375 122.75421875 -256.93359375 122.07421875 C-256.27359375 122.07421875 -255.61359375 122.07421875 -254.93359375 122.07421875 C-254.93359375 121.08421875 -254.93359375 120.09421875 -254.93359375 119.07421875 C-253.94359375 118.74421875 -252.95359375 118.41421875 -251.93359375 118.07421875 C-250.56720033 116.43454665 -249.23865185 114.76311747 -247.93359375 113.07421875 C-246.28762865 111.38710452 -244.62122226 109.71965655 -242.93359375 108.07421875 C-242.21171875 107.31109375 -241.48984375 106.54796875 -240.74609375 105.76171875 C-238.93359375 104.07421875 -238.93359375 104.07421875 -236.93359375 104.07421875 C-236.59328125 103.14609375 -236.59328125 103.14609375 -236.24609375 102.19921875 C-234.5542954 99.46011666 -232.94115214 99.02397403 -229.93359375 98.07421875 C-229.93359375 97.08421875 -229.93359375 96.09421875 -229.93359375 95.07421875 C-226.96359375 94.57921875 -226.96359375 94.57921875 -223.93359375 94.07421875 C-223.91296875 93.35234375 -223.89234375 92.63046875 -223.87109375 91.88671875 C-222.51347143 87.8138518 -219.63290882 86.08193016 -215.93359375 84.07421875 C-215.27359375 84.07421875 -214.61359375 84.07421875 -213.93359375 84.07421875 C-213.66546875 83.45546875 -213.39734375 82.83671875 -213.12109375 82.19921875 C-211.93359375 80.07421875 -211.93359375 80.07421875 -208.93359375 78.07421875 C-207.94359375 78.07421875 -206.95359375 78.07421875 -205.93359375 78.07421875 C-205.60359375 77.08421875 -205.27359375 76.09421875 -204.93359375 75.07421875 C-201.50293412 72.04176068 -197.74713353 69.53624317 -193.93359375 67.01171875 C-192.41765625 66.00431641 -192.41765625 66.00431641 -190.87109375 64.9765625 C-188.25553228 63.2827082 -185.60857564 61.67154074 -182.93359375 60.07421875 C-181.18083787 58.95351726 -179.43093284 57.82834722 -177.68359375 56.69921875 C-170.96150508 52.41988101 -164.56902067 48.46028966 -156.93359375 46.07421875 C-155.34110363 45.45130595 -153.758156 44.80365117 -152.18359375 44.13671875 C-151.04664063 43.65912109 -151.04664063 43.65912109 -149.88671875 43.171875 C-147.61685839 42.09049976 -147.61685839 42.09049976 -145.93359375 39.07421875 C-143.94736355 38.66678691 -141.94150145 38.35603036 -139.93359375 38.07421875 C-138.03100761 37.64477788 -136.13533123 37.18402308 -134.24609375 36.69921875 C-132.84810547 36.34730469 -132.84810547 36.34730469 -131.421875 35.98828125 C-128.92088893 35.27938178 -128.92088893 35.27938178 -127.546875 33.60546875 C-125.02757994 31.21427344 -122.12875853 30.81505228 -118.80859375 29.94921875 C-114.55372942 29.14470132 -114.55372942 29.14470132 -110.93359375 27.07421875 C-109.24750409 27.00216364 -107.55858716 26.99035807 -105.87109375 27.01171875 C-104.95199219 27.02074219 -104.03289062 27.02976562 -103.0859375 27.0390625 C-102.37566406 27.05066406 -101.66539062 27.06226562 -100.93359375 27.07421875 C-100.6603125 26.4296875 -100.38703125 25.78515625 -100.10546875 25.12109375 C-98.93359375 23.07421875 -98.93359375 23.07421875 -96.18359375 22.32421875 C-92.93359375 22.07421875 -92.93359375 22.07421875 -90.12109375 22.19921875 C-87.15652512 22.08296116 -85.42041167 21.63236253 -82.68359375 20.63671875 C-79.2894693 19.40405531 -76.28522804 18.82611877 -72.68359375 18.57421875 C-68.57131243 18.26516693 -66.44555892 17.26919698 -62.93359375 15.07421875 C-60.4778986 14.46756648 -58.02603538 14.01670111 -55.53125 13.6015625 C-52.55315532 12.99698689 -49.80471927 12.07118626 -46.93359375 11.07421875 C-37.32485097 7.78986368 -28.93750656 5.47309095 -18.69140625 5.99609375 C-15.8429822 6.23455104 -15.8429822 6.23455104 -12.93359375 5.07421875 C-11.94359375 5.07421875 -10.95359375 5.07421875 -9.93359375 5.07421875 C-8.88467137 3.43789983 -7.88452672 1.76936012 -6.93359375 0.07421875 C-4.35289968 -1.21612828 -2.71010531 -0.79775543 0 0 Z M-20.93359375 73.07421875 C-21.59359375 74.06421875 -22.25359375 75.05421875 -22.93359375 76.07421875 C-23.59359375 75.41421875 -24.25359375 74.75421875 -24.93359375 74.07421875 C-24.93359375 74.73421875 -24.93359375 75.39421875 -24.93359375 76.07421875 C-25.536875 75.94402344 -26.14015625 75.81382812 -26.76171875 75.6796875 C-29.22158981 75.25516137 -31.43728969 74.95202205 -33.93359375 75.07421875 C-35.28746311 76.72424703 -36.62037517 78.39165745 -37.93359375 80.07421875 C-43.90374972 81.55763836 -48.51215291 79.51363539 -53.79296875 76.91015625 C-57.12249398 75.60994019 -59.575124 76.06667782 -62.93359375 77.07421875 C-64.68475105 78.49089345 -64.68475105 78.49089345 -65.93359375 80.07421875 C-68.93359375 81.07421875 -68.93359375 81.07421875 -72.93359375 81.07421875 C-74.61435606 81.70450462 -76.28154919 82.37209981 -77.93359375 83.07421875 C-79.26465997 83.41649292 -80.59759454 83.75173618 -81.93359375 84.07421875 C-82.59359375 84.40421875 -83.25359375 84.73421875 -83.93359375 85.07421875 C-83.93359375 86.06421875 -83.93359375 87.05421875 -83.93359375 88.07421875 C-85.25359375 88.07421875 -86.57359375 88.07421875 -87.93359375 88.07421875 C-87.93359375 87.41421875 -87.93359375 86.75421875 -87.93359375 86.07421875 C-88.59359375 86.07421875 -89.25359375 86.07421875 -89.93359375 86.07421875 C-89.93359375 87.06421875 -89.93359375 88.05421875 -89.93359375 89.07421875 C-92.90359375 88.74421875 -95.87359375 88.41421875 -98.93359375 88.07421875 C-98.60359375 90.05421875 -98.27359375 92.03421875 -97.93359375 94.07421875 C-101.33862093 95.77673234 -104.2526431 96.22251051 -107.99609375 96.44921875 C-112.49146093 96.81997068 -113.92010446 97.65893088 -116.93359375 101.07421875 C-119.5083822 102.38011761 -122.11076276 103.45400742 -124.93359375 104.07421875 C-125.92359375 103.74421875 -126.91359375 103.41421875 -127.93359375 103.07421875 C-131.37122263 104.29402255 -133.61571965 106.29276983 -135.93359375 109.07421875 C-137.20143499 112.20772592 -137.20143499 112.20772592 -137.93359375 115.07421875 C-140.80859375 115.19921875 -140.80859375 115.19921875 -143.93359375 115.07421875 C-144.59359375 114.41421875 -145.25359375 113.75421875 -145.93359375 113.07421875 C-147.25359375 113.73421875 -148.57359375 114.39421875 -149.93359375 115.07421875 C-148.94359375 117.05421875 -148.94359375 117.05421875 -147.93359375 119.07421875 C-148.92359375 119.56921875 -148.92359375 119.56921875 -149.93359375 120.07421875 C-149.93359375 120.73421875 -149.93359375 121.39421875 -149.93359375 122.07421875 C-153.56359375 122.40421875 -157.19359375 122.73421875 -160.93359375 123.07421875 C-161.26359375 124.72421875 -161.59359375 126.37421875 -161.93359375 128.07421875 C-163.25359375 127.74421875 -164.57359375 127.41421875 -165.93359375 127.07421875 C-165.93359375 129.05421875 -165.93359375 131.03421875 -165.93359375 133.07421875 C-167.91359375 134.06421875 -169.89359375 135.05421875 -171.93359375 136.07421875 C-171.93359375 136.73421875 -171.93359375 137.39421875 -171.93359375 138.07421875 C-173.58359375 138.07421875 -175.23359375 138.07421875 -176.93359375 138.07421875 C-176.93359375 139.72421875 -176.93359375 141.37421875 -176.93359375 143.07421875 C-177.92359375 143.07421875 -178.91359375 143.07421875 -179.93359375 143.07421875 C-179.93359375 144.06421875 -179.93359375 145.05421875 -179.93359375 146.07421875 C-182.40859375 146.56921875 -182.40859375 146.56921875 -184.93359375 147.07421875 C-184.60359375 148.06421875 -184.27359375 149.05421875 -183.93359375 150.07421875 C-187.39859375 150.56921875 -187.39859375 150.56921875 -190.93359375 151.07421875 C-190.60359375 152.39421875 -190.27359375 153.71421875 -189.93359375 155.07421875 C-195.87359375 155.56921875 -195.87359375 155.56921875 -201.93359375 156.07421875 C-201.27359375 157.39421875 -200.61359375 158.71421875 -199.93359375 160.07421875 C-199.60359375 161.06421875 -199.27359375 162.05421875 -198.93359375 163.07421875 C-199.53171875 163.11546875 -200.12984375 163.15671875 -200.74609375 163.19921875 C-204.01523192 164.50687402 -204.45770051 166.99409373 -205.93359375 170.07421875 C-207.41859375 170.56921875 -207.41859375 170.56921875 -208.93359375 171.07421875 C-209.26359375 170.74421875 -209.59359375 170.41421875 -209.93359375 170.07421875 C-211.5997649 170.03358043 -213.2674747 170.03149775 -214.93359375 170.07421875 C-214.93359375 171.06421875 -214.93359375 172.05421875 -214.93359375 173.07421875 C-214.27359375 173.73421875 -213.61359375 174.39421875 -212.93359375 175.07421875 C-212.93359375 176.06421875 -212.93359375 177.05421875 -212.93359375 178.07421875 C-214.58359375 178.73421875 -216.23359375 179.39421875 -217.93359375 180.07421875 C-217.93359375 180.73421875 -217.93359375 181.39421875 -217.93359375 182.07421875 C-218.92359375 182.07421875 -219.91359375 182.07421875 -220.93359375 182.07421875 C-220.93359375 183.06421875 -220.93359375 184.05421875 -220.93359375 185.07421875 C-221.92359375 185.73421875 -222.91359375 186.39421875 -223.93359375 187.07421875 C-224.65741842 189.13347014 -224.65741842 189.13347014 -224.93359375 191.07421875 C-226.25359375 191.40421875 -227.57359375 191.73421875 -228.93359375 192.07421875 C-228.27359375 193.39421875 -227.61359375 194.71421875 -226.93359375 196.07421875 C-228.91359375 195.74421875 -230.89359375 195.41421875 -232.93359375 195.07421875 C-232.56234375 196.18796875 -232.56234375 196.18796875 -232.18359375 197.32421875 C-231.93359375 200.07421875 -231.93359375 200.07421875 -233.62109375 202.13671875 C-234.76578125 203.09578125 -234.76578125 203.09578125 -235.93359375 204.07421875 C-238.8153486 206.79429042 -238.8153486 206.79429042 -240.93359375 210.07421875 C-242.91248336 210.80115779 -244.91313933 211.47238126 -246.93359375 212.07421875 C-245.94359375 214.54921875 -245.94359375 214.54921875 -244.93359375 217.07421875 C-246.93359375 219.07421875 -246.93359375 219.07421875 -248.93359375 219.94921875 C-251.38875862 221.33024899 -251.76131495 222.57335731 -252.93359375 225.07421875 C-253.92359375 225.73421875 -254.91359375 226.39421875 -255.93359375 227.07421875 C-255.93359375 227.73421875 -255.93359375 228.39421875 -255.93359375 229.07421875 C-257.91359375 230.06421875 -257.91359375 230.06421875 -259.93359375 231.07421875 C-259.27359375 231.40421875 -258.61359375 231.73421875 -257.93359375 232.07421875 C-258.38734375 232.58984375 -258.84109375 233.10546875 -259.30859375 233.63671875 C-261.1590249 236.1328214 -261.1590249 236.1328214 -261.93359375 239.76171875 C-262.26359375 240.85484375 -262.59359375 241.94796875 -262.93359375 243.07421875 C-266.06709107 244.11871786 -266.92327631 244.0084552 -269.93359375 243.07421875 C-269.93359375 244.06421875 -269.93359375 245.05421875 -269.93359375 246.07421875 C-268.94359375 247.06421875 -268.94359375 247.06421875 -267.93359375 248.07421875 C-268.27132812 248.533125 -268.6090625 248.99203125 -268.95703125 249.46484375 C-273.62744448 255.63604857 -273.62744448 255.63604857 -274.93359375 263.07421875 C-276.25359375 263.40421875 -277.57359375 263.73421875 -278.93359375 264.07421875 C-278.93359375 265.39421875 -278.93359375 266.71421875 -278.93359375 268.07421875 C-280.58359375 268.40421875 -282.23359375 268.73421875 -283.93359375 269.07421875 C-283.77890625 270.96140625 -283.77890625 270.96140625 -283.62109375 272.88671875 C-283.61328125 275.11328125 -283.61328125 275.11328125 -283.93359375 277.07421875 C-286.24609375 278.76171875 -286.24609375 278.76171875 -288.93359375 280.07421875 C-290.80038921 282.74106941 -291.90355763 284.98411038 -292.93359375 288.07421875 C-292.60359375 289.06421875 -292.27359375 290.05421875 -291.93359375 291.07421875 C-292.59359375 291.07421875 -293.25359375 291.07421875 -293.93359375 291.07421875 C-294.42859375 294.04421875 -294.42859375 294.04421875 -294.93359375 297.07421875 C-295.92359375 297.40421875 -296.91359375 297.73421875 -297.93359375 298.07421875 C-298.26359375 298.73421875 -298.59359375 299.39421875 -298.93359375 300.07421875 C-300.58359375 299.74421875 -302.23359375 299.41421875 -303.93359375 299.07421875 C-303.60359375 300.72421875 -303.27359375 302.37421875 -302.93359375 304.07421875 C-302.27359375 304.07421875 -301.61359375 304.07421875 -300.93359375 304.07421875 C-301.26359375 304.81671875 -301.59359375 305.55921875 -301.93359375 306.32421875 C-303.16142246 309.21305187 -303.16142246 309.21305187 -302.93359375 313.07421875 C-303.59359375 313.40421875 -304.25359375 313.73421875 -304.93359375 314.07421875 C-305.84637438 316.34893767 -305.84637438 316.34893767 -306.55859375 319.01171875 C-306.94917969 320.35556641 -306.94917969 320.35556641 -307.34765625 321.7265625 C-308.01431233 323.99435255 -308.01431233 323.99435255 -307.93359375 326.07421875 C-308.59359375 326.40421875 -309.25359375 326.73421875 -309.93359375 327.07421875 C-310.83703059 328.95685756 -310.83703059 328.95685756 -311.55859375 331.13671875 C-311.81898438 331.87019531 -312.079375 332.60367187 -312.34765625 333.359375 C-312.54101562 333.92527344 -312.734375 334.49117188 -312.93359375 335.07421875 C-314.58359375 335.07421875 -316.23359375 335.07421875 -317.93359375 335.07421875 C-318.59786247 338.24794708 -319.0496066 340.57536349 -318.30859375 343.76171875 C-318.18484375 344.52484375 -318.06109375 345.28796875 -317.93359375 346.07421875 C-319.37109375 347.69921875 -319.37109375 347.69921875 -320.93359375 349.07421875 C-320.93359375 350.06421875 -320.93359375 351.05421875 -320.93359375 352.07421875 C-320.27359375 352.40421875 -319.61359375 352.73421875 -318.93359375 353.07421875 C-319.93359375 356.07421875 -319.93359375 356.07421875 -321.93359375 357.07421875 C-322.28538572 359.40484055 -322.61689554 361.73856942 -322.93359375 364.07421875 C-323.45735596 365.03606079 -323.45735596 365.03606079 -323.99169922 366.01733398 C-325.1565426 368.56108864 -324.93534164 369.92981977 -324.50390625 372.671875 C-323.82907737 378.09538913 -324.18159802 383.100827 -324.80859375 388.51171875 C-324.94587891 389.83719727 -324.94587891 389.83719727 -325.0859375 391.18945312 C-325.46154988 394.66783541 -325.82309481 397.74272194 -326.93359375 401.07421875 C-326.6223312 403.01554205 -326.6223312 403.01554205 -325.99609375 405.01171875 C-325.12899443 407.99201376 -324.93359375 409.83975765 -324.93359375 413.07421875 C-325.59359375 413.73421875 -326.25359375 414.39421875 -326.93359375 415.07421875 C-326.61777344 415.61046875 -326.30195313 416.14671875 -325.9765625 416.69921875 C-324.72338841 419.5528886 -324.48273335 421.97074853 -324.24609375 425.07421875 C-324.15972656 426.10546875 -324.07335937 427.13671875 -323.984375 428.19921875 C-323.93881624 430.77854562 -324.24560114 432.62256255 -324.93359375 435.07421875 C-324.52429389 437.12818601 -324.52429389 437.12818601 -323.93359375 439.07421875 C-323.93359375 440.06421875 -323.93359375 441.05421875 -323.93359375 442.07421875 C-323.27359375 442.07421875 -322.61359375 442.07421875 -321.93359375 442.07421875 C-322.10117187 442.62851562 -322.26875 443.1828125 -322.44140625 443.75390625 C-322.64507812 444.47835938 -322.84875 445.2028125 -323.05859375 445.94921875 C-323.37183594 447.02816406 -323.37183594 447.02816406 -323.69140625 448.12890625 C-323.81128906 449.09183594 -323.81128906 449.09183594 -323.93359375 450.07421875 C-323.27359375 450.73421875 -322.61359375 451.39421875 -321.93359375 452.07421875 C-321.69413354 454.12673488 -321.4632257 456.18057766 -321.2734375 458.23828125 C-320.27593778 466.56224446 -318.44172885 474.47325936 -314.93359375 482.07421875 C-314.41272673 483.73448238 -313.91426716 485.40187583 -313.43359375 487.07421875 C-312.43363651 490.53002953 -311.25110908 493.73363256 -309.75390625 497.01171875 C-308.16839253 500.99815325 -307.07923278 505.1603219 -305.8984375 509.28125 C-305.1279122 512.17154411 -305.1279122 512.17154411 -302.93359375 514.07421875 C-301.62187372 517.39209883 -300.89885983 520.33906491 -300.43359375 523.88671875 C-300.26859375 524.93859375 -300.10359375 525.99046875 -299.93359375 527.07421875 C-299.27359375 527.40421875 -298.61359375 527.73421875 -297.93359375 528.07421875 C-297.30859375 530.63671875 -297.30859375 530.63671875 -296.93359375 533.07421875 C-296.27359375 533.07421875 -295.61359375 533.07421875 -294.93359375 533.07421875 C-294.56234375 534.31171875 -294.19109375 535.54921875 -293.80859375 536.82421875 C-292.50982876 540.76380589 -290.84670352 544.33302758 -288.93359375 548.01171875 C-286.53402649 552.6390324 -284.87678726 557.04773175 -283.671875 562.11328125 C-283.01242595 564.44289412 -283.01242595 564.44289412 -279.93359375 566.07421875 C-279.20555818 567.72884504 -278.48466957 569.38756811 -277.82421875 571.0703125 C-276.53148341 573.97896703 -274.79153834 576.54315574 -273.01953125 579.1796875 C-271.89467871 581.14211011 -271.3743398 582.8655913 -270.93359375 585.07421875 C-270.27359375 585.07421875 -269.61359375 585.07421875 -268.93359375 585.07421875 C-268.82402344 585.65171875 -268.71445312 586.22921875 -268.6015625 586.82421875 C-267.85180321 589.34972374 -266.78485367 590.94176406 -265.24609375 593.07421875 C-262.08262093 597.65212894 -259.68786901 602.44113596 -257.328125 607.47265625 C-256.04691861 609.86280599 -254.85340348 611.22471191 -252.93359375 613.07421875 C-252.43859375 614.55921875 -252.43859375 614.55921875 -251.93359375 616.07421875 C-251.27359375 616.40421875 -250.61359375 616.73421875 -249.93359375 617.07421875 C-247.42420655 621.12711581 -245.52835594 625.31612126 -244.93359375 630.07421875 C-244.27359375 630.07421875 -243.61359375 630.07421875 -242.93359375 630.07421875 C-242.43859375 631.55921875 -242.43859375 631.55921875 -241.93359375 633.07421875 C-240.94359375 632.74421875 -239.95359375 632.41421875 -238.93359375 632.07421875 C-238.87558594 632.76773438 -238.81757813 633.46125 -238.7578125 634.17578125 C-237.6573753 638.04556514 -235.37290161 640.51436031 -232.74609375 643.44921875 C-232.24577637 644.02212646 -231.74545898 644.59503418 -231.22998047 645.18530273 C-230.24319243 646.31486897 -229.25305826 647.44152252 -228.25927734 648.56494141 C-226.65478974 650.39163429 -225.10737726 652.26273136 -223.55859375 654.13671875 C-220.32764415 657.75230521 -216.95108484 660.39589135 -212.93359375 663.07421875 C-212.43859375 664.55921875 -212.43859375 664.55921875 -211.93359375 666.07421875 C-210.28359375 666.07421875 -208.63359375 666.07421875 -206.93359375 666.07421875 C-206.87171875 666.69296875 -206.80984375 667.31171875 -206.74609375 667.94921875 C-206.11618929 670.34539804 -206.11618929 670.34539804 -203.43359375 671.19921875 C-202.60859375 671.48796875 -201.78359375 671.77671875 -200.93359375 672.07421875 C-200.60359375 672.73421875 -200.27359375 673.39421875 -199.93359375 674.07421875 C-198.94359375 674.07421875 -197.95359375 674.07421875 -196.93359375 674.07421875 C-196.27359375 675.39421875 -195.61359375 676.71421875 -194.93359375 678.07421875 C-193.94359375 678.07421875 -192.95359375 678.07421875 -191.93359375 678.07421875 C-190.94359375 678.73421875 -189.95359375 679.39421875 -188.93359375 680.07421875 C-187.94359375 680.07421875 -186.95359375 680.07421875 -185.93359375 680.07421875 C-185.60359375 681.06421875 -185.27359375 682.05421875 -184.93359375 683.07421875 C-182.95112977 684.10854779 -180.94946059 685.10660267 -178.93359375 686.07421875 C-177.93359375 687.07421875 -176.93359375 688.07421875 -175.93359375 689.07421875 C-174.27542591 689.76175176 -172.60900039 690.42983158 -170.93359375 691.07421875 C-170.27359375 691.73421875 -169.61359375 692.39421875 -168.93359375 693.07421875 C-168.27359375 692.74421875 -167.61359375 692.41421875 -166.93359375 692.07421875 C-166.93359375 692.73421875 -166.93359375 693.39421875 -166.93359375 694.07421875 C-165.94359375 694.07421875 -164.95359375 694.07421875 -163.93359375 694.07421875 C-163.60359375 694.73421875 -163.27359375 695.39421875 -162.93359375 696.07421875 C-161.61359375 696.07421875 -160.29359375 696.07421875 -158.93359375 696.07421875 C-158.68609375 696.87859375 -158.43859375 697.68296875 -158.18359375 698.51171875 C-157.21445849 701.1691167 -157.21445849 701.1691167 -155.12109375 701.94921875 C-152.56568909 702.09524187 -150.4094958 701.69319426 -147.93359375 701.07421875 C-147.93359375 701.73421875 -147.93359375 702.39421875 -147.93359375 703.07421875 C-147.27359375 703.07421875 -146.61359375 703.07421875 -145.93359375 703.07421875 C-145.27359375 704.72421875 -144.61359375 706.37421875 -143.93359375 708.07421875 C-142.61359375 708.07421875 -141.29359375 708.07421875 -139.93359375 708.07421875 C-137.25474716 708.07421875 -135.43023628 708.18831334 -132.93359375 709.07421875 C-131.94359375 710.55921875 -131.94359375 710.55921875 -130.93359375 712.07421875 C-129.94359375 711.74421875 -128.95359375 711.41421875 -127.93359375 711.07421875 C-126.94359375 712.06421875 -125.95359375 713.05421875 -124.93359375 714.07421875 C-124.27359375 713.74421875 -123.61359375 713.41421875 -122.93359375 713.07421875 C-121.94359375 714.55921875 -121.94359375 714.55921875 -120.93359375 716.07421875 C-117.90563458 717.3189689 -117.90563458 717.3189689 -114.43359375 718.26171875 C-113.26828125 718.60589844 -112.10296875 718.95007813 -110.90234375 719.3046875 C-108.1220683 720.15785807 -108.1220683 720.15785807 -105.93359375 720.07421875 C-106.93359375 723.07421875 -106.93359375 723.07421875 -108.93359375 724.07421875 C-108.93359375 724.73421875 -108.93359375 725.39421875 -108.93359375 726.07421875 C-106.46559328 724.9224852 -104.8857581 724.0263831 -102.93359375 722.07421875 C-98.65148847 722.34754462 -96.83080295 723.05104393 -93.93359375 726.07421875 C-90.90059395 727.00096869 -88.43726944 727.06580647 -85.24609375 727.01171875 C-81.93359375 727.07421875 -81.93359375 727.07421875 -79.93359375 729.07421875 C-79.27359375 728.41421875 -78.61359375 727.75421875 -77.93359375 727.07421875 C-74.30859375 726.94921875 -74.30859375 726.94921875 -70.93359375 727.07421875 C-70.93359375 727.73421875 -70.93359375 728.39421875 -70.93359375 729.07421875 C-70.31484375 728.76484375 -69.69609375 728.45546875 -69.05859375 728.13671875 C-67.68359375 727.44921875 -66.30859375 726.76171875 -64.93359375 726.07421875 C-64.27359375 726.73421875 -63.61359375 727.39421875 -62.93359375 728.07421875 C-59.3010571 729.2177951 -55.636178 730.18559853 -51.93359375 731.07421875 C-51.93359375 729.75421875 -51.93359375 728.43421875 -51.93359375 727.07421875 C-50.04557292 727.10677083 -48.15755208 727.13932292 -46.26953125 727.171875 C-43.83937929 727.13651166 -43.83937929 727.13651166 -41.14453125 726.47265625 C-36.56960371 725.90496451 -32.55462151 727.05647683 -28.1484375 728.13476562 C-26.42616417 728.52650515 -24.67982219 728.80894242 -22.93359375 729.07421875 C-22.27359375 728.41421875 -21.61359375 727.75421875 -20.93359375 727.07421875 C-18.30859375 726.44921875 -18.30859375 726.44921875 -15.93359375 726.07421875 C-15.93359375 725.41421875 -15.93359375 724.75421875 -15.93359375 724.07421875 C-15.23492187 724.14640625 -14.53625 724.21859375 -13.81640625 724.29296875 C-12.90632813 724.38578125 -11.99625 724.47859375 -11.05859375 724.57421875 C-10.15367187 724.66703125 -9.24875 724.75984375 -8.31640625 724.85546875 C-6.00046164 725.1046917 -6.00046164 725.1046917 -3.93359375 725.07421875 C-3.60359375 726.06421875 -3.27359375 727.05421875 -2.93359375 728.07421875 C-2.27359375 728.07421875 -1.61359375 728.07421875 -0.93359375 728.07421875 C-0.27359375 726.42421875 0.38640625 724.77421875 1.06640625 723.07421875 C2.52749688 723.32975929 3.98528721 723.60422247 5.44140625 723.88671875 C6.25351562 724.03753906 7.065625 724.18835938 7.90234375 724.34375 C10.06640625 725.07421875 10.06640625 725.07421875 12.06640625 728.07421875 C16.39012518 726.04788806 16.39012518 726.04788806 20.06640625 723.07421875 C22.04997108 722.36013541 24.04956062 721.68804133 26.06640625 721.07421875 C26.06640625 720.41421875 26.06640625 719.75421875 26.06640625 719.07421875 C28.04640625 720.55921875 28.04640625 720.55921875 30.06640625 722.07421875 C30.06640625 721.41421875 30.06640625 720.75421875 30.06640625 720.07421875 C31.05640625 720.07421875 32.04640625 720.07421875 33.06640625 720.07421875 C33.06640625 719.41421875 33.06640625 718.75421875 33.06640625 718.07421875 C35.04640625 718.40421875 37.02640625 718.73421875 39.06640625 719.07421875 C39.06640625 719.73421875 39.06640625 720.39421875 39.06640625 721.07421875 C42.5247859 722.86182897 42.5247859 722.86182897 46.25390625 722.44921875 C48.22177696 721.20370644 48.22177696 721.20370644 48.87890625 719.01171875 C49.27078125 718.37234375 49.66265625 717.73296875 50.06640625 717.07421875 C53.69140625 716.32421875 53.69140625 716.32421875 57.06640625 716.07421875 C57.39640625 716.73421875 57.72640625 717.39421875 58.06640625 718.07421875 C58.06640625 717.41421875 58.06640625 716.75421875 58.06640625 716.07421875 C58.75347656 716.02523437 59.44054687 715.97625 60.1484375 715.92578125 C61.04949219 715.85101562 61.95054687 715.77625 62.87890625 715.69921875 C63.77222656 715.62960937 64.66554688 715.56 65.5859375 715.48828125 C68.31039124 715.20776839 68.31039124 715.20776839 71.06640625 713.07421875 C78.52748575 710.79444446 86.06455284 709.47440409 93.81640625 708.69921875 C97.0687503 708.07376797 98.14004286 707.6804751 100.06640625 705.07421875 C100.06640625 705.73421875 100.06640625 706.39421875 100.06640625 707.07421875 C105.33551657 706.39869179 110.0794541 704.81654071 115.06640625 703.07421875 C117.06640625 702.40755208 119.06640625 701.74088542 121.06640625 701.07421875 C121.06640625 700.41421875 121.06640625 699.75421875 121.06640625 699.07421875 C121.62328125 699.02523437 122.18015625 698.97625 122.75390625 698.92578125 C128.00541941 698.41127489 132.97178037 697.44686406 138.06640625 696.07421875 C140.23228516 695.52941074 142.39899431 694.98789557 144.56640625 694.44921875 C145.60796875 694.18882812 146.64953125 693.9284375 147.72265625 693.66015625 C148.49609375 693.46679688 149.26953125 693.2734375 150.06640625 693.07421875 C150.06640625 692.41421875 150.06640625 691.75421875 150.06640625 691.07421875 C152.04640625 690.74421875 154.02640625 690.41421875 156.06640625 690.07421875 C156.06640625 689.41421875 156.06640625 688.75421875 156.06640625 688.07421875 C157.71640625 688.07421875 159.36640625 688.07421875 161.06640625 688.07421875 C161.06640625 687.41421875 161.06640625 686.75421875 161.06640625 686.07421875 C162.71640625 686.07421875 164.36640625 686.07421875 166.06640625 686.07421875 C166.39640625 684.75421875 166.72640625 683.43421875 167.06640625 682.07421875 C167.99453125 682.03296875 168.92265625 681.99171875 169.87890625 681.94921875 C170.93078125 681.66046875 171.98265625 681.37171875 173.06640625 681.07421875 C173.47890625 680.18734375 173.89140625 679.30046875 174.31640625 678.38671875 C177.64852076 672.079502 184.6431234 669.40615585 191.19140625 667.19921875 C192.47931505 666.81150918 193.76966919 666.43129127 195.06640625 666.07421875 C195.06640625 665.41421875 195.06640625 664.75421875 195.06640625 664.07421875 C196.38640625 664.40421875 197.70640625 664.73421875 199.06640625 665.07421875 C199.39640625 664.41421875 199.72640625 663.75421875 200.06640625 663.07421875 C202.04640625 663.07421875 204.02640625 663.07421875 206.06640625 663.07421875 C206.39640625 662.02234375 206.72640625 660.97046875 207.06640625 659.88671875 C208.80166408 655.69670594 211.48786525 654.22792261 215.421875 652.21484375 C215.96457031 651.8384375 216.50726562 651.46203125 217.06640625 651.07421875 C217.06640625 650.08421875 217.06640625 649.09421875 217.06640625 648.07421875 C218.38640625 648.07421875 219.70640625 648.07421875 221.06640625 648.07421875 C221.31648437 647.4915625 221.5665625 646.90890625 221.82421875 646.30859375 C223.23259507 643.77528792 224.77292457 642.23902898 226.94140625 640.32421875 C227.61945312 639.710625 228.2975 639.09703125 228.99609375 638.46484375 C231.06640625 637.07421875 231.06640625 637.07421875 235.06640625 637.07421875 C236.07751718 634.02508647 236.07751718 634.02508647 235.06640625 631.07421875 C235.67097656 630.97367188 236.27554688 630.873125 236.8984375 630.76953125 C240.1408887 629.72960996 241.18980222 627.77341864 243.05859375 625.04296875 C244.3110686 622.90168247 244.3110686 622.90168247 244.37890625 619.44921875 C245.06640625 616.07421875 245.06640625 616.07421875 246.68359375 614.875 C248.10575327 614.11025384 249.53037746 613.35007887 250.95703125 612.59375 C253.5813886 610.70324072 254.53016603 608.80976507 256.00390625 605.94921875 C258.14614212 601.96145558 259.60261195 600.35712704 263.94140625 598.94921875 C265.30790091 598.61999726 266.68146323 598.31427554 268.06640625 598.07421875 C267.73640625 595.76421875 267.40640625 593.45421875 267.06640625 591.07421875 C267.72640625 590.74421875 268.38640625 590.41421875 269.06640625 590.07421875 C269.06640625 589.41421875 269.06640625 588.75421875 269.06640625 588.07421875 C270.05640625 588.07421875 271.04640625 588.07421875 272.06640625 588.07421875 C272.19015625 587.08421875 272.19015625 587.08421875 272.31640625 586.07421875 C273.15697741 582.71193412 274.51505955 579.99110185 276.12890625 576.94140625 C277.19277918 574.93356095 277.19277918 574.93356095 278.06640625 572.07421875 C281.62890625 570.38671875 281.62890625 570.38671875 285.06640625 569.07421875 C284.86015625 568.18734375 284.65390625 567.30046875 284.44140625 566.38671875 C284.0325476 562.77513399 284.6152377 561.31800727 286.06640625 558.07421875 C286.06640625 556.75421875 286.06640625 555.43421875 286.06640625 554.07421875 C287.38640625 554.40421875 288.70640625 554.73421875 290.06640625 555.07421875 C289.86015625 554.16671875 289.65390625 553.25921875 289.44140625 552.32421875 C289.04875793 548.92126665 289.04536118 547.76894551 291.06640625 545.07421875 C293.19140625 543.82421875 293.19140625 543.82421875 295.06640625 543.07421875 C294.94265625 541.37265625 294.94265625 541.37265625 294.81640625 539.63671875 C294.7766466 535.15183011 296.28926771 532.08956464 298.2421875 528.12890625 C299.30654763 525.47557246 299.09055986 523.71994892 298.06640625 521.07421875 C298.72640625 521.07421875 299.38640625 521.07421875 300.06640625 521.07421875 C300.25976562 520.0378125 300.453125 519.00140625 300.65234375 517.93359375 C300.91505492 516.56374266 301.17809296 515.19395423 301.44140625 513.82421875 C301.56773437 513.14230469 301.6940625 512.46039062 301.82421875 511.7578125 C302.51355559 508.20772777 303.38524548 505.25885664 305.06640625 502.07421875 C305.44990654 500.46032171 305.78132005 498.83337357 306.06640625 497.19921875 C306.78265292 493.3564985 307.71153105 489.75173716 309.06640625 486.07421875 C308.40640625 486.07421875 307.74640625 486.07421875 307.06640625 486.07421875 C307.21062012 485.23487793 307.35483398 484.39553711 307.50341797 483.53076172 C308.43123655 477.83429361 309.16639129 472.11253022 309.90576172 466.38916016 C310.09579278 464.93225537 310.28978795 463.47586202 310.48779297 462.02001953 C310.77627472 459.89600664 311.05151174 457.77062029 311.32421875 455.64453125 C311.49066895 454.38398926 311.65711914 453.12344727 311.82861328 451.82470703 C312.09059508 447.69271076 311.63584135 444.16633045 311.06640625 440.07421875 C311.38086138 437.73826637 311.71676445 435.40516409 312.06640625 433.07421875 C312.09104127 431.09520541 312.08875426 429.11575924 312.06640625 427.13671875 C312.0256844 423.52604766 312.10805568 420.08514925 312.62890625 416.51171875 C313.31558171 413.09929077 313.31558171 413.09929077 312.06640625 410.07421875 C311.35160563 404.35581383 311.00540361 398.64723478 311.12890625 392.88671875 C311.18742422 387.89074665 310.71248683 383.02813466 310.12890625 378.07421875 C310.0419751 377.33147705 309.95504395 376.58873535 309.86547852 375.82348633 C309.48631594 372.77159591 309.04158028 369.99974084 308.06640625 367.07421875 C307.8446084 365.18209138 307.6602661 363.28537403 307.50390625 361.38671875 C307.42011719 360.39285156 307.33632813 359.39898437 307.25 358.375 C307.18941406 357.61574219 307.12882813 356.85648437 307.06640625 356.07421875 C307.72640625 355.74421875 308.38640625 355.41421875 309.06640625 355.07421875 C307.74640625 355.07421875 306.42640625 355.07421875 305.06640625 355.07421875 C305.040625 354.17703125 305.01484375 353.27984375 304.98828125 352.35546875 C304.62954645 344.46330318 303.58180785 337.27856109 301.51098633 329.65429688 C300.36453459 325.4099639 299.68861376 321.38746044 299.33984375 317.01953125 C298.93777939 314.15913049 297.91119752 311.64664423 296.83203125 308.98046875 C294.81347258 303.9546696 293.80235766 299.48721489 294.06640625 294.07421875 C293.40640625 294.07421875 292.74640625 294.07421875 292.06640625 294.07421875 C292.06640625 293.41421875 292.06640625 292.75421875 292.06640625 292.07421875 C291.40640625 292.07421875 290.74640625 292.07421875 290.06640625 292.07421875 C290.06640625 289.76421875 290.06640625 287.45421875 290.06640625 285.07421875 C289.40640625 285.07421875 288.74640625 285.07421875 288.06640625 285.07421875 C288.39640625 283.42421875 288.72640625 281.77421875 289.06640625 280.07421875 C288.07640625 280.07421875 287.08640625 280.07421875 286.06640625 280.07421875 C286.39640625 278.75421875 286.72640625 277.43421875 287.06640625 276.07421875 C286.07640625 275.74421875 285.08640625 275.41421875 284.06640625 275.07421875 C284.02902344 274.41035156 283.99164062 273.74648438 283.953125 273.0625 C283.56988074 267.91500356 283.13239328 264.36660059 280.06640625 260.07421875 C278.93562773 257.48007979 278.00632213 254.88996079 277.12890625 252.19921875 C276.07881209 248.97898648 276.07881209 248.97898648 274.56640625 245.57421875 C273.2212134 242.43543544 272.14512542 239.31037625 271.06640625 236.07421875 C269.16356822 230.93655606 266.76752756 227.07389723 263.37109375 222.7734375 C262.06640625 221.07421875 262.06640625 221.07421875 261.06640625 219.07421875 C260.40640625 219.07421875 259.74640625 219.07421875 259.06640625 219.07421875 C258.81890625 218.51734375 258.57140625 217.96046875 258.31640625 217.38671875 C256.83715807 214.65010962 255.13173186 212.39771006 253.06640625 210.07421875 C252.40640625 210.07421875 251.74640625 210.07421875 251.06640625 210.07421875 C250.83953125 209.51734375 250.61265625 208.96046875 250.37890625 208.38671875 C249.06038265 206.06360574 247.55470948 204.46726395 245.625 202.640625 C242.91222424 199.91425136 240.49711292 196.91411346 238.03125 193.96484375 C235.97936906 191.99046924 234.84615693 191.44567764 232.06640625 191.07421875 C231.73640625 189.09421875 231.40640625 187.11421875 231.06640625 185.07421875 C230.07640625 185.07421875 229.08640625 185.07421875 228.06640625 185.07421875 C227.73640625 184.41421875 227.40640625 183.75421875 227.06640625 183.07421875 C226.07640625 183.07421875 225.08640625 183.07421875 224.06640625 183.07421875 C223.73640625 182.08421875 223.40640625 181.09421875 223.06640625 180.07421875 C222.40640625 180.07421875 221.74640625 180.07421875 221.06640625 180.07421875 C220.73640625 179.08421875 220.40640625 178.09421875 220.06640625 177.07421875 C218.20345573 175.47979222 218.20345573 175.47979222 216.00390625 174.01171875 C213.78125 172.4765625 213.78125 172.4765625 212.06640625 171.07421875 C212.06640625 170.41421875 212.06640625 169.75421875 212.06640625 169.07421875 C209.59140625 168.57921875 209.59140625 168.57921875 207.06640625 168.07421875 C207.06640625 167.41421875 207.06640625 166.75421875 207.06640625 166.07421875 C205.12264671 164.25793099 205.12264671 164.25793099 202.69140625 162.44921875 C201.47324219 161.50175781 201.47324219 161.50175781 200.23046875 160.53515625 C198.22530746 158.88771067 198.22530746 158.88771067 196.06640625 159.07421875 C195.73640625 158.08421875 195.40640625 157.09421875 195.06640625 156.07421875 C194.07640625 155.74421875 193.08640625 155.41421875 192.06640625 155.07421875 C191.04342703 154.09773858 190.04736373 153.09290537 189.06640625 152.07421875 C185.97489588 149.07618782 185.97489588 149.07618782 182.06640625 148.07421875 C181.73640625 147.08421875 181.40640625 146.09421875 181.06640625 145.07421875 C180.07640625 145.07421875 179.08640625 145.07421875 178.06640625 145.07421875 C178.06640625 143.42421875 178.06640625 141.77421875 178.06640625 140.07421875 C177.11765625 139.95046875 176.16890625 139.82671875 175.19140625 139.69921875 C171.47900739 138.95673898 170.67555473 137.68336723 168.06640625 135.07421875 C167.45539063 134.92597656 166.844375 134.77773437 166.21484375 134.625 C163.60474897 133.95586661 161.90232142 132.79384417 159.69140625 131.26171875 C158.51191406 130.45734375 158.51191406 130.45734375 157.30859375 129.63671875 C155.47037648 128.35573111 153.6419691 127.06067693 151.81640625 125.76171875 C149.12442539 124.10982141 147.17779266 123.44026421 144.06640625 123.07421875 C144.06640625 122.08421875 144.06640625 121.09421875 144.06640625 120.07421875 C143.11765625 119.78546875 142.16890625 119.49671875 141.19140625 119.19921875 C138.06640625 118.07421875 138.06640625 118.07421875 136.06640625 116.07421875 C135.07640625 116.07421875 134.08640625 116.07421875 133.06640625 116.07421875 C133.06640625 115.41421875 133.06640625 114.75421875 133.06640625 114.07421875 C131.41640625 114.07421875 129.76640625 114.07421875 128.06640625 114.07421875 C127.88078125 113.43484375 127.69515625 112.79546875 127.50390625 112.13671875 C127.02953125 111.45609375 126.55515625 110.77546875 126.06640625 110.07421875 C123.74264933 109.67961852 121.40701275 109.35191783 119.06640625 109.07421875 C116.24205591 107.63066191 114.30466527 106.31247777 112.06640625 104.07421875 C111.07640625 104.07421875 110.08640625 104.07421875 109.06640625 104.07421875 C107.53278069 103.6149512 106.01217392 103.11093344 104.50390625 102.57421875 C101.35537308 101.41882219 101.35537308 101.41882219 98.06640625 101.07421875 C98.06640625 100.41421875 98.06640625 99.75421875 98.06640625 99.07421875 C97.40640625 98.97109375 96.74640625 98.86796875 96.06640625 98.76171875 C93.06640625 98.07421875 93.06640625 98.07421875 89.50390625 96.57421875 C85.99508366 95.19055097 82.88946998 94.83288047 79.12890625 94.63671875 C74.17267211 94.3385994 70.75543608 93.28722575 66.37109375 91.046875 C62.82018972 89.54827313 59.16154668 89.19040895 55.3515625 88.76171875 C53.06640625 88.07421875 53.06640625 88.07421875 52.02734375 86.1484375 C51.71023438 85.46394531 51.393125 84.77945313 51.06640625 84.07421875 C46.24773212 81.10380319 41.10223835 79.92057784 35.50390625 79.63671875 C29.7537079 79.32545445 25.79501588 77.23830075 21.06640625 74.07421875 C20.40640625 75.06421875 19.74640625 76.05421875 19.06640625 77.07421875 C17.31640625 77.88671875 17.31640625 77.88671875 15.06640625 78.07421875 C14.17953125 77.74421875 13.29265625 77.41421875 12.37890625 77.07421875 C8.79479663 75.99222339 6.49145263 76.43069799 2.85546875 76.98046875 C-3.12906014 77.18162939 -9.12870101 75.42792891 -14.93359375 74.07421875 C-14.93359375 74.73421875 -14.93359375 75.39421875 -14.93359375 76.07421875 C-15.55234375 75.57921875 -16.17109375 75.08421875 -16.80859375 74.57421875 C-18.77240279 72.88199102 -18.77240279 72.88199102 -20.93359375 73.07421875 Z M-92.93359375 82.07421875 C-93.59359375 82.73421875 -94.25359375 83.39421875 -94.93359375 84.07421875 C-92.45859375 85.06421875 -92.45859375 85.06421875 -89.93359375 86.07421875 C-90.59359375 84.75421875 -91.25359375 83.43421875 -91.93359375 82.07421875 C-92.26359375 82.07421875 -92.59359375 82.07421875 -92.93359375 82.07421875 Z M-185.93359375 144.07421875 C-185.27359375 144.73421875 -184.61359375 145.39421875 -183.93359375 146.07421875 C-183.93359375 145.41421875 -183.93359375 144.75421875 -183.93359375 144.07421875 C-184.59359375 144.07421875 -185.25359375 144.07421875 -185.93359375 144.07421875 Z M314.06640625 189.07421875 C314.06640625 190.72421875 314.06640625 192.37421875 314.06640625 194.07421875 C315.05640625 193.74421875 316.04640625 193.41421875 317.06640625 193.07421875 C317.06640625 192.08421875 317.06640625 191.09421875 317.06640625 190.07421875 C316.07640625 189.74421875 315.08640625 189.41421875 314.06640625 189.07421875 Z M325.06640625 208.07421875 C325.06640625 208.73421875 325.06640625 209.39421875 325.06640625 210.07421875 C325.72640625 209.74421875 326.38640625 209.41421875 327.06640625 209.07421875 C326.40640625 208.74421875 325.74640625 208.41421875 325.06640625 208.07421875 Z M-275.93359375 238.07421875 C-274.93359375 240.07421875 -274.93359375 240.07421875 -274.93359375 240.07421875 Z M249.06640625 614.07421875 C249.06640625 615.06421875 249.06640625 616.05421875 249.06640625 617.07421875 C249.72640625 617.07421875 250.38640625 617.07421875 251.06640625 617.07421875 C251.06640625 616.08421875 251.06640625 615.09421875 251.06640625 614.07421875 C250.40640625 614.07421875 249.74640625 614.07421875 249.06640625 614.07421875 Z M214.06640625 724.07421875 C214.06640625 724.73421875 214.06640625 725.39421875 214.06640625 726.07421875 C215.05640625 726.40421875 216.04640625 726.73421875 217.06640625 727.07421875 C216.73640625 726.08421875 216.40640625 725.09421875 216.06640625 724.07421875 C215.40640625 724.07421875 214.74640625 724.07421875 214.06640625 724.07421875 Z M47.06640625 787.07421875 C47.06640625 788.06421875 47.06640625 789.05421875 47.06640625 790.07421875 C47.72640625 790.07421875 48.38640625 790.07421875 49.06640625 790.07421875 C49.39640625 789.08421875 49.72640625 788.09421875 50.06640625 787.07421875 C49.07640625 787.07421875 48.08640625 787.07421875 47.06640625 787.07421875 Z M-97.93359375 794.07421875 C-97.93359375 797.07421875 -97.93359375 797.07421875 -97.93359375 797.07421875 Z " fill="#BDBDBD" transform="translate(425.93359375,62.92578125)"/>
</svg>
