<?xml version="1.0" encoding="UTF-8"?>
<svg version="1.1" xmlns="http://www.w3.org/2000/svg" width="1920" height="1080">
<path d="M0 0 C0.94153427 -0.00189835 1.88306854 -0.00379669 2.85313416 -0.00575256 C5.96141972 -0.00944867 9.06946951 0.00125328 12.17773438 0.01245117 C14.37976047 0.01364697 16.58178708 0.01409529 18.78381348 0.01383972 C23.41726858 0.01540422 28.05064642 0.02367237 32.68408203 0.03710938 C38.4949912 0.05378415 44.3058139 0.05784893 50.11674404 0.0572834 C72.356523 0.05786696 94.57890823 0.18375038 116.81007576 0.82505226 C128.47570023 1.16040938 140.12825809 1.32823581 151.79882812 1.30541992 C152.89659765 1.30328523 152.89659765 1.30328523 154.01654434 1.30110741 C159.08072818 1.28918143 164.14484567 1.2669072 169.20898438 1.24291992 C174.41863548 1.21907263 179.62826096 1.19900514 184.83795357 1.1869812 C186.88167143 1.18055253 188.92529267 1.16809997 190.96897888 1.15527344 C192.18118607 1.15197021 193.39339325 1.14866699 194.64233398 1.14526367 C195.70971298 1.14002686 196.77709198 1.13479004 197.8768158 1.12939453 C200.27148438 1.24291992 200.27148438 1.24291992 201.27148438 2.24291992 C204.25450298 2.34412982 207.21387214 2.38260191 210.19726562 2.37573242 C211.09640182 2.37668915 211.99553802 2.37764587 212.92192078 2.37863159 C214.82937693 2.37931366 216.73683538 2.37745751 218.64428711 2.37329102 C221.56108857 2.36796175 224.47773473 2.37322542 227.39453125 2.37963867 C229.24544305 2.37897753 231.09635475 2.37769562 232.94726562 2.37573242 C233.82030838 2.37775665 234.69335114 2.37978088 235.59284973 2.38186646 C236.41017075 2.37871429 237.22749176 2.37556213 238.06958008 2.37231445 C239.14427299 2.37112106 239.14427299 2.37112106 240.24067688 2.36990356 C242.26151471 2.3123601 242.26151471 2.3123601 244.11112976 1.74093628 C247.1143016 1.04862924 249.95812455 1.13198333 253.0390625 1.14526367 C253.71333786 1.14672394 254.38761322 1.1481842 255.08232117 1.14968872 C256.54947134 1.15349283 258.01661691 1.15960743 259.48374939 1.16775513 C261.84631256 1.18065792 264.20881843 1.18707496 266.57141113 1.19189453 C272.46949146 1.20519942 278.36752108 1.22875861 284.26556396 1.2532959 C302.40493351 1.32781235 320.52263865 1.34665602 338.65429688 0.76245117 C359.17833304 0.10582375 379.70035741 -0.01418519 400.23388672 -0.05224609 C404.54847798 -0.06122899 408.86275998 -0.08244913 413.17724609 -0.11376953 C418.4967169 -0.15236799 423.81591147 -0.17101971 429.13551712 -0.17552757 C431.12797463 -0.18034308 433.12042937 -0.19180939 435.11280441 -0.21056557 C449.09032013 -0.33449416 460.6058861 0.7060073 473.27148438 7.24291992 C474.30789063 7.7147168 475.34429688 8.18651367 476.41210938 8.67260742 C477.95125 9.38803711 477.95125 9.38803711 479.52148438 10.11791992 C481.07609375 10.82561523 481.07609375 10.82561523 482.66210938 11.54760742 C485.73497095 13.54404743 486.01918294 14.91443452 487.27148438 18.24291992 C488.59148438 18.57291992 489.91148437 18.90291992 491.27148438 19.24291992 C491.60148438 25.51291992 491.93148437 31.78291992 492.27148438 38.24291992 C495.24148438 37.74791992 495.24148438 37.74791992 498.27148438 37.24291992 C500.36996839 37.28007604 502.46802449 37.38523199 504.56054688 37.54760742 C506.34525391 37.68102539 506.34525391 37.68102539 508.16601562 37.81713867 C510.01259766 37.96602539 510.01259766 37.96602539 511.89648438 38.11791992 C513.10433594 38.20944336 514.3121875 38.3009668 515.55664062 38.39526367 C524.8290297 39.10391773 524.8290297 39.10391773 529.1394043 39.51928711 C539.74886288 40.52304842 550.39353017 40.58970946 561.04174805 40.79516602 C563.65097599 40.84681513 566.26003981 40.90400431 568.86914062 40.96166992 C569.66908951 40.97524536 570.46903839 40.9888208 571.29322815 41.00280762 C574.52546473 41.07564576 577.18458451 41.2139533 580.27148438 42.24291992 C583.95531206 42.3744852 586.76202023 42.41274131 590.27148438 41.24291992 C593.02874127 41.13389036 595.75995998 41.07887892 598.51757812 41.07495117 C599.32510025 41.07162277 600.13262238 41.06829437 600.96461487 41.06486511 C602.671798 41.05980479 604.37899101 41.05745651 606.08618164 41.05761719 C608.69564123 41.0554311 611.30467772 41.0372673 613.9140625 41.01831055 C615.57356626 41.01537635 617.23307203 41.01339173 618.89257812 41.01245117 C619.67185165 41.00526566 620.45112518 40.99808014 621.25401306 40.99067688 C628.31424038 41.02040077 628.31424038 41.02040077 631.27148438 43.24291992 C632.6029006 47.05964645 632.37841424 49.49218695 630.83398438 53.11791992 C630.31835938 54.14916992 629.80273438 55.18041992 629.27148438 56.24291992 C628.61148438 56.24291992 627.95148437 56.24291992 627.27148438 56.24291992 C627.27148438 57.23291992 627.27148438 58.22291992 627.27148438 59.24291992 C626.61148438 59.24291992 625.95148437 59.24291992 625.27148438 59.24291992 C625.04460938 59.82041992 624.81773437 60.39791992 624.58398438 60.99291992 C622.92422092 63.8382287 620.8508177 65.17945326 618.27148438 67.24291992 C616.47177141 69.30492289 614.73163773 71.40222095 613.01757812 73.53588867 C611.06684285 75.44298333 609.87339363 75.67825025 607.27148438 76.24291992 C607.00335937 76.96479492 606.73523438 77.68666992 606.45898438 78.43041992 C604.99194335 81.90499078 603.08992682 83.24397362 600.20507812 85.57104492 C597.47711367 87.92976975 595.22964565 90.62225104 592.89257812 93.36010742 C589.8657038 96.87565785 586.60760423 100.00019372 583.02148438 102.93041992 C580.25406244 104.94715212 580.25406244 104.94715212 579.27148438 107.24291992 C578.61148438 107.24291992 577.95148437 107.24291992 577.27148438 107.24291992 C576.94148437 108.23291992 576.61148438 109.22291992 576.27148438 110.24291992 C574.95948033 111.59724667 573.62517034 112.93025474 572.27148438 114.24291992 C571.61148438 115.23291992 570.95148437 116.22291992 570.27148438 117.24291992 C569.61148438 117.24291992 568.95148437 117.24291992 568.27148438 117.24291992 C568.27148438 118.89291992 568.27148438 120.54291992 568.27148438 122.24291992 C569.10679687 122.61416992 569.10679687 122.61416992 569.95898438 122.99291992 C573.68526332 125.00712476 576.57062277 127.36119081 579.20898438 130.68041992 C580.936176 132.82632466 582.38710905 134.20340708 584.52148438 135.86791992 C585.42898438 136.65166992 586.33648438 137.43541992 587.27148438 138.24291992 C587.27148438 139.23291992 587.27148438 140.22291992 587.27148438 141.24291992 C587.86960937 141.32541992 588.46773437 141.40791992 589.08398438 141.49291992 C591.8822158 142.45231355 592.57559031 143.88341513 594.27148438 146.24291992 C595.26148438 146.57291992 596.25148438 146.90291992 597.27148438 147.24291992 C597.27148438 147.90291992 597.27148438 148.56291992 597.27148438 149.24291992 C597.93148437 149.24291992 598.59148438 149.24291992 599.27148438 149.24291992 C599.27148438 149.90291992 599.27148438 150.56291992 599.27148438 151.24291992 C600.26148438 151.24291992 601.25148438 151.24291992 602.27148438 151.24291992 C602.27148438 152.23291992 602.27148438 153.22291992 602.27148438 154.24291992 C603.26148438 154.57291992 604.25148438 154.90291992 605.27148438 155.24291992 C605.27148438 155.90291992 605.27148438 156.56291992 605.27148438 157.24291992 C605.88507812 157.34217773 606.49867188 157.44143555 607.13085938 157.54370117 C610.1999314 158.54619003 611.07655465 160.75478589 612.78710938 163.35229492 C614.42527086 165.43879534 616.08752851 166.68613433 618.27148438 168.18041992 C622.04526058 170.81494293 624.07553472 173.58951584 626.26367188 177.60620117 C627.18035616 179.41699606 627.18035616 179.41699606 629.27148438 180.24291992 C631.44440582 185.86188418 633.03234349 191.32003018 631.27148438 197.24291992 C629.29148437 197.57291992 627.31148437 197.90291992 625.27148438 198.24291992 C625.27148438 198.90291992 625.27148438 199.56291992 625.27148438 200.24291992 C624.09162964 200.02744507 624.09162964 200.02744507 622.88793945 199.80761719 C612.51276333 198.10108088 602.4436734 198.04100399 591.95898438 198.18041992 C589.43513132 198.20829307 586.91134414 198.23297253 584.3874054 198.25160217 C582.83346623 198.26360151 581.27955418 198.28093215 579.72575378 198.30491638 C574.50474099 198.35261114 569.4481334 197.89520917 564.27148438 197.24291992 C551.63105392 195.84756124 538.9835147 196.24162362 526.29052734 196.48486328 C522.5720309 196.55447369 518.85352432 196.60933625 515.13476562 196.6628418 C502.07433665 196.88024294 489.12070073 197.46020581 476.10427856 198.55755615 C468.16934696 199.21590718 460.36158743 199.46647899 452.39648438 199.30541992 C450.14915225 199.27102198 447.90174987 199.24087333 445.65429688 199.21557617 C444.7095752 199.19760986 443.76485352 199.17964355 442.79150391 199.16113281 C440.43948366 199.23746751 438.5243041 199.60693018 436.27148438 200.24291992 C434.77446653 200.3562505 433.27273087 200.41756678 431.77148438 200.43041992 C431.01867187 200.44459961 430.26585937 200.4587793 429.49023438 200.47338867 C426.922299 200.20664891 425.41561466 199.68293963 423.27148438 198.24291992 C420.73227123 194.56500797 420.94182231 190.6062101 420.89257812 186.30151367 C420.87558365 185.53742691 420.85858917 184.77334015 420.84107971 183.98609924 C420.78807253 181.55095623 420.74771038 179.1158286 420.70898438 176.68041992 C420.66499921 174.24152692 420.61825691 171.80276283 420.56617737 169.36402893 C420.53432296 167.8482891 420.50740117 166.33243577 420.48594666 164.81651306 C420.4248865 161.70422274 420.26295028 159.21731762 419.27148438 156.24291992 C414.0753616 156.2181801 408.8792732 156.200041 403.68310547 156.18798828 C401.91584679 156.18296305 400.14859226 156.17614183 398.38134766 156.16748047 C395.8395078 156.15533565 393.29772298 156.14967347 390.75585938 156.14526367 C389.96717468 156.14010239 389.17848999 156.1349411 388.36590576 156.12962341 C384.18996698 156.10969723 384.18996698 156.10969723 380.09332275 156.81251526 C379.49211609 156.9545488 378.89090942 157.09658234 378.27148438 157.24291992 C377.94148437 156.91291992 377.61148438 156.58291992 377.27148438 156.24291992 C374.82243769 156.14247651 372.4077354 156.10417576 369.95898438 156.11791992 C369.28158203 156.11405273 368.60417969 156.11018555 367.90625 156.10620117 C365.1955312 156.11150072 362.67664864 156.13932276 360.04101562 156.81323242 C357.8007551 157.35722504 356.48946299 156.83194355 354.27148438 156.24291992 C352.23083281 156.17525906 350.18813254 156.15784642 348.14648438 156.18041992 C347.09203125 156.18944336 346.03757812 156.1984668 344.95117188 156.20776367 C344.066875 156.21936523 343.18257812 156.2309668 342.27148438 156.24291992 C341.61148438 156.24291992 340.95148437 156.24291992 340.27148438 156.24291992 C339.00304687 156.32670898 337.73460937 156.41049805 336.42773438 156.49682617 C335.30044922 156.57126953 335.30044922 156.57126953 334.15039062 156.6472168 C332.56418973 156.75270306 330.97824279 156.86208004 329.39257812 156.9753418 C323.49501923 157.35468735 323.49501923 157.35468735 321.27148438 156.24291992 C319.64054138 156.33174945 318.01298535 156.48727133 316.390625 156.67651367 C310.36119028 157.28734997 304.42076133 157.35432566 298.36523438 157.30541992 C297.27811157 157.3016333 296.19098877 157.29784668 295.07092285 157.29394531 C291.63773407 157.2818414 288.20463399 157.26319443 284.77148438 157.24291992 C280.21940354 157.21636612 275.6673632 157.19638813 271.11523438 157.18041992 C270.07153687 157.17212158 269.02783936 157.16382324 267.95251465 157.15527344 C266.98720825 157.15197021 266.02190186 157.14866699 265.02734375 157.14526367 C264.17893921 157.14002686 263.33053467 157.13479004 262.4564209 157.12939453 C260.09108289 157.15495581 260.09108289 157.15495581 257.27148438 158.24291992 C257.27148438 157.58291992 257.27148438 156.92291992 257.27148438 156.24291992 C256.61148437 156.24291992 255.95148438 156.24291992 255.27148438 156.24291992 C255.27148438 156.90291992 255.27148438 157.56291992 255.27148438 158.24291992 C254.41425781 158.3640918 253.55703125 158.48526367 252.67382812 158.61010742 C245.38281575 159.60915043 245.38281575 159.60915043 238.27148438 161.43041992 C233.88142202 162.61939514 231.24392581 161.57953426 227.02148438 160.11791992 C221.97984481 158.94153736 216.90136157 158.8932471 212.20117188 161.30541992 C207.63024986 163.52611078 201.23240374 160.82192368 196.42773438 159.71948242 C193.72446371 159.12202043 191.00730758 158.6638158 188.27148438 158.24291992 C188.27148438 157.58291992 188.27148438 156.92291992 188.27148438 156.24291992 C187.61148437 156.24291992 186.95148438 156.24291992 186.27148438 156.24291992 C186.27148438 156.90291992 186.27148438 157.56291992 186.27148438 158.24291992 C185.71857727 158.07993408 185.16567017 157.91694824 184.5960083 157.74902344 C182.01698953 157.18751041 179.71844684 157.1300503 177.07910156 157.14526367 C176.04412537 157.14856689 175.00914917 157.15187012 173.94281006 157.15527344 C172.27245697 157.16772095 172.27245697 157.16772095 170.56835938 157.18041992 C168.84072357 157.18609985 168.84072357 157.18609985 167.07818604 157.19189453 C162.15185198 157.20823091 157.22560091 157.23628567 152.29931641 157.26342773 C148.70150133 157.28156718 145.10369998 157.29363051 141.50585938 157.30541992 C140.40038757 157.31371826 139.29491577 157.3220166 138.15594482 157.33056641 C132.41461939 157.34866983 126.95511657 157.02440403 121.27148438 156.24291992 C119.59870321 156.54407115 117.93099813 156.87562851 116.27148438 157.24291992 C114.0390905 157.16004063 111.80844853 157.01087214 109.58398438 156.80541992 C105.43333757 156.39991254 105.43333757 156.39991254 101.27148438 156.24291992 C99.8715625 156.22551758 99.8715625 156.22551758 98.44335938 156.20776367 C97.31414062 156.19874023 96.18492187 156.1897168 95.02148438 156.18041992 C93.90257812 156.16881836 92.78367187 156.1572168 91.63085938 156.14526367 C88.26623515 156.16427853 88.26623515 156.16427853 84.97460938 156.80932617 C82.27148438 157.24291992 82.27148438 157.24291992 80.27148438 156.24291992 C77.98151652 156.14535237 75.68852484 156.11315476 73.39648438 156.11791992 C72.1615625 156.1153418 70.92664063 156.11276367 69.65429688 156.11010742 C66.94583633 156.21644421 64.85169558 156.55735656 62.27148438 157.24291992 C61.94148437 156.91291992 61.61148438 156.58291992 61.27148438 156.24291992 C58.53254353 156.15433346 55.81895167 156.12768513 53.08007812 156.14526367 C51.85032005 156.14738609 51.85032005 156.14738609 50.59571838 156.14955139 C47.96677055 156.15516703 45.33790664 156.16772213 42.70898438 156.18041992 C40.93099081 156.18543291 39.15299592 156.18999616 37.375 156.1940918 C33.00712892 156.20514154 28.6393209 156.22241661 24.27148438 156.24291992 C23.57405924 161.3316051 23.13690591 166.26716162 23.06054688 171.41088867 C23.0321875 172.71606445 23.00382813 174.02124023 22.97460938 175.3659668 C22.93324067 177.40657669 22.89627281 179.44692777 22.87011719 181.48779297 C22.84244607 183.48321456 22.79547748 185.47833896 22.74804688 187.47338867 C22.72822754 188.65312256 22.7084082 189.83285645 22.68798828 191.04833984 C22.23418912 194.52897407 21.36840911 196.45288953 19.27148438 199.24291992 C14.10374944 201.27869429 6.4846214 200.98063226 1.27148438 199.24291992 C-0.34333411 199.18350595 -1.96060826 199.18206574 -3.57617188 199.21557617 C-4.57712891 199.22782227 -5.57808594 199.24006836 -6.609375 199.25268555 C-8.64072156 199.28635427 -10.67199686 199.3249185 -12.703125 199.36987305 C-20.44513963 199.4521834 -28.04112508 198.93174705 -35.75195312 198.28198242 C-49.01094898 197.18371933 -62.23638924 196.79848477 -75.53637695 196.60986328 C-79.32008601 196.55499839 -83.10329782 196.48468661 -86.88671875 196.4128418 C-107.11120313 195.55314965 -107.11120313 195.55314965 -127.13305664 197.77758789 C-130.84939824 198.44387959 -134.53098421 198.32493377 -138.29101562 198.27026367 C-139.9928364 198.2576023 -141.69465943 198.24524249 -143.39648438 198.2331543 C-146.05101782 198.20852561 -148.70542948 198.18071337 -151.35986328 198.14697266 C-161.70973364 198.0238753 -171.54236055 198.17153369 -181.72851562 200.24291992 C-181.72851562 199.58291992 -181.72851562 198.92291992 -181.72851562 198.24291992 C-183.70851562 197.91291992 -185.68851563 197.58291992 -187.72851562 197.24291992 C-189.01261669 190.82241459 -188.6159582 186.18280178 -185.72851562 180.24291992 C-183.72851562 177.99291992 -183.72851562 177.99291992 -181.72851562 176.24291992 C-181.33664063 175.47979492 -180.94476563 174.71666992 -180.54101562 173.93041992 C-178.19390913 170.45022753 -175.22822131 168.49846684 -171.87695312 166.02026367 C-169.89596146 164.3814433 -168.72362459 163.04901167 -167.41601562 160.86791992 C-165.72851562 158.24291992 -165.72851562 158.24291992 -163.54101562 157.55541992 C-162.94289063 157.45229492 -162.34476563 157.34916992 -161.72851562 157.24291992 C-161.39851563 156.25291992 -161.06851563 155.26291992 -160.72851562 154.24291992 C-160.06851563 154.24291992 -159.40851563 154.24291992 -158.72851562 154.24291992 C-158.72851562 153.25291992 -158.72851562 152.26291992 -158.72851562 151.24291992 C-157.73851562 151.24291992 -156.74851562 151.24291992 -155.72851562 151.24291992 C-155.72851562 150.58291992 -155.72851562 149.92291992 -155.72851562 149.24291992 C-155.06851563 149.24291992 -154.40851563 149.24291992 -153.72851562 149.24291992 C-153.72851562 148.58291992 -153.72851562 147.92291992 -153.72851562 147.24291992 C-152.83132812 146.87166992 -152.83132812 146.87166992 -151.91601562 146.49291992 C-149.5955835 145.36311604 -149.5955835 145.36311604 -148.16601562 143.11791992 C-147.45445312 142.18979492 -147.45445312 142.18979492 -146.72851562 141.24291992 C-145.73851562 141.24291992 -144.74851563 141.24291992 -143.72851562 141.24291992 C-143.64085937 140.65381836 -143.55320313 140.0647168 -143.46289062 139.45776367 C-142.5311937 136.6478054 -141.26063271 135.66285732 -138.97851562 133.80541992 C-135.09004478 130.55691208 -131.49570198 127.14100897 -128.04101562 123.43041992 C-126.72851562 122.24291992 -126.72851562 122.24291992 -124.72851562 122.24291992 C-124.72851562 120.59291992 -124.72851562 118.94291992 -124.72851562 117.24291992 C-125.65664062 116.87166992 -125.65664062 116.87166992 -126.60351562 116.49291992 C-129.1243003 115.01010541 -129.51381543 113.83428034 -130.72851562 111.24291992 C-131.71851563 110.58291992 -132.70851562 109.92291992 -133.72851562 109.24291992 C-133.72851562 108.58291992 -133.72851562 107.92291992 -133.72851562 107.24291992 C-134.38851562 107.24291992 -135.04851562 107.24291992 -135.72851562 107.24291992 C-137.4408181 105.62317433 -139.10014824 103.94702532 -140.72851562 102.24291992 C-141.55351562 101.43854492 -142.37851563 100.63416992 -143.22851562 99.80541992 C-145.89559574 97.0716628 -148.28416101 94.17614546 -150.72851562 91.24291992 C-153.32459015 88.51371337 -155.95162869 86.05255149 -158.91601562 83.74291992 C-161.79150963 81.18692525 -162.38290488 79.70306184 -163.72851562 76.24291992 C-165.05339675 75.87743547 -166.38870076 75.54916332 -167.72851562 75.24291992 C-170.34654909 72.88668981 -172.5621893 70.45602553 -174.72851562 67.68041992 C-176.6887488 65.1173026 -176.6887488 65.1173026 -179.47851562 63.05541992 C-180.22101563 62.45729492 -180.96351563 61.85916992 -181.72851562 61.24291992 C-181.72851562 60.58291992 -181.72851562 59.92291992 -181.72851562 59.24291992 C-182.38851562 59.24291992 -183.04851562 59.24291992 -183.72851562 59.24291992 C-183.72851562 58.25291992 -183.72851562 57.26291992 -183.72851562 56.24291992 C-184.38851562 56.24291992 -185.04851562 56.24291992 -185.72851562 56.24291992 C-187.61625092 52.46744934 -188.74615777 50.17795353 -188.66601562 45.93041992 C-187.72851562 43.24291992 -187.72851562 43.24291992 -186.18920898 42.08935547 C-182.62672395 40.86392283 -179.14180293 40.97785394 -175.41992188 41.01245117 C-174.61618637 41.01290939 -173.81245087 41.01336761 -172.98435974 41.01383972 C-171.2873283 41.01685574 -169.59029946 41.02472259 -167.89331055 41.03710938 C-165.3037732 41.05533016 -162.71459469 41.05761914 -160.125 41.05737305 C-158.47330422 41.06229021 -156.82161085 41.06811939 -155.16992188 41.07495117 C-154.39894669 41.076064 -153.6279715 41.07717682 -152.83363342 41.07832336 C-149.00034354 41.11194057 -145.46222212 41.38168562 -141.72851562 42.24291992 C-138.72498702 42.37072965 -136.04524623 42.30199025 -133.08813477 41.75048828 C-129.00857266 41.13415156 -125.03170882 41.05021354 -120.91210938 40.99682617 C-119.17056654 40.96527494 -117.42903026 40.93336049 -115.6875 40.90112305 C-114.78475342 40.88573486 -113.88200684 40.87034668 -112.9519043 40.85449219 C-98.52906398 40.60043988 -84.26455552 40.12576612 -69.92529297 38.47485352 C-65.9714582 38.05741152 -62.00877911 37.7994357 -58.04101562 37.55541992 C-57.32623047 37.50708008 -56.61144531 37.45874023 -55.875 37.40893555 C-50.97010003 37.12212772 -50.97010003 37.12212772 -48.72851562 38.24291992 C-48.39851562 31.97291992 -48.06851563 25.70291992 -47.72851562 19.24291992 C-45.74851563 18.74791992 -45.74851563 18.74791992 -43.72851562 18.24291992 C-43.32632813 17.09823242 -43.32632813 17.09823242 -42.91601562 15.93041992 C-40.63690907 10.77244194 -34.69319494 9.20964006 -29.72851562 7.24291992 C-28.79394531 6.84073242 -27.859375 6.43854492 -26.89648438 6.02416992 C-25.42115234 5.38995117 -25.42115234 5.38995117 -23.91601562 4.74291992 C-22.94019531 4.32010742 -21.964375 3.89729492 -20.95898438 3.46166992 C-13.82029756 0.76847731 -7.56019754 -0.04874757 0 0 Z " fill="#FDF4DF" transform="translate(203.728515625,683.757080078125)"/>
<path d="M0 0 C0.33 0 0.66 0 1 0 C1.02693575 2.12493141 1.04636628 4.24995912 1.0625 6.375 C1.07410156 7.55835938 1.08570313 8.74171875 1.09765625 9.9609375 C1 13 1 13 0 15 C-0.07194869 17.88370333 -0.09291708 20.74239664 -0.0625 23.625 C-0.05573242 24.82769531 -0.05573242 24.82769531 -0.04882812 26.0546875 C-0.03703168 28.03649006 -0.01909605 30.01825433 0 32 C-0.66 32 -1.32 32 -2 32 C-1.835 32.94101562 -1.67 33.88203125 -1.5 34.8515625 C-0.81138738 39.6936731 -0.93661618 44.49486259 -1 49.375 C-1.06365575 58.45968767 -0.80264182 67.4823763 -0.35107422 76.55444336 C-0.05028261 83.36312877 0.0163508 90.14768203 -0.0390625 96.9609375 C-0.04496399 97.82438278 -0.05086548 98.68782806 -0.0569458 99.57743835 C-0.08871839 103.91295992 -0.13843528 108.24727916 -0.21289062 112.58227539 C-0.22840151 114.17854305 -0.24339939 115.7748158 -0.2578125 117.37109375 C-0.28580429 118.48337845 -0.28580429 118.48337845 -0.31436157 119.61813354 C-0.36098055 121.89488422 -0.36098055 121.89488422 0 125 C0.99 125.66 1.98 126.32 3 127 C3 127.66 3 128.32 3 129 C6.63 129 10.26 129 14 129 C14.33 128.34 14.66 127.68 15 127 C15.33 127.99 15.66 128.98 16 130 C16.99 129.34 17.98 128.68 19 128 C20.32 128 21.64 128 23 128 C23 128.66 23 129.32 23 130 C24.47978969 129.88260541 25.95881184 129.75553868 27.4375 129.625 C28.26121094 129.55539062 29.08492187 129.48578125 29.93359375 129.4140625 C32.41373135 129.07916494 34.63462414 128.59063911 37.046875 127.97265625 C42.94745728 126.62163147 48.78737605 126.74535786 54.8125 126.8125 C55.93076172 126.81314453 57.04902344 126.81378906 58.20117188 126.81445312 C66.7359093 126.86053149 66.7359093 126.86053149 71 128 C70.93103982 133.46309388 70.84303246 138.92542848 70.73754883 144.38793945 C70.70434451 146.2452755 70.67629859 148.10271137 70.65356445 149.96020508 C70.61993558 152.63405798 70.56761626 155.30699993 70.51171875 157.98046875 C70.50532883 158.80773972 70.4989389 159.63501068 70.49235535 160.48735046 C70.37506718 165.11171477 70.01161983 168.25262592 67 172 C61.83226506 174.03577437 54.21313702 173.73771234 49 172 C47.38518152 171.94058603 45.76790737 171.93914581 44.15234375 171.97265625 C43.15138672 171.98490234 42.15042969 171.99714844 41.11914062 172.00976562 C39.08779406 172.04343435 37.05651877 172.08199858 35.02539062 172.12695312 C27.283376 172.20926347 19.68739055 171.68882713 11.9765625 171.0390625 C-1.28243335 169.9407994 -14.50787361 169.55556484 -27.80786133 169.36694336 C-31.59157038 169.31207847 -35.3747822 169.24176669 -39.15820312 169.16992188 C-59.3826875 168.31022973 -59.3826875 168.31022973 -79.40454102 170.53466797 C-83.12088261 171.20095967 -86.80246858 171.08201384 -90.5625 171.02734375 C-92.26432077 171.01468238 -93.96614381 171.00232256 -95.66796875 170.99023438 C-98.3225022 170.96560569 -100.97691385 170.93779345 -103.63134766 170.90405273 C-113.98121801 170.78095538 -123.81384493 170.92861377 -134 173 C-134 172.34 -134 171.68 -134 171 C-135.98 170.67 -137.96 170.34 -140 170 C-141.28410107 163.57949467 -140.88744257 158.93988186 -138 153 C-136 150.75 -136 150.75 -134 149 C-133.608125 148.236875 -133.21625 147.47375 -132.8125 146.6875 C-130.46539351 143.20730761 -127.49970568 141.25554692 -124.1484375 138.77734375 C-122.16744584 137.13852338 -120.99510896 135.80609175 -119.6875 133.625 C-118 131 -118 131 -115.8125 130.3125 C-115.214375 130.209375 -114.61625 130.10625 -114 130 C-113.67 129.01 -113.34 128.02 -113 127 C-112.34 127 -111.68 127 -111 127 C-111 126.01 -111 125.02 -111 124 C-110.01 124 -109.02 124 -108 124 C-108 123.34 -108 122.68 -108 122 C-107.34 122 -106.68 122 -106 122 C-106 121.34 -106 120.68 -106 120 C-105.1028125 119.62875 -105.1028125 119.62875 -104.1875 119.25 C-101.86706787 118.12019611 -101.86706787 118.12019611 -100.4375 115.875 C-99.963125 115.25625 -99.48875 114.6375 -99 114 C-98.01 114 -97.02 114 -96 114 C-95.91234375 113.41089844 -95.8246875 112.82179688 -95.734375 112.21484375 C-94.80267808 109.40488548 -93.53211708 108.4199374 -91.25 106.5625 C-87.36152915 103.31399216 -83.76718635 99.89808905 -80.3125 96.1875 C-79 95 -79 95 -77 95 C-77 93.35 -77 91.7 -77 90 C-77.928125 89.62875 -77.928125 89.62875 -78.875 89.25 C-81.39578467 87.76718549 -81.7852998 86.59136042 -83 84 C-83.99 83.34 -84.98 82.68 -86 82 C-86 81.34 -86 80.68 -86 80 C-86.66 80 -87.32 80 -88 80 C-89.71230248 78.38025441 -91.37163262 76.7041054 -93 75 C-93.825 74.195625 -94.65 73.39125 -95.5 72.5625 C-98.16708012 69.82874288 -100.55564538 66.93322554 -103 64 C-105.59607453 61.27079345 -108.22311306 58.80963157 -111.1875 56.5 C-114.062994 53.94400533 -114.65438926 52.46014191 -116 49 C-117.32488113 48.63451555 -118.66018514 48.3062434 -120 48 C-122.61803346 45.64376988 -124.83367367 43.21310561 -127 40.4375 C-128.96023318 37.87438268 -128.96023318 37.87438268 -131.75 35.8125 C-132.4925 35.214375 -133.235 34.61625 -134 34 C-134 33.34 -134 32.68 -134 32 C-134.66 32 -135.32 32 -136 32 C-136 31.01 -136 30.02 -136 29 C-136.66 29 -137.32 29 -138 29 C-139.88773529 25.22452942 -141.01764214 22.9350336 -140.9375 18.6875 C-140 16 -140 16 -138.46069336 14.84643555 C-134.89820833 13.6210029 -131.41328731 13.73493402 -127.69140625 13.76953125 C-126.88767075 13.76998947 -126.08393524 13.77044769 -125.25584412 13.7709198 C-123.55881267 13.77393582 -121.86178384 13.78180267 -120.16479492 13.79418945 C-117.57525758 13.81241023 -114.98607907 13.81469921 -112.39648438 13.81445312 C-110.74478859 13.81937029 -109.09309522 13.82519947 -107.44140625 13.83203125 C-106.67043106 13.83314407 -105.89945587 13.8342569 -105.1051178 13.83540344 C-101.27182791 13.86902065 -97.7337065 14.1387657 -94 15 C-90.99647139 15.12780973 -88.3167306 15.05907033 -85.35961914 14.50756836 C-81.28005703 13.89123164 -77.3031932 13.80729361 -73.18359375 13.75390625 C-71.44205092 13.72235502 -69.70051464 13.69044057 -67.95898438 13.65820312 C-67.05623779 13.64281494 -66.15349121 13.62742676 -65.22338867 13.61157227 C-50.80054836 13.35751996 -36.5360399 12.8828462 -22.19677734 11.23193359 C-18.24294257 10.8144916 -14.28026348 10.55651578 -10.3125 10.3125 C-9.59771484 10.26416016 -8.88292969 10.21582031 -8.14648438 10.16601562 C-3.24158441 9.8792078 -3.24158441 9.8792078 -1 11 C-0.67 7.37 -0.34 3.74 0 0 Z " fill="#F0E6D0" transform="translate(156,711)"/>
<path d="M0 0 C0.33 0 0.66 0 1 0 C1.495 5.445 1.495 5.445 2 11 C2.86028809 10.82871582 3.72057617 10.65743164 4.60693359 10.48095703 C7.98844713 10.00163759 10.89071584 10.04098279 14.2890625 10.3046875 C16.07376953 10.43810547 16.07376953 10.43810547 17.89453125 10.57421875 C19.74111328 10.72310547 19.74111328 10.72310547 21.625 10.875 C22.83285156 10.96652344 24.04070312 11.05804687 25.28515625 11.15234375 C34.55754532 11.86099781 34.55754532 11.86099781 38.86791992 12.27636719 C49.47737851 13.2801285 60.1220458 13.34678954 70.77026367 13.55224609 C73.37949162 13.60389521 75.98855543 13.66108439 78.59765625 13.71875 C79.79757957 13.73911316 79.79757957 13.73911316 81.02174377 13.7598877 C84.25398035 13.83272584 86.91310014 13.97103338 90 15 C93.68382769 15.13156527 96.49053585 15.16982138 100 14 C102.75725689 13.89097044 105.4884756 13.835959 108.24609375 13.83203125 C109.05361588 13.82870285 109.861138 13.82537445 110.69313049 13.82194519 C112.40031363 13.81688487 114.10750664 13.81453659 115.81469727 13.81469727 C118.42415685 13.81251118 121.03319335 13.79434738 123.64257812 13.77539062 C125.30208189 13.77245643 126.96158766 13.77047181 128.62109375 13.76953125 C129.40036728 13.76234573 130.17964081 13.75516022 130.98252869 13.74775696 C138.042756 13.77748085 138.042756 13.77748085 141 16 C142.33141623 19.81672652 142.10692987 22.24926703 140.5625 25.875 C140.046875 26.90625 139.53125 27.9375 139 29 C138.34 29 137.68 29 137 29 C137 29.99 137 30.98 137 32 C136.34 32 135.68 32 135 32 C134.6596875 32.86625 134.6596875 32.86625 134.3125 33.75 C132.65273655 36.59530878 130.57933333 37.93653334 128 40 C126.20028704 42.06200297 124.46015335 44.15930102 122.74609375 46.29296875 C120.79535848 48.20006341 119.60190925 48.43533033 117 49 C116.5978125 50.0828125 116.5978125 50.0828125 116.1875 51.1875 C114.72045897 54.66207086 112.81844245 56.0010537 109.93359375 58.328125 C107.20562929 60.68684982 104.95816127 63.37933111 102.62109375 66.1171875 C99.59421942 69.63273793 96.33611985 72.7572738 92.75 75.6875 C89.98257806 77.7042322 89.98257806 77.7042322 89 80 C88.34 80 87.68 80 87 80 C86.67 80.99 86.34 81.98 86 83 C84.68799596 84.35432675 83.35368596 85.68733482 82 87 C81.34 87.99 80.68 88.98 80 90 C79.34 90 78.68 90 78 90 C78 91.65 78 93.3 78 95 C78.556875 95.2475 79.11375 95.495 79.6875 95.75 C83.41377894 97.76420483 86.2991384 100.11827089 88.9375 103.4375 C90.66469162 105.58340474 92.11562467 106.96048716 94.25 108.625 C95.1575 109.40875 96.065 110.1925 97 111 C97 111.99 97 112.98 97 114 C97.598125 114.0825 98.19625 114.165 98.8125 114.25 C101.61073143 115.20939363 102.30410593 116.64049521 104 119 C104.99 119.33 105.98 119.66 107 120 C107 120.66 107 121.32 107 122 C107.66 122 108.32 122 109 122 C109 122.66 109 123.32 109 124 C109.99 124 110.98 124 112 124 C112 124.99 112 125.98 112 127 C112.99 127.33 113.98 127.66 115 128 C115 128.66 115 129.32 115 130 C115.61359375 130.09925781 116.2271875 130.19851563 116.859375 130.30078125 C119.92844703 131.30327011 120.80507027 133.51186597 122.515625 136.109375 C124.15378649 138.19587542 125.81604414 139.44321441 128 140.9375 C131.7737762 143.57202301 133.80405035 146.34659592 135.9921875 150.36328125 C136.90887178 152.17407614 136.90887178 152.17407614 139 153 C141.17292144 158.61896425 142.76085911 164.07711026 141 170 C139.02 170.33 137.04 170.66 135 171 C135 171.66 135 172.32 135 173 C133.82014526 172.78452515 133.82014526 172.78452515 132.61645508 172.56469727 C122.24127896 170.85816096 112.17218903 170.79808406 101.6875 170.9375 C99.16364695 170.96537315 96.63985977 170.99005261 94.11592102 171.00868225 C92.56198186 171.02068159 91.0080698 171.03801222 89.45426941 171.06199646 C84.23325662 171.10969121 79.17664903 170.65228925 74 170 C61.35956955 168.60464132 48.71203033 168.9987037 36.01904297 169.24194336 C32.30054653 169.31155377 28.58203994 169.36641633 24.86328125 169.41992188 C11.80285228 169.63732301 -1.15078364 170.21728589 -14.16720581 171.31463623 C-22.10213741 171.97298726 -29.90989695 172.22355907 -37.875 172.0625 C-40.12233213 172.02810206 -42.36973451 171.99795341 -44.6171875 171.97265625 C-45.56190918 171.95468994 -46.50663086 171.93672363 -47.47998047 171.91821289 C-49.83200072 171.99454759 -51.74718027 172.36401025 -54 173 C-55.49701785 173.11333058 -56.9987535 173.17464686 -58.5 173.1875 C-59.62921875 173.20876953 -59.62921875 173.20876953 -60.78125 173.23046875 C-63.34918537 172.96372898 -64.85586972 172.4400197 -67 171 C-69.77535802 167.12805835 -69.35067793 162.64590322 -69.4140625 158.078125 C-69.43342865 157.21813904 -69.4527948 156.35815308 -69.4727478 155.47210693 C-69.53241814 152.73150479 -69.5788786 149.99086036 -69.625 147.25 C-69.66319134 145.38930483 -69.70224375 143.52862712 -69.7421875 141.66796875 C-69.83810935 137.11212136 -69.92218668 132.55619121 -70 128 C-55.77416284 126.33114317 -42.12359449 126.26629806 -28.08984375 129.34375 C-25.03737047 130.10387761 -25.03737047 130.10387761 -22 130 C-22 129.34 -22 128.68 -22 128 C-17.25 128.875 -17.25 128.875 -15 130 C-14.67 129.01 -14.34 128.02 -14 127 C-13.67 127.66 -13.34 128.32 -13 129 C-9.37 129 -5.74 129 -2 129 C-1.67 128.01 -1.34 127.02 -1 126 C-0.34 125.67 0.32 125.34 1 125 C0.99777939 124.44084396 0.99555878 123.88168793 0.99327087 123.30558777 C0.97080984 117.38236137 0.95592716 111.45914743 0.94506836 105.53588867 C0.94009966 103.33764147 0.93332241 101.13939746 0.92456055 98.94116211 C0.87980079 87.40630905 0.94729597 75.92604681 1.64524841 64.41009521 C2.03469841 57.91286034 2.08592065 51.4459893 2 44.9375 C1.97460317 42.88416596 1.95353197 40.83077227 1.9375 38.77734375 C1.92589844 37.90327881 1.91429687 37.02921387 1.90234375 36.12866211 C2 34 2 34 3 32 C2.34 31.67 1.68 31.34 1 31 C1.01160156 29.86820313 1.02320313 28.73640625 1.03515625 27.5703125 C1.04453454 26.08854331 1.0536347 24.60677235 1.0625 23.125 C1.07506836 22.00544922 1.07506836 22.00544922 1.08789062 20.86328125 C1.20688084 16.80154422 1.20688084 16.80154422 0 13 C-0.07092842 10.7927077 -0.08415025 8.58332548 -0.0625 6.375 C-0.05347656 5.18648437 -0.04445313 3.99796875 -0.03515625 2.7734375 C-0.02355469 1.85820313 -0.01195312 0.94296875 0 0 Z " fill="#F0E6D0" transform="translate(694,711)"/>
<path d="M0 0 C2.90400591 0.76609945 2.90400591 0.76609945 5.9140625 0.65625 C5.9140625 -0.00375 5.9140625 -0.66375 5.9140625 -1.34375 C10.6640625 -0.46875 10.6640625 -0.46875 12.9140625 0.65625 C13.2440625 -0.33375 13.5740625 -1.32375 13.9140625 -2.34375 C14.4090625 -1.35375 14.4090625 -1.35375 14.9140625 -0.34375 C18.2140625 -0.34375 21.5140625 -0.34375 24.9140625 -0.34375 C21.3151111 3.47331966 17.52914623 7.08623892 12.9140625 9.65625 C11.9240625 9.65625 10.9340625 9.65625 9.9140625 9.65625 C9.9140625 10.31625 9.9140625 10.97625 9.9140625 11.65625 C8.8621875 12.213125 7.8103125 12.77 6.7265625 13.34375 C3.22486763 15.33062717 0.72697193 17.76931664 -2.0859375 20.65625 C-3.73665146 21.68236949 -5.40563756 22.67933143 -7.0859375 23.65625 C-8.42872758 24.64351521 -9.76130268 25.64475587 -11.0859375 26.65625 C-13.24360041 28.30172004 -15.30308246 29.78335924 -17.6484375 31.15625 C-21.64556661 33.61602176 -26.04152048 36.48402145 -28.11328125 40.79296875 C-28.59474609 41.71529297 -28.59474609 41.71529297 -29.0859375 42.65625 C-32.19016248 43.60101412 -34.21442271 43.92254619 -37.3359375 42.96875 C-39.5834633 41.28310565 -40.09991647 40.31960995 -41.0859375 37.65625 C-41.42137404 34.68579578 -41.45854782 31.72160609 -41.5 28.734375 C-41.51936615 27.87438904 -41.5387323 27.01440308 -41.5586853 26.12835693 C-41.61835564 23.38775479 -41.6648161 20.64711036 -41.7109375 17.90625 C-41.74912884 16.04555483 -41.78818125 14.18487712 -41.828125 12.32421875 C-41.92404685 7.76837136 -42.00812418 3.21244121 -42.0859375 -1.34375 C-28.98829241 -4.82353675 -13.07481616 -2.97280031 0 0 Z " fill="#A59676" transform="translate(666.0859375,840.34375)"/>
<path d="M0 0 C0.66 0.33 1.32 0.66 2 1 C2 1.66 2 2.32 2 3 C2.99 2.34 3.98 1.68 5 1 C6.32 1 7.64 1 9 1 C9 1.66 9 2.32 9 3 C10.47978969 2.88260541 11.95881184 2.75553868 13.4375 2.625 C14.67306641 2.52058594 14.67306641 2.52058594 15.93359375 2.4140625 C18.41373135 2.07916494 20.63462414 1.59063911 23.046875 0.97265625 C28.94745728 -0.37836853 34.78737605 -0.25464214 40.8125 -0.1875 C42.48989258 -0.1865332 42.48989258 -0.1865332 44.20117188 -0.18554688 C52.7359093 -0.13946851 52.7359093 -0.13946851 57 1 C56.93103982 6.46309388 56.84303246 11.92542848 56.73754883 17.38793945 C56.70434451 19.2452755 56.67629859 21.10271137 56.65356445 22.96020508 C56.61993558 25.63405798 56.56761626 28.30699993 56.51171875 30.98046875 C56.50532883 31.80773972 56.4989389 32.63501068 56.49235535 33.48735046 C56.37520295 38.10636141 56.02435986 41.26762657 53 45 C49.84349497 46.24598883 48.41498485 46.13832828 45.1875 45.0625 C44.465625 44.711875 43.74375 44.36125 43 44 C43 42.68 43 41.36 43 40 C42.46375 39.773125 41.9275 39.54625 41.375 39.3125 C38.8777851 37.93246019 36.92663161 36.21880979 34.77734375 34.359375 C32.74238205 32.80296473 30.63585069 31.64031712 28.375 30.4375 C24.98740778 28.63078415 22.67619627 26.76540282 20 24 C18.78782072 23.2629734 17.55687413 22.55626341 16.3125 21.875 C13 20 13 20 12 18 C10.34948712 16.88365848 10.34948712 16.88365848 8.4375 15.875 C7.303125 15.25625 6.16875 14.6375 5 14 C5 13.34 5 12.68 5 12 C4.45859375 11.9175 3.9171875 11.835 3.359375 11.75 C0.17055514 10.73633541 -2.0671477 8.987298 -4.75 7 C-5.73484375 6.278125 -6.7196875 5.55625 -7.734375 4.8125 C-8.48203125 4.214375 -9.2296875 3.61625 -10 3 C-10 2.67 -10 2.34 -10 2 C-6.7 2 -3.4 2 0 2 C0 1.34 0 0.68 0 0 Z " fill="#A59676" transform="translate(170,838)"/>
</svg>
