<?xml version="1.0" encoding="UTF-8"?>
<svg version="1.1" xmlns="http://www.w3.org/2000/svg" width="1920" height="1080">
<path d="M0 0 C0.99 0.33 1.98 0.66 3 1 C5.56571938 1.07312346 8.10330766 1.09185499 10.66796875 1.0625 C11.42161209 1.05871338 12.17525543 1.05492676 12.95173645 1.05102539 C16.170448 1.03472843 19.38903164 1.006766 22.60766602 0.97949219 C24.96109413 0.96125414 27.31450065 0.94925023 29.66796875 0.9375 C30.38284958 0.92920166 31.09773041 0.92090332 31.83427429 0.91235352 C35.37376937 0.89541974 38.77665554 1.05325999 42.28637695 1.53125 C46.13823226 2.01744829 49.19375264 1.65877358 53 1 C54.32 1 55.64 1 57 1 C57 1.66 57 2.32 57 3 C57.66 2.67 58.32 2.34 59 2 C62.0182185 1.9004694 65.01283918 1.86022066 68.03125 1.8671875 C68.93693726 1.86623077 69.84262451 1.86527405 70.77575684 1.86428833 C72.69913807 1.86360663 74.6225216 1.8654602 76.54589844 1.86962891 C79.46034071 1.87492789 82.37462536 1.86970943 85.2890625 1.86328125 C87.16145867 1.863943 89.03385474 1.86522616 90.90625 1.8671875 C91.76706177 1.86516327 92.62787354 1.86313904 93.51477051 1.86105347 C98.68691735 1.88060991 103.74921622 2.1987589 108.88926697 2.77981567 C111.29486141 3.03075892 113.64571802 3.06819843 116.0625 3 C119.11898744 2.91405308 121.87068204 3.11357901 124.92089844 3.51147461 C130.62227006 4.15624298 136.25278474 4.02376781 141.98046875 3.87890625 C143.67614738 3.84348976 143.67614738 3.84348976 145.40608215 3.80735779 C149.00003481 3.73130521 152.59374301 3.647255 156.1875 3.5625 C165.12476632 3.36346388 174.06216498 3.17175625 183 3 C183.80594604 2.98386658 184.61189209 2.96773315 185.44226074 2.95111084 C187.40797546 2.91524256 189.37391764 2.89243456 191.33984375 2.87109375 C192.33491943 2.85876709 193.32999512 2.84644043 194.35522461 2.83374023 C198.59936354 3.10054155 202.08694256 4.38080382 206 6 C206.33 5.67 206.66 5.34 207 5 C208.98665692 5.26488759 210.97307726 5.53198099 212.95703125 5.81640625 C215.08214147 6.11418927 215.08214147 6.11418927 217.4375 5.4375 C221.43187139 4.75553415 225.15438044 5.83995774 229 7 C229.33 7.33 229.66 7.66 230 8 C230.5259375 7.2265625 230.5259375 7.2265625 231.0625 6.4375 C233 5 233 5 236.3125 5.3125 C237.529375 5.539375 238.74625 5.76625 240 6 C241.03125 5.979375 242.0625 5.95875 243.125 5.9375 C246.91325985 6.01985347 249.57709151 7.207494 252.8515625 9.03125 C255.22547808 10.10167012 257.16398844 10.39682251 259.75 10.625 C260.54921875 10.69976562 261.3484375 10.77453125 262.171875 10.8515625 C262.77515625 10.90054687 263.3784375 10.94953125 264 11 C264 11.99 264 12.98 264 14 C265.32 14.33 266.64 14.66 268 15 C268.33 14.34 268.66 13.68 269 13 C272.91841827 14.30613942 275.32640809 15.83129848 278 19 C278 19.66 278 20.32 278 21 C279.98 20.67 281.96 20.34 284 20 C284.33 20.99 284.66 21.98 285 23 C285.99 23 286.98 23 288 23 C288 23.99 288 24.98 288 26 C289.32 25.34 290.64 24.68 292 24 C292.33 25.32 292.66 26.64 293 28 C294.65 27.67 296.3 27.34 298 27 C298.33 28.65 298.66 30.3 299 32 C300.485 31.01 300.485 31.01 302 30 C302.66 31.32 303.32 32.64 304 34 C305.32 33.67 306.64 33.34 308 33 C308.33 34.32 308.66 35.64 309 37 C310.32 37.33 311.64 37.66 313 38 C313.061875 38.928125 313.061875 38.928125 313.125 39.875 C313.41375 40.57625 313.7025 41.2775 314 42 C314.928125 42.28875 315.85625 42.5775 316.8125 42.875 C320.94794044 44.33456721 321.97895222 46.19110226 324 50 C324 50.99 324 51.98 324 53 C324.66 53 325.32 53 326 53 C326 54.65 326 56.3 326 58 C326.66 58 327.32 58 328 58 C328.33 59.65 328.66 61.3 329 63 C329.99 63 330.98 63 332 63 C332.12117188 63.58007812 332.24234375 64.16015625 332.3671875 64.7578125 C333.13217027 68.32380909 333.90922638 71.74280807 335.125 75.1875 C336.0811033 78.26068919 336.1523511 80.80062691 336 84 C336.66 84.33 337.32 84.66 338 85 C337.67 86.65 337.34 88.3 337 90 C337.66 90.33 338.32 90.66 339 91 C339.125 98.75 339.125 98.75 338 101 C338.54847602 103.32577091 338.54847602 103.32577091 339.4375 105.875 C340.7392392 109.786055 341.07252315 112.89279956 340.9296875 117.04296875 C340.80520864 121.92431846 341.38249848 126.14203933 342.55859375 130.87109375 C343.19115726 133.92195316 343.05858824 136.89482311 343 140 C343.185625 141.010625 343.37125 142.02125 343.5625 143.0625 C344.04443239 146.29833177 343.68182478 148.81815102 343 152 C343.99 152.33 344.98 152.66 346 153 C346 153.99 346 154.98 346 156 C345.34 156 344.68 156 344 156 C344.01160156 156.69867187 344.02320313 157.39734375 344.03515625 158.1171875 C344.04417969 159.02726563 344.05320312 159.93734375 344.0625 160.875 C344.07410156 161.77992188 344.08570313 162.68484375 344.09765625 163.6171875 C344 166 344 166 343 168 C343.66 168 344.32 168 345 168 C344.5359375 169.175625 344.5359375 169.175625 344.0625 170.375 C342.73664193 174.89851578 342.35188915 179.31431814 342 184 C342.804375 184.309375 343.60875 184.61875 344.4375 184.9375 C347 186 347 186 348 187 C348.29386153 190.72224599 348.14809171 191.77786243 346 195 C345.34 195 344.68 195 344 195 C342.08257922 198.94763102 342.13992929 200.79520987 343 205 C342.78978202 210.57077642 341.63832988 215.67542789 340 221 C339.25422714 223.84749636 338.88211809 225.50227639 339.5625 228.375 C340.1675317 232.00519019 339.10718963 234.50361168 338 238 C337.67409413 239.43452008 337.36222776 240.87228273 337.0625 242.3125 C336.34191188 245.66380664 335.45041882 248.91272361 334.4375 252.1875 C333.3291206 255.77573835 332.49125242 259.26648162 332 263 C331.01 263 330.02 263 329 263 C329.12568359 263.93972656 329.12568359 263.93972656 329.25390625 264.8984375 C329.35574219 265.71570313 329.45757813 266.53296875 329.5625 267.375 C329.66691406 268.18710937 329.77132813 268.99921875 329.87890625 269.8359375 C330 272 330 272 329 274 C328.01 274 327.02 274 326 274 C326.309375 274.86625 326.309375 274.86625 326.625 275.75 C327.08661261 278.51967567 326.42944945 279.64561267 325 282 C324.34 282 323.68 282 323 282 C323.33 282.99 323.66 283.98 324 285 C323.01 285.66 322.02 286.32 321 287 C320.67 287.99 320.34 288.98 320 290 C319.01 290 318.02 290 317 290 C316.773125 290.70125 316.54625 291.4025 316.3125 292.125 C314.66158712 295.74128535 312.7091165 298.08769976 310 301 C309.34 301 308.68 301 308 301 C307.67 301.99 307.34 302.98 307 304 C304.4375 305.1875 304.4375 305.1875 302 306 C302 306.66 302 307.32 302 308 C300.35 308.33 298.7 308.66 297 309 C297 309.66 297 310.32 297 311 C296.01 311 295.02 311 294 311 C293.938125 311.61875 293.87625 312.2375 293.8125 312.875 C293 315 293 315 290.625 316.1875 C289.325625 316.5896875 289.325625 316.5896875 288 317 C287.01 317.33 286.02 317.66 285 318 C284.67 318.99 284.34 319.98 284 321 C281.36 321 278.72 321 276 321 C275.67 321.99 275.34 322.98 275 324 C271.4394718 327.17904303 267.46596693 328.51134436 263 330 C263 329.34 263 328.68 263 328 C262.01 328 261.02 328 260 328 C259.690625 328.9590625 259.690625 328.9590625 259.375 329.9375 C258 332 258 332 254.9375 332.75 C252 333 252 333 251 333 C250.67 333.66 250.34 334.32 250 335 C247.49609375 335.4140625 247.49609375 335.4140625 244.4375 335.625 C243.42558594 335.69976563 242.41367188 335.77453125 241.37109375 335.8515625 C240.58863281 335.90054687 239.80617188 335.94953125 239 336 C239 336.66 239 337.32 239 338 C238.34773438 337.96519531 237.69546875 337.93039062 237.0234375 337.89453125 C231.45972652 337.72220392 227.89576543 338.06254074 223 341 C222.34 341 221.68 341 221 341 C221 340.34 221 339.68 221 339 C220.32453125 339.22816406 219.6490625 339.45632813 218.953125 339.69140625 C218.06109375 339.97886719 217.1690625 340.26632812 216.25 340.5625 C215.36828125 340.85253906 214.4865625 341.14257812 213.578125 341.44140625 C210.88062106 342.02586544 209.58911303 341.75984839 207 341 C206.34 341.33 205.68 341.66 205 342 C203.38020607 341.96625429 201.760413 341.93246666 200.140625 341.8984375 C196.7526989 342.05917852 193.52647825 342.87802613 190.234375 343.66015625 C188 344 188 344 185 343 C184.34 342.855625 183.68 342.71125 183 342.5625 C181 342 181 342 178 340 C178 340.99 178 341.98 178 343 C176.86111328 342.96519531 176.86111328 342.96519531 175.69921875 342.9296875 C174.70535156 342.91164063 173.71148438 342.89359375 172.6875 342.875 C171.20830078 342.84019531 171.20830078 342.84019531 169.69921875 342.8046875 C166.77593473 342.79317361 166.77593473 342.79317361 164 345 C158.12985496 346.32908944 154.32361436 345.66180718 149 343 C149 343.99 149 344.98 149 346 C147.35 345.67 145.7 345.34 144 345 C144 345.66 144 346.32 144 347 C143.01 347 142.02 347 141 347 C141 346.01 141 345.02 141 344 C139.9171875 344.5259375 139.9171875 344.5259375 138.8125 345.0625 C135.62731135 346.12422955 134.16473738 345.99939075 131 345 C130.01 344.34 129.02 343.68 128 343 C127.67 343.99 127.34 344.98 127 346 C121.25 347.125 121.25 347.125 119 346 C117.68 346 116.36 346 115 346 C115 345.01 115 344.02 115 343 C110.92035719 344.30155006 110.92035719 344.30155006 107 346 C104.65976685 345.71917202 102.32694964 345.37531446 100 345 C94.78372411 344.08786336 94.78372411 344.08786336 89.5625 344.5625 C86.23028833 345.13141419 83.72938584 344.3538375 80.48046875 343.54296875 C77.06158683 342.79458357 73.64880361 342.51712917 70.1640625 342.24609375 C68 342 68 342 65 341 C64.67 341.33 64.34 341.66 64 342 C62.48530552 342.23192865 60.96245438 342.41215238 59.4375 342.5625 C58.61121094 342.64628906 57.78492188 342.73007812 56.93359375 342.81640625 C56.29550781 342.87699219 55.65742187 342.93757813 55 343 C54.67 342.01 54.34 341.02 54 340 C47.8917901 339.70738858 47.8917901 339.70738858 42 341 C41.67 341.66 41.34 342.32 41 343 C38.33503105 342.46700621 36.39079449 341.68918086 33.9375 340.4375 C29.13995239 338.27965107 24.15209164 338.74845122 19 339 C19 338.34 19 337.68 19 337 C12.80553661 336.65083401 7.85600323 337.10429458 2.03125 339.2578125 C-1.93801153 340.7081196 -4.82228757 341.38403666 -8.875 340.0625 C-9.57625 339.711875 -10.2775 339.36125 -11 339 C-11.66 339.66 -12.32 340.32 -13 341 C-14.92358398 341.13525391 -14.92358398 341.13525391 -17.24609375 340.9765625 C-18.08333984 340.925 -18.92058594 340.8734375 -19.78320312 340.8203125 C-21.09708008 340.72363281 -21.09708008 340.72363281 -22.4375 340.625 C-24.16533858 340.51262026 -25.89320222 340.40062506 -27.62109375 340.2890625 C-28.3886499 340.23443848 -29.15620605 340.17981445 -29.94702148 340.12353516 C-31.62880893 340.02233591 -33.31517054 340 -35 340 C-35.99 339.34 -36.98 338.68 -38 338 C-38 337.34 -38 336.68 -38 336 C-38.54269531 336.20496094 -39.08539062 336.40992188 -39.64453125 336.62109375 C-40.35996094 336.89050781 -41.07539062 337.15992188 -41.8125 337.4375 C-42.52019531 337.70433594 -43.22789063 337.97117187 -43.95703125 338.24609375 C-45.62672396 338.86225186 -47.31157704 339.43719235 -49 340 C-49.33 340.99 -49.66 341.98 -50 343 C-51.9375 342.6875 -51.9375 342.6875 -54 342 C-54.33 341.01 -54.66 340.02 -55 339 C-55.66 339 -56.32 339 -57 339 C-57.66 340.32 -58.32 341.64 -59 343 C-61.46800047 341.84826645 -63.04783565 340.95216435 -65 339 C-65.680625 339.144375 -66.36125 339.28875 -67.0625 339.4375 C-71.15634529 340.22142782 -74.90275495 339.58021989 -79 339 C-79.33 339.66 -79.66 340.32 -80 341 C-83.73487777 340.5020163 -85.81237635 340.12508244 -89 338 C-91.33199388 337.92094936 -93.66832622 337.91201231 -96 338 C-96.33 338.99 -96.66 339.98 -97 341 C-101.12560419 342.3752014 -104.13211765 341.28416487 -108.30859375 340.375 C-110.98944538 340.0014706 -112.44391295 340.30535214 -115 341 C-115.99 340.67 -116.98 340.34 -118 340 C-118.5775 340.165 -119.155 340.33 -119.75 340.5 C-122.26501559 341.05889235 -124.15385098 340.68531577 -126.6640625 340.2578125 C-132.07280088 339.66086144 -137.56581956 339.93855826 -143 340 C-178 340 -178 340 -180.0625 339.4375 C-182.0674281 338.76986497 -182.0674281 338.76986497 -184 340 C-186.33333333 340 -188.66666667 340 -191 340 C-192.33552575 340.19378217 -193.66899056 340.40230192 -195 340.625 C-199.05043321 341.20475253 -202.09129394 340.17998674 -206 339 C-207.66904909 339.32119158 -209.33538182 339.65658307 -211 340 C-214.51363517 340.06575224 -218.0138448 339.99867082 -221.52734375 339.9375 C-224.94029046 339.90262068 -224.94029046 339.90262068 -228.00390625 340.5625 C-231.55827718 341.08152157 -234.45935534 340.55600091 -238 340 C-240.43713544 339.95784414 -242.87534783 339.95882319 -245.3125 340 C-250.60914466 340.04710455 -255.68823237 339.79678345 -260.9375 339.140625 C-263.18572711 338.8889461 -263.18572711 338.8889461 -266.0625 339.6875 C-270.60692218 340.17094917 -274.02660471 338.05733578 -278 336 C-277.67 336.99 -277.34 337.98 -277 339 C-278.32 339.66 -279.64 340.32 -281 341 C-281.99 339.68 -282.98 338.36 -284 337 C-286.51733351 337.41955558 -288.60154145 337.76934714 -290.82495117 339.05639648 C-293.6371687 340.27642351 -295.5111903 340.03706197 -298.55078125 339.72265625 C-299.63528564 339.62057861 -300.71979004 339.51850098 -301.8371582 339.41333008 C-303.55745239 339.23966919 -303.55745239 339.23966919 -305.3125 339.0625 C-315.87096904 338.11508513 -326.14360458 337.39593715 -336.62109375 339.53515625 C-341.81593133 340.55023945 -347.04867294 340.17814609 -352.25 339.375 C-357.16650959 338.75405675 -361.5903063 339.66784273 -366.4375 340.51953125 C-372.62093583 341.35348148 -378.77077517 341.14050883 -385 341 C-388.09477914 341 -391.10446346 341.23479256 -394.1875 341.5 C-395.27417969 341.5928125 -396.36085938 341.685625 -397.48046875 341.78125 C-398.31191406 341.8534375 -399.14335938 341.925625 -400 342 C-400 341.34 -400 340.68 -400 340 C-400.99 340.33 -401.98 340.66 -403 341 C-408.7574015 342.64330691 -414.17649179 342.27833107 -420 341 C-425.29576012 340.17994759 -429.70307862 339.96364582 -435 341 C-440.11887586 341.18958799 -444.9519841 340.78331281 -450 340 C-450.33 339.67 -450.66 339.34 -451 339 C-453.67732997 338.89840489 -456.32278476 338.85952965 -459 338.875 C-460.16378174 338.87681274 -460.16378174 338.87681274 -461.35107422 338.87866211 C-465.31639134 338.90568513 -469.18891658 339.03448881 -473.125 339.5625 C-477.05690291 340.00642452 -480.11315423 339.62467164 -484 339 C-486.36478524 338.96482138 -488.71801363 338.99739797 -491.08203125 339.0625 C-493 339 -493 339 -495 338 C-495 338.66 -495 339.32 -495 340 C-500.55555556 339.24242424 -500.55555556 339.24242424 -503.0625 337.875 C-505.70195376 336.68298863 -507.26901021 337.20945032 -510 338 C-510.99 338.495 -510.99 338.495 -512 339 C-517.15445016 339.17472712 -521.91940468 338.84676589 -527 338 C-527 338.66 -527 339.32 -527 340 C-528.093125 339.814375 -529.18625 339.62875 -530.3125 339.4375 C-533.93624133 338.7421932 -533.93624133 338.7421932 -537 340 C-537.66 339.67 -538.32 339.34 -539 339 C-539 338.34 -539 337.68 -539 337 C-540.175625 337.515625 -541.35125 338.03125 -542.5625 338.5625 C-546.77460777 340.13649817 -549.55800111 339.93515766 -554 339 C-559.4918671 338.09891645 -562.80447276 337.86850164 -568 340 C-569.87037687 339.80311822 -571.74148652 339.59579874 -573.59765625 339.29296875 C-578.37118649 338.71083092 -583.1988637 338.92798296 -588 339 C-588.33 338.01 -588.66 337.02 -589 336 C-590.37523135 336.14363527 -591.75017402 336.29003517 -593.125 336.4375 C-593.95128906 336.52515625 -594.77757812 336.6128125 -595.62890625 336.703125 C-598.13047086 336.97775438 -598.13047086 336.97775438 -601.0625 337.6875 C-605.10335505 338.1173782 -608.10986128 337.14021307 -612 336 C-612.33 336.99 -612.66 337.98 -613 339 C-617.40702782 340.25915081 -617.40702782 340.25915081 -620.109375 339.078125 C-624.07323984 337.59971054 -627.8634928 337.38256622 -632.0625 337.125 C-632.86494141 337.0528125 -633.66738281 336.980625 -634.49414062 336.90625 C-639.34484473 336.52446951 -639.34484473 336.52446951 -643.3984375 338.96875 C-643.92695312 339.6390625 -644.45546875 340.309375 -645 341 C-648.76905843 341.55156953 -649.75173326 341.16551116 -653 339 C-655.8595077 338.57354771 -655.8595077 338.57354771 -659.0625 338.4375 C-664.02938306 338.1326132 -668.94148126 337.70207485 -673.87890625 337.0859375 C-676.13444635 336.99455282 -677.83332326 337.41190203 -680 338 C-681.010625 337.979375 -682.02125 337.95875 -683.0625 337.9375 C-686.19333909 337.74114932 -686.19333909 337.74114932 -689 340 C-689.556875 339.649375 -690.11375 339.29875 -690.6875 338.9375 C-693.58255019 337.763831 -694.9931093 338.33995082 -698 339 C-699.67225729 338.69595322 -701.34080104 338.36871088 -703 338 C-703.33 338.33 -703.66 338.66 -704 339 C-706.1813356 339.17110736 -708.36798304 339.27523225 -710.5546875 339.3515625 C-711.54071457 339.38629166 -711.54071457 339.38629166 -712.54666138 339.42172241 C-713.94036986 339.46942371 -715.33416487 339.51465018 -716.72802734 339.55761719 C-718.85938617 339.62450996 -720.99014986 339.70234442 -723.12109375 339.78125 C-724.47393643 339.82618516 -725.82680066 339.87047699 -727.1796875 339.9140625 C-729.03182861 339.9752124 -729.03182861 339.9752124 -730.92138672 340.03759766 C-734 340 -734 340 -737 339 C-739.33944736 339.28730055 -741.6739143 339.61936779 -744 340 C-746 340 -748 340 -750 340 C-750 339.34 -750 338.68 -750 338 C-750.65226563 338.22816406 -751.30453125 338.45632813 -751.9765625 338.69140625 C-757.10099337 340.3768754 -760.63329586 341.34167604 -766 340 C-766.99 340.495 -766.99 340.495 -768 341 C-770.86368876 341 -773.22088899 340.86630814 -776 340.4375 C-778.931291 340.04374449 -781.17358138 339.94009302 -784 341 C-784 340.34 -784 339.68 -784 339 C-785.051875 339.495 -785.051875 339.495 -786.125 340 C-790.09525959 341.38095986 -793.41232921 341.35722593 -797.5 340.4375 C-800.55850583 339.90226148 -802.96959008 340.40709371 -806 341 C-808.69946309 341 -811.19987432 340.7586777 -813.875 340.4375 C-817.48139795 340.05787916 -820.4778621 339.94335863 -824 341 C-824 340.34 -824 339.68 -824 339 C-825.27875 339.165 -826.5575 339.33 -827.875 339.5 C-835.09113034 340.29173844 -842.09580849 340.20703537 -849.2890625 339.28515625 C-853.74024363 338.81694844 -858.21051092 338.61255159 -862.68017578 338.39282227 C-867.89244821 338.10755179 -867.89244821 338.10755179 -869 337 C-871.27947792 336.8997907 -873.56207135 336.86918697 -875.84375 336.8671875 C-876.52804077 336.86623077 -877.21233154 336.86527405 -877.9173584 336.86428833 C-879.36661877 336.8636067 -880.81588218 336.86545977 -882.26513672 336.86962891 C-884.49062928 336.87497748 -886.71592001 336.8696834 -888.94140625 336.86328125 C-890.34635461 336.86394203 -891.75130285 336.8652232 -893.15625 336.8671875 C-894.44337891 336.86831543 -895.73050781 336.86944336 -897.05664062 336.87060547 C-899.88826157 336.66313857 -899.88826157 336.66313857 -901 338 C-905.57706356 338.25877545 -910.16651881 338.1852554 -914.75 338.1875 C-916.01972656 338.19974609 -917.28945313 338.21199219 -918.59765625 338.22460938 C-925.91724099 338.23582426 -932.81197833 337.69235042 -940.02148438 336.4519043 C-944.32405838 335.79911213 -948.53231927 335.74304635 -952.875 335.8125 C-954.05835938 335.8134668 -954.05835938 335.8134668 -955.265625 335.81445312 C-959.93562188 335.84936174 -964.37236369 336.32657531 -969 337 C-971.00569659 336.70285977 -973.00822259 336.37938617 -975 336 C-975.33 336.33 -975.66 336.66 -976 337 C-977.66617115 337.04063832 -979.33388095 337.042721 -981 337 C-981 337.66 -981 338.32 -981 339 C-988.07692308 337.92307692 -988.07692308 337.92307692 -990 336 C-990.66 337.32 -991.32 338.64 -992 340 C-994.64 338.68 -997.28 337.36 -1000 336 C-1000 336.66 -1000 337.32 -1000 338 C-1009.41002278 339.33257403 -1009.41002278 339.33257403 -1014 338 C-1014 338.66 -1014 339.32 -1014 340 C-1014.55429687 339.855625 -1015.10859375 339.71125 -1015.6796875 339.5625 C-1016.40414063 339.376875 -1017.12859375 339.19125 -1017.875 339 C-1018.59429688 338.814375 -1019.31359375 338.62875 -1020.0546875 338.4375 C-1023.88209492 337.57671761 -1027.72817749 338.37176551 -1031.58984375 338.78125 C-1036.03330188 339.18454604 -1040.53949561 339 -1045 339 C-1045.33 337.68 -1045.66 336.36 -1046 335 C-1046.99 335 -1047.98 335 -1049 335 C-1049.33 336.65 -1049.66 338.3 -1050 340 C-1050.5259375 339.65839844 -1051.051875 339.31679688 -1051.59375 338.96484375 C-1055.65572335 337.33609794 -1059.65361376 338.45281921 -1063.90625 339.00390625 C-1067.48229274 338.99939104 -1068.35250177 338.24108403 -1071 336 C-1073.81141718 336.24582551 -1073.81141718 336.24582551 -1075.80078125 336.671875 C-1080.48388394 337.37059725 -1085.27602157 337.05996588 -1090 337 C-1091.32 337 -1092.64 337 -1094 337 C-1094.33 336.34 -1094.66 335.68 -1095 335 C-1096.216875 335.350625 -1097.43375 335.70125 -1098.6875 336.0625 C-1102.17520333 336.93442583 -1104.50377525 337.03941817 -1108 336 C-1109.65740715 335.62331656 -1111.32345271 335.27942455 -1113 335 C-1113.33 335.33 -1113.66 335.66 -1114 336 C-1121.45864662 336.36090226 -1121.45864662 336.36090226 -1125 334 C-1126.32 334 -1127.64 334 -1129 334 C-1129.66 333.67 -1130.32 333.34 -1131 333 C-1132.96677688 333.26223692 -1134.93341891 333.52567865 -1136.8984375 333.80078125 C-1139.76608787 334.07262171 -1142.2225263 333.72743359 -1145 333 C-1145.66 332.34 -1146.32 331.68 -1147 331 C-1147.7425 331.37125 -1148.485 331.7425 -1149.25 332.125 C-1155.28080646 333.53218817 -1161.19704512 332.03142872 -1167.1171875 330.42578125 C-1169.32852129 329.85295239 -1169.32852129 329.85295239 -1173 330 C-1175.34119555 329.36149212 -1177.67451993 328.69356423 -1180 328 C-1183.58599242 327.14619228 -1186.81853553 326.91727046 -1190.5 327 C-1194.19506208 327.0830351 -1197.39439699 326.79511001 -1201 326 C-1207.98157525 324.85577256 -1214.97376555 323.82661582 -1222 323 C-1222 322.34 -1222 321.68 -1222 321 C-1225.63 320.67 -1229.26 320.34 -1233 320 C-1233 319.34 -1233 318.68 -1233 318 C-1233.69867187 318.02320313 -1234.39734375 318.04640625 -1235.1171875 318.0703125 C-1236.02726562 318.08835937 -1236.93734375 318.10640625 -1237.875 318.125 C-1238.77992188 318.14820313 -1239.68484375 318.17140625 -1240.6171875 318.1953125 C-1243 318 -1243 318 -1245 316 C-1247.09592244 315.35822405 -1247.09592244 315.35822405 -1249.4375 314.9375 C-1254.64838683 313.8987565 -1257.21869873 312.78130127 -1261 309 C-1262.63631892 307.95107762 -1264.30485863 306.95093297 -1266 306 C-1269.52599353 304.02200363 -1272.33097785 302.06443284 -1275 299 C-1275 298.34 -1275 297.68 -1275 297 C-1275.66 297 -1276.32 297 -1277 297 C-1279.48819149 294.64276596 -1281.83259734 292.17696853 -1284.1875 289.6875 C-1285.83122273 287.77286049 -1285.83122273 287.77286049 -1288 288 C-1291 282.25 -1291 282.25 -1291 280 C-1291.66 279.67 -1292.32 279.34 -1293 279 C-1293.33 278.01 -1293.66 277.02 -1294 276 C-1294.66 275.67 -1295.32 275.34 -1296 275 C-1297.0703125 273.22265625 -1297.0703125 273.22265625 -1298.125 271.0625 C-1298.65480469 269.99708984 -1298.65480469 269.99708984 -1299.1953125 268.91015625 C-1300 267 -1300 267 -1300 265 C-1300.66 265 -1301.32 265 -1302 265 C-1301.67 264.01 -1301.34 263.02 -1301 262 C-1300.34 261.67 -1299.68 261.34 -1299 261 C-1299.9590625 260.6596875 -1299.9590625 260.6596875 -1300.9375 260.3125 C-1303 259 -1303 259 -1303.8125 256.5 C-1304 254 -1304 254 -1303 252 C-1303.66 251.566875 -1304.32 251.13375 -1305 250.6875 C-1305.66 250.130625 -1306.32 249.57375 -1307 249 C-1307 248.01 -1307 247.02 -1307 246 C-1306.34 246 -1305.68 246 -1305 246 C-1305 245.34 -1305 244.68 -1305 244 C-1305.99 243.67 -1306.98 243.34 -1308 243 C-1308.33 241.02 -1308.66 239.04 -1309 237 C-1308.01 236.67 -1307.02 236.34 -1306 236 C-1307.32 235.34 -1308.64 234.68 -1310 234 C-1309.67 232.02 -1309.34 230.04 -1309 228 C-1309.66 227.67 -1310.32 227.34 -1311 227 C-1310.505 226.01 -1310.505 226.01 -1310 225 C-1310.165 224.34 -1310.33 223.68 -1310.5 223 C-1311 221 -1311 221 -1310 219 C-1311.65 218.67 -1313.3 218.34 -1315 218 C-1314.814375 217.4225 -1314.62875 216.845 -1314.4375 216.25 C-1313.95261433 213.75630228 -1314.30093578 212.40788787 -1315 210 C-1315 209.01 -1315 208.02 -1315 207 C-1315.33 206.67 -1315.66 206.34 -1316 206 C-1316.0737189 203.03355134 -1316.09220228 200.09065875 -1316.0625 197.125 C-1316.05798828 196.29613281 -1316.05347656 195.46726562 -1316.04882812 194.61328125 C-1316.04008986 193.06785675 -1316.02930584 191.52244158 -1316.01586914 189.97705078 C-1315.99380213 187.22784048 -1316.0193075 184.49800497 -1316.125 181.75 C-1316 178 -1316 178 -1315.0625 174.8125 C-1313.27714767 168.40623575 -1312.03732986 160.33201563 -1313.5 153.75 C-1314.34545405 149.10000275 -1314.45033197 144.53228742 -1313 140 C-1312.34 140 -1311.68 140 -1311 140 C-1311.09539062 139.41992188 -1311.19078125 138.83984375 -1311.2890625 138.2421875 C-1311.39992188 137.46101562 -1311.51078125 136.67984375 -1311.625 135.875 C-1311.74101563 135.10929688 -1311.85703125 134.34359375 -1311.9765625 133.5546875 C-1312 131 -1312 131 -1311.06176758 128.22241211 C-1310.02238457 125.06793607 -1309.47407282 122.17334037 -1309.03515625 118.88671875 C-1308.876521 117.72873779 -1308.71788574 116.57075684 -1308.55444336 115.37768555 C-1308.39210205 114.15992432 -1308.22976074 112.94216309 -1308.0625 111.6875 C-1307.71279546 109.16640825 -1307.36123695 106.64557296 -1307.0078125 104.125 C-1306.83668945 102.90425781 -1306.66556641 101.68351562 -1306.48925781 100.42578125 C-1305.85767664 96.00345237 -1305.1841582 91.59181896 -1304.4375 87.1875 C-1304.22996094 85.94355469 -1304.02242187 84.69960938 -1303.80859375 83.41796875 C-1302.91559104 79.64319882 -1301.590577 76.53275524 -1300 73 C-1299.57062166 71.69808813 -1299.16404385 70.38754989 -1298.8125 69.0625 C-1298.544375 68.051875 -1298.27625 67.04125 -1298 66 C-1297.01 66 -1296.02 66 -1295 66 C-1294.76410156 65.12214844 -1294.52820312 64.24429688 -1294.28515625 63.33984375 C-1290.92121359 54.59768273 -1281.82591833 46.94179757 -1274 42 C-1273.34 42 -1272.68 42 -1272 42 C-1272 41.34 -1272 40.68 -1272 40 C-1270.35 39.34 -1268.7 38.68 -1267 38 C-1267 37.34 -1267 36.68 -1267 36 C-1266.01 36 -1265.02 36 -1264 36 C-1264 35.34 -1264 34.68 -1264 34 C-1262.29126343 33.02836548 -1260.58220381 32.05729229 -1258.87109375 31.08984375 C-1257.33936413 30.19766721 -1255.84990734 29.23327156 -1254.375 28.25 C-1251.69046846 26.83708867 -1249.99017656 26.74369915 -1247 27 C-1247.495 25.515 -1247.495 25.515 -1248 24 C-1242.79193297 21.06454404 -1238.95978325 19.69268535 -1233.0234375 19.27734375 C-1230.23437321 18.89505888 -1228.37694076 17.46273278 -1226 16 C-1224.05396304 15.7405284 -1222.10646223 15.48610063 -1220.15234375 15.296875 C-1212.83011638 14.2869126 -1205.73712157 10.77449237 -1198.91796875 8.0859375 C-1196.60685269 7.22584344 -1194.40361307 6.52378977 -1192 6 C-1192 6.66 -1192 7.32 -1192 8 C-1189.51599792 7.5076353 -1187.03598211 7.00789992 -1184.5625 6.46484375 C-1174.47660989 4.38924136 -1164.70196738 4.73321761 -1154.5078125 5.7734375 C-1149.5121466 6.22475934 -1144.87998927 6.2651824 -1140 5 C-1139.01 5.33 -1138.02 5.66 -1137 6 C-1134.83284443 5.12516085 -1134.83284443 5.12516085 -1133 4 C-1132.67 4.99 -1132.34 5.98 -1132 7 C-1130.02463255 6.65213292 -1130.02463255 6.65213292 -1128 6 C-1127.67 5.34 -1127.34 4.68 -1127 4 C-1124.03 4 -1121.06 4 -1118 4 C-1117.67 4.66 -1117.34 5.32 -1117 6 C-1116.5870166 5.51176758 -1116.1740332 5.02353516 -1115.74853516 4.52050781 C-1112.79651466 1.95346178 -1109.09407526 2.65180659 -1105.375 2.75 C-1104.58609375 2.75515625 -1103.7971875 2.7603125 -1102.984375 2.765625 C-1097.15423563 2.84576437 -1097.15423563 2.84576437 -1096 4 C-1094.783125 3.814375 -1093.56625 3.62875 -1092.3125 3.4375 C-1088.32318018 2.86150195 -1085.81222309 3.67400936 -1082 5 C-1078.81477796 4.69196545 -1078.81477796 4.69196545 -1076 4 C-1075.34 4 -1074.68 4 -1074 4 C-1074 4.66 -1074 5.32 -1074 6 C-1073.09378906 5.82597656 -1072.18757813 5.65195312 -1071.25390625 5.47265625 C-1065.81714548 4.69870612 -1060.40114791 5.15423602 -1054.9375 5.4375 C-1052.69409632 5.53966455 -1050.45060574 5.63993905 -1048.20703125 5.73828125 C-1046.59755615 5.80909912 -1046.59755615 5.80909912 -1044.95556641 5.88134766 C-1036.46787117 6.22208943 -1028.11877443 6.12608277 -1019.66796875 5.21484375 C-1015.93867098 4.91453427 -1012.24386957 5.02075114 -1008.5078125 5.16015625 C-1005.93674018 5.129229 -1005.93674018 5.129229 -1003.48828125 3.9765625 C-1000.66790996 2.86966639 -999.04090124 2.92196714 -996.0625 3.3125 C-995.19109375 3.42078125 -994.3196875 3.5290625 -993.421875 3.640625 C-991.54752365 3.91875456 -989.67854117 4.23319862 -987.8125 4.5625 C-982.37455577 5.40840244 -977.38156744 4.97846681 -972 4 C-971.01 4 -970.02 4 -969 4 C-968.67 3.67 -968.34 3.34 -968 3 C-964.83759573 3.15095008 -961.69978888 3.40504685 -958.546875 3.68359375 C-955.32834856 3.94032446 -953.09947829 4.03315943 -950 3 C-948.3603125 3.5259375 -948.3603125 3.5259375 -946.6875 4.0625 C-943.10725488 5.33333052 -943.10725488 5.33333052 -940.125 4 C-936.4626734 2.82805549 -934.47937428 3.5715159 -930.85546875 4.55078125 C-924.64760476 5.5273946 -918.22687851 4.56538529 -912 4 C-911.67 4.66 -911.34 5.32 -911 6 C-910.67 5.34 -910.34 4.68 -910 4 C-906.28400809 3.79913557 -905.22791555 3.8480563 -902 6 C-901.64365479 5.50653076 -901.28730957 5.01306152 -900.92016602 4.50463867 C-898.05735289 2.2613434 -895.86427274 2.75632937 -892.27734375 2.92578125 C-891.61722794 2.95222214 -890.95711212 2.97866302 -890.2769928 3.00590515 C-888.16289644 3.09354553 -886.0505334 3.20237841 -883.9375 3.3125 C-881.85487556 3.4070219 -879.77209025 3.49717588 -877.68927002 3.58726501 C-875.68369465 3.67441887 -873.67827085 3.76503841 -871.67285156 3.85571289 C-863.47955864 4.32255086 -863.47955864 4.32255086 -855.375 3.4375 C-852.91889383 2.98505939 -851.2075192 3.15698937 -848.75 3.5 C-847.5125 3.665 -846.275 3.83 -845 4 C-844.67 3.67 -844.34 3.34 -844 3 C-842.10052658 3.1181632 -840.20459351 3.29519775 -838.3125 3.5 C-833.93441089 3.90834597 -830.32111034 3.88386348 -826 3 C-821.57067995 2.78908 -818.58140303 2.83247709 -814.3125 4.0625 C-810.94735215 5.01490033 -809.281766 5.06174782 -806 4 C-805.67 3.67 -805.34 3.34 -805 3 C-802.74705465 3.12047836 -800.49712296 3.29821753 -798.25 3.5 C-790.22082609 4.14039917 -781.72307904 4.57435968 -774 2 C-773.21625 2.804375 -772.4325 3.60875 -771.625 4.4375 C-768.19929198 7.78164355 -767.86313592 8 -763 8 C-762.855625 7.360625 -762.71125 6.72125 -762.5625 6.0625 C-762 4 -762 4 -761 3 C-758.6875 2.75 -758.6875 2.75 -756 3 C-755.44957031 3.49371094 -754.89914062 3.98742187 -754.33203125 4.49609375 C-751.00149239 6.64392869 -747.82871748 6.39920103 -744 6.3125 C-742.93265625 6.31733398 -742.93265625 6.31733398 -741.84375 6.32226562 C-737.96515996 6.28246666 -735.38477877 5.80324458 -732 4 C-729.7109375 4.05859375 -729.7109375 4.05859375 -727.375 4.4375 C-724.0720104 5.06062372 -724.0720104 5.06062372 -721 4 C-718.30434798 4.16780163 -715.67594446 4.61155645 -713 5 C-712.67 3.68 -712.34 2.36 -712 1 C-711.2575 1.165 -710.515 1.33 -709.75 1.5 C-706.80993422 2.11925696 -706.80993422 2.11925696 -703 2 C-702.01 2.66 -701.02 3.32 -700 4 C-698.515 3.505 -698.515 3.505 -697 3 C-696.030625 3.185625 -695.06125 3.37125 -694.0625 3.5625 C-691.09444069 4.30348413 -691.09444069 4.30348413 -689.125 2.9453125 C-686.23856863 1.66127502 -684.8824145 2.30421103 -681.9375 3.3125 C-681.08027344 3.59738281 -680.22304688 3.88226563 -679.33984375 4.17578125 C-678.56769531 4.44777344 -677.79554688 4.71976562 -677 5 C-676.01 5.33 -675.02 5.66 -674 6 C-673.195625 5.34 -672.39125 4.68 -671.5625 4 C-669 2 -669 2 -666.9375 2.1875 C-665.9784375 2.5896875 -665.9784375 2.5896875 -665 3 C-662.1794906 3.9401698 -660.89358425 3.98084517 -657.875 3.4375 C-656.451875 3.2209375 -656.451875 3.2209375 -655 3 C-654.34 3.66 -653.68 4.32 -653 5 C-650.52566987 5.05896069 -650.52566987 5.05896069 -647.75 4.6875 C-646.81671875 4.58824219 -645.8834375 4.48898437 -644.921875 4.38671875 C-642.96309222 4.12746809 -641.01019257 3.81943593 -639.06640625 3.46484375 C-635.73299838 2.95952459 -632.55762451 2.86729686 -629.1875 2.875 C-627.47626953 2.87113281 -627.47626953 2.87113281 -625.73046875 2.8671875 C-623 3 -623 3 -622 4 C-616.82623974 4.44262634 -616.82623974 4.44262634 -612.03515625 2.95703125 C-609.45813124 1.74518647 -608.03462407 2.03885207 -605.25 2.5 C-601.66803593 2.97089336 -599.03153975 2.95705142 -595.5625 1.9375 C-594.386875 1.628125 -593.21125 1.31875 -592 1 C-591.01 1.66 -590.02 2.32 -589 3 C-588.4225 2.855625 -587.845 2.71125 -587.25 2.5625 C-584.0285953 1.75714883 -581.27891417 2.51967076 -578 3 C-574.14304808 3.24820017 -570.28635739 3.43873488 -566.42578125 3.62109375 C-563.3070388 3.96604018 -561.6696799 4.5099461 -559 6 C-556.85744207 5.61067144 -556.85744207 5.61067144 -555 5 C-554.67 5.33 -554.34 5.66 -554 6 C-553.34 5.01 -552.68 4.02 -552 3 C-548.18759068 3.51519045 -546.6205882 4.26029415 -544 7 C-543.01 7 -542.02 7 -541 7 C-540.814375 6.38125 -540.62875 5.7625 -540.4375 5.125 C-538.28562767 1.94397134 -535.62466237 1.80548053 -532 1 C-531.5875 1.515625 -531.175 2.03125 -530.75 2.5625 C-529.88375 3.2740625 -529.88375 3.2740625 -529 4 C-527.66410045 3.67710485 -526.33149196 3.34061422 -525 3 C-515.65795481 2.53826673 -506.96648863 3.05032272 -497.79296875 4.85546875 C-496.87128906 4.90316406 -495.94960938 4.95085937 -495 5 C-493.37881952 3.57158659 -493.37881952 3.57158659 -492 2 C-489.87890625 1.890625 -489.87890625 1.890625 -487.5625 2.25 C-486.41974609 2.41242188 -486.41974609 2.41242188 -485.25390625 2.578125 C-483 3 -483 3 -480.98828125 3.5390625 C-476.28520751 4.6293625 -471.31456588 4.26778194 -466.625 3.3125 C-465.75875 3.209375 -464.8925 3.10625 -464 3 C-462.375 4.4375 -462.375 4.4375 -461 6 C-459.68 6 -458.36 6 -457 6 C-456.34 4.68 -455.68 3.36 -455 2 C-447.3943662 2.88732394 -447.3943662 2.88732394 -444.8125 3.625 C-442.93449584 4.14450888 -442.93449584 4.14450888 -440.8125 3.5 C-438.0795757 3.01414679 -436.28188647 3.13498168 -433.5625 3.5 C-429.82336062 3.99396657 -426.70817762 3.8557333 -423 3 C-422.67 3.99 -422.34 4.98 -422 6 C-419.13275314 5.42655063 -418.1385485 5.1385485 -416 3 C-413.3125 3.3125 -413.3125 3.3125 -410 4 C-408.824375 4.165 -407.64875 4.33 -406.4375 4.5 C-403 5 -403 5 -400.375 5.625 C-398.01134052 6.14337495 -398.01134052 6.14337495 -395.73828125 5.51953125 C-391.69497161 4.75239832 -387.7434819 5.03380142 -383.64453125 5.16015625 C-380.8416896 5.28373535 -380.8416896 5.28373535 -379 3 C-376.21484375 2.76953125 -376.21484375 2.76953125 -372.9375 2.8125 C-371.31134766 2.82216797 -371.31134766 2.82216797 -369.65234375 2.83203125 C-367 3 -367 3 -366 4 C-364.906875 4 -363.81375 4 -362.6875 4 C-359.74895563 4 -357.7629292 4.25613445 -355 5 C-354.67 4.67 -354.34 4.34 -354 4 C-352.5459375 4.0309375 -352.5459375 4.0309375 -351.0625 4.0625 C-347.88968786 4.35137574 -347.88968786 4.35137574 -346 2 C-343.15002778 1.82754014 -340.40937679 1.76783389 -337.5625 1.8125 C-336.39750977 1.8134668 -336.39750977 1.8134668 -335.20898438 1.81445312 C-331.89739425 1.84012437 -329.16057255 1.94647582 -326 3 C-323.93854893 3.068991 -321.87498599 3.08467727 -319.8125 3.0625 C-318.72582031 3.05347656 -317.63914062 3.04445313 -316.51953125 3.03515625 C-315.68808594 3.02355469 -314.85664062 3.01195312 -314 3 C-313.67 3.66 -313.34 4.32 -313 5 C-312.34 4.01 -311.68 3.02 -311 2 C-310.154375 2.33 -309.30875 2.66 -308.4375 3 C-304.72498572 4.08000415 -301.84753605 4.28500267 -298 4 C-297.29875 3.608125 -296.5975 3.21625 -295.875 2.8125 C-295.25625 2.544375 -294.6375 2.27625 -294 2 C-292.88625 2.7115625 -292.88625 2.7115625 -291.75 3.4375 C-287.73037492 5.72137789 -285.48640941 4.94069875 -281 4 C-279.515 3.01 -279.515 3.01 -278 2 C-275.26821208 2.23150745 -272.69662638 2.57010304 -270 3 C-264.49822306 3.78216071 -259.1856777 4.1484671 -253.6328125 4.1328125 C-252.87201385 4.13376923 -252.11121521 4.13472595 -251.32736206 4.13571167 C-249.73581865 4.13638675 -248.14427237 4.1345798 -246.55273438 4.13037109 C-244.11061526 4.12496818 -241.66867632 4.13036163 -239.2265625 4.13671875 C-237.67447876 4.13605872 -236.12239513 4.13477913 -234.5703125 4.1328125 C-233.84014923 4.13483673 -233.10998596 4.13686096 -232.35769653 4.13894653 C-228.55267045 4.18503168 -228.55267045 4.18503168 -225 3 C-223.50148442 2.93010655 -221.99998458 2.91558464 -220.5 2.9375 C-219.7059375 2.94652344 -218.911875 2.95554687 -218.09375 2.96484375 C-217.05734375 2.98224609 -217.05734375 2.98224609 -216 3 C-215.34 3 -214.68 3 -214 3 C-209.21309759 3.45159457 -205.96243221 4.23830482 -202 7 C-201.67 5.68 -201.34 4.36 -201 3 C-200.175 3.185625 -199.35 3.37125 -198.5 3.5625 C-195.19081758 3.9761478 -192.51220339 3.68933523 -189.23486328 3.24465942 C-185.38906967 2.82364501 -181.55205297 2.87777319 -177.6875 2.90234375 C-176.83317383 2.9037587 -175.97884766 2.90517365 -175.09863281 2.90663147 C-172.39905127 2.91218038 -169.69955601 2.92472303 -167 2.9375 C-165.15755329 2.94252161 -163.31510527 2.94708336 -161.47265625 2.95117188 C-156.98173814 2.96213301 -152.49088364 2.97936175 -148 3 C-148 3.66 -148 4.32 -148 5 C-146.4375 4.6875 -144.875 4.375 -143.3125 4.0625 C-141.54166667 3.70833333 -139.77083333 3.35416667 -138 3 C-137.11828125 2.80277344 -136.2365625 2.60554688 -135.328125 2.40234375 C-132.61734218 1.93386954 -130.67508215 2.4512652 -128 3 C-127.34 2.835 -126.68 2.67 -126 2.5 C-123.40706056 1.85176514 -121.59421982 2.43053711 -119 3 C-118.175 3 -117.35 3 -116.5 3 C-114 3 -114 3 -111.3125 3.625 C-110.1678125 3.810625 -110.1678125 3.810625 -109 4 C-108.34 3.34 -107.68 2.68 -107 2 C-104.5390625 1.83984375 -104.5390625 1.83984375 -101.625 1.9375 C-97.71888058 2.0834314 -97.71888058 2.0834314 -93.8984375 1.44140625 C-91.58027238 0.90240901 -90.26801023 1.34266882 -88 2 C-85.70900296 2.25014352 -83.4184142 2.4390127 -81.12109375 2.62109375 C-79 3 -79 3 -76 5 C-75.278125 4.484375 -74.55625 3.96875 -73.8125 3.4375 C-68.66335318 0.82597099 -62.48881854 2.08634184 -57 3 C-55.75669922 3.51820313 -55.75669922 3.51820313 -54.48828125 4.046875 C-51.43045013 5.21816353 -49.01102414 5.16290099 -45.75 5.0625 C-43.83397367 5.0087578 -41.91666943 4.97942226 -40 5 C-39.67 5.33 -39.34 5.66 -39 6 C-38.67 5.01 -38.34 4.02 -38 3 C-35.13275314 3.57344937 -34.1385485 3.8614515 -32 6 C-31.34 5.01 -30.68 4.02 -30 3 C-28.68 3.33 -27.36 3.66 -26 4 C-25.67 3.01 -25.34 2.02 -25 1 C-23.84242187 1.0721875 -22.68484375 1.144375 -21.4921875 1.21875 C-19.95313078 1.31259492 -18.41406796 1.40633961 -16.875 1.5 C-16.11445312 1.54769531 -15.35390625 1.59539062 -14.5703125 1.64453125 C-8.28641169 2.07582694 -8.28641169 2.07582694 -2 2 C-1.34 1.34 -0.68 0.68 0 0 Z M315 51 C315.33 51.66 315.66 52.32 316 53 C317.65 53 319.3 53 321 53 C321.33 52.34 321.66 51.68 322 51 C319.69 51 317.38 51 315 51 Z M-415 70 C-415.556875 70.28875 -416.11375 70.5775 -416.6875 70.875 C-419.72058685 72.35055576 -422.67376914 72.52482416 -426 73 C-426.66 73.350625 -427.32 73.70125 -428 74.0625 C-430.96475599 75.45222937 -433.76609848 75.05879821 -437 75 C-438.485 75.495 -438.485 75.495 -440 76 C-440.99 75.67 -441.98 75.34 -443 75 C-443.78375 75.969375 -444.5675 76.93875 -445.375 77.9375 C-446.91288705 79.83962346 -447.79259913 80.89629957 -450 82 C-451.6666738 82.02025472 -453.33409195 81.99192597 -455 81.9375 C-461.95978427 81.86433538 -468.29399838 83.30440506 -475 85 C-477.25245881 82.31158141 -478.88213958 80.35358125 -480 77 C-481.98 76.67 -483.96 76.34 -486 76 C-486 76.99 -486 77.98 -486 79 C-487.7015625 78.0409375 -487.7015625 78.0409375 -489.4375 77.0625 C-494.77019146 74.44309697 -499.76234655 72.94210412 -505.5703125 74.83984375 C-507.77198022 75.8095438 -509.89344809 76.83965344 -512 78 C-512.33 77.34 -512.66 76.68 -513 76 C-520.69863174 79.00352316 -520.69863174 79.00352316 -525.625 85.3125 C-526.305625 87.1378125 -526.305625 87.1378125 -527 89 C-531.95433585 87.76141604 -534.18645731 86.27241667 -537 82 C-537.33 81.01 -537.66 80.02 -538 79 C-539.3921875 79.3403125 -539.3921875 79.3403125 -540.8125 79.6875 C-544 80 -544 80 -545.75 78.6875 C-546.1625 78.130625 -546.575 77.57375 -547 77 C-547.66 76.34 -548.32 75.68 -549 75 C-550.485 75.495 -550.485 75.495 -552 76 C-552.33 75.01 -552.66 74.02 -553 73 C-559.53684662 73.25385812 -562.85379493 73.8274013 -568 78 C-571.38501003 77.82788085 -573.96282462 77.51858769 -577 76 C-578.54613014 76.08651631 -580.08909387 76.24002636 -581.625 76.4375 C-582.44226563 76.53933594 -583.25953125 76.64117187 -584.1015625 76.74609375 C-585.04128906 76.87177734 -585.04128906 76.87177734 -586 77 C-586.66 75.68 -587.32 74.36 -588 73 C-590.97 73.495 -590.97 73.495 -594 74 C-594.33 75.32 -594.66 76.64 -595 78 C-600.15795631 78.17786056 -604.18029285 78.11596899 -609 76 C-609.33 75.34 -609.66 74.68 -610 74 C-614.88756205 72.77580837 -618.92843559 72.57506928 -623.625 74.4375 C-624.40875 74.953125 -625.1925 75.46875 -626 76 C-626 76.66 -626 77.32 -626 78 C-626.64066406 78.10957031 -627.28132812 78.21914063 -627.94140625 78.33203125 C-632.09226548 79.09291901 -635.97313918 79.83273201 -639.8125 81.625 C-642.97264061 82.98819791 -644.66335591 83 -648 83 C-649.64594139 84.39588754 -649.64594139 84.39588754 -651 86 C-651.99 86.33 -652.98 86.66 -654 87 C-653.34 85.35 -652.68 83.7 -652 82 C-652.66 82 -653.32 82 -654 82 C-655.20628008 84.33214148 -656.1654738 86.49642139 -657 89 C-658.32 89 -659.64 89 -661 89 C-661 88.34 -661 87.68 -661 87 C-661.556875 87.20625 -662.11375 87.4125 -662.6875 87.625 C-665.66129682 88.10723732 -667.23948339 87.10420664 -670 86 C-672.18703385 86.37907282 -672.18703385 86.37907282 -674 87 C-674.33 86.67 -674.66 86.34 -675 86 C-676.62139437 85.87505384 -678.24884122 85.82428376 -679.875 85.8125 C-681.20144531 85.79123047 -681.20144531 85.79123047 -682.5546875 85.76953125 C-685.25766726 85.82931576 -685.25766726 85.82931576 -688 88 C-687 86 -687 86 -684 85 C-684.66 82.03 -685.32 79.06 -686 76 C-690.05431692 74.84162374 -692.21812119 75.16308743 -696 77 C-696 77.66 -696 78.32 -696 79 C-698.63904371 80.41377341 -701.07120629 81.37240135 -704 82 C-704 80.02 -704 78.04 -704 76 C-705.45823212 75.9729957 -706.91660675 75.95360213 -708.375 75.9375 C-709.59316406 75.92009766 -709.59316406 75.92009766 -710.8359375 75.90234375 C-713.04937142 75.85533666 -713.04937142 75.85533666 -715 77 C-715.73075648 79.3140622 -716.40138258 81.64828869 -717 84 C-717.515625 83.773125 -718.03125 83.54625 -718.5625 83.3125 C-721.60620425 82.92228151 -723.40070532 83.94278564 -726.1171875 85.23046875 C-728.99681362 86.40741138 -731.92505227 86.68622982 -735 87 C-734.319375 85.4221875 -734.319375 85.4221875 -733.625 83.8125 C-732.37239999 80.89174547 -731.16489979 77.95705332 -730 75 C-731.08113116 73.72512277 -731.08113116 73.72512277 -733.625 73.5625 C-739.4717968 74.3204181 -742.66035917 78.48861034 -746.4375 82.75 C-748.19013194 84.81723568 -748.19013194 84.81723568 -748 87 C-748.66 87 -749.32 87 -750 87 C-750 85.68 -750 84.36 -750 83 C-750.804375 82.87625 -751.60875 82.7525 -752.4375 82.625 C-753.283125 82.41875 -754.12875 82.2125 -755 82 C-755.33 81.34 -755.66 80.68 -756 80 C-759.50177065 83.84903548 -759.50177065 83.84903548 -760 89 C-761.82312056 88.12598339 -763.63330341 87.22494083 -765.4375 86.3125 C-766.95150391 85.56419922 -766.95150391 85.56419922 -768.49609375 84.80078125 C-771 83 -771 83 -771.84765625 80.29296875 C-771.89792969 79.53628906 -771.94820312 78.77960938 -772 78 C-774.31 78 -776.62 78 -779 78 C-779 77.34 -779 76.68 -779 76 C-784.14000213 74.99434741 -788.56982704 75.10872102 -793.765625 75.74609375 C-796 76 -796 76 -799 76 C-801.71215135 77.18166628 -801.71215135 77.18166628 -804 79 C-805.66617115 79.04063832 -807.33388095 79.042721 -809 79 C-808.67 77.02 -808.34 75.04 -808 73 C-809.74818591 72.77695559 -811.49870323 72.5721355 -813.25 72.375 C-814.22453125 72.25898438 -815.1990625 72.14296875 -816.203125 72.0234375 C-819.18620185 71.99843965 -820.54566259 72.35832098 -823 74 C-823.61875 74.804375 -824.2375 75.60875 -824.875 76.4375 C-827.45009819 79.54276547 -829.18762765 80.65860973 -833 82 C-836.35053665 82.23072558 -839.6480436 82.17885933 -843 82 C-843 83.32 -843 84.64 -843 86 C-844.60875 85.319375 -844.60875 85.319375 -846.25 84.625 C-846.89453125 84.35429687 -847.5390625 84.08359375 -848.203125 83.8046875 C-850 83 -850 83 -852 81.75 C-855.1109148 80.58340695 -857.7965302 81.40676485 -861 82 C-861.66 82 -862.32 82 -863 82 C-864.38938077 83.96147874 -865.7260411 85.96166576 -867 88 C-867.515625 87.855625 -868.03125 87.71125 -868.5625 87.5625 C-871.71854048 86.83418297 -874.77143385 86.29350601 -878 86 C-879.485 86.99 -879.485 86.99 -881 88 C-881 84.36638422 -880.57302699 82.1479188 -879.5 78.75 C-879.2215625 77.85796875 -878.943125 76.9659375 -878.65625 76.046875 C-878.33140625 75.03367187 -878.33140625 75.03367187 -878 74 C-880.35367713 73.3121764 -880.35367713 73.3121764 -883 73 C-884.485 73.99 -884.485 73.99 -886 75 C-888.6875 75.125 -888.6875 75.125 -891 75 C-892.485 79.455 -892.485 79.455 -894 84 C-895.11375 83.690625 -895.11375 83.690625 -896.25 83.375 C-899.32330841 82.95591249 -900.42786866 83.38050989 -903 85 C-903.33 83.35 -903.66 81.7 -904 80 C-904.66 80.66 -905.32 81.32 -906 82 C-909.37991574 81.6442194 -912.04288438 80.64284201 -915 79 C-917.28728734 80.83883881 -917.28728734 80.83883881 -917.125 83.625 C-917.063125 84.800625 -917.063125 84.800625 -917 86 C-921.571279 85.45144652 -925.67435795 84.58255197 -930 83 C-930.33 83.66 -930.66 84.32 -931 85 C-934.0625 85.625 -934.0625 85.625 -937 86 C-937.33 85.34 -937.66 84.68 -938 84 C-939.093125 83.9175 -940.18625 83.835 -941.3125 83.75 C-945 83 -945 83 -947.4375 79.9375 C-947.953125 78.968125 -948.46875 77.99875 -949 77 C-949.66 77.33 -950.32 77.66 -951 78 C-951 78.66 -951 79.32 -951 80 C-953 78.66666667 -955 77.33333333 -957 76 C-959.90073181 75.32198966 -959.90073181 75.32198966 -963 75 C-964.14275391 74.82017578 -964.14275391 74.82017578 -965.30859375 74.63671875 C-969.3087225 75.17664905 -971.4416076 77.69839596 -974.1875 80.4375 C-979.85645161 85.92822581 -979.85645161 85.92822581 -982 87 C-982 87.66 -982 88.32 -982 89 C-984.375 88.3125 -984.375 88.3125 -987 87 C-988.1875 84.5 -988.1875 84.5 -989 82 C-990.88659875 79.69337401 -990.88659875 79.69337401 -994 79.6875 C-994.99 79.460625 -995.98 79.23375 -997 79 C-998.125 76.5 -998.125 76.5 -999 74 C-1000.88850355 72.92357291 -1000.88850355 72.92357291 -1003 73 C-1003.99 73.66 -1004.98 74.32 -1006 75 C-1008.32809543 75.68473395 -1010.66237777 76.34853151 -1013 77 C-1014.35793004 77.53216177 -1015.71211234 78.07397975 -1017.0625 78.625 C-1021.62059207 80.3639253 -1025.27918221 80.3511873 -1030.0625 79.375 C-1033.38130819 78.95132236 -1035.04565325 79.52282662 -1038 81 C-1038.33 79.35 -1038.66 77.7 -1039 76 C-1042.05074215 75.71219414 -1044.96183742 75.54212089 -1048 76 C-1050.15602694 78.33749166 -1050.15602694 78.33749166 -1051 81 C-1052.98 80.67 -1054.96 80.34 -1057 80 C-1057.33 80.99 -1057.66 81.98 -1058 83 C-1060.31 82.34 -1062.62 81.68 -1065 81 C-1065.103125 80.05125 -1065.20625 79.1025 -1065.3125 78.125 C-1065.68539295 74.70892499 -1065.68539295 74.70892499 -1069 73 C-1070.80869466 73.30420546 -1070.80869466 73.30420546 -1073 74 C-1077.75030792 74.68956083 -1082.19799504 75 -1087 75 C-1087.33 75.33 -1087.66 75.66 -1088 76 C-1089.89524667 76.0471601 -1091.7920337 76.03730315 -1093.6875 76 C-1099.93346253 75.82371379 -1099.93346253 75.82371379 -1106 77 C-1107.01187895 78.65948148 -1108.0126546 80.32580562 -1109 82 C-1113.02733868 82.54793723 -1115.30266805 81.54655489 -1118.6875 79.4375 C-1120.91916934 78.00491774 -1120.91916934 78.00491774 -1123 77 C-1123.66 77.33 -1124.32 77.66 -1125 78 C-1130.30838461 78.26541923 -1133.96868447 77.82956928 -1139 76 C-1140.32 76 -1141.64 76 -1143 76 C-1143 76.66 -1143 77.32 -1143 78 C-1144.12109375 79.59375 -1144.12109375 79.59375 -1146 81 C-1149.10987371 81.44365825 -1152.14675506 81.50245106 -1155.28515625 81.59375 C-1156.18105469 81.7278125 -1157.07695313 81.861875 -1158 82 C-1158.66 82.99 -1159.32 83.98 -1160 85 C-1162.62102462 85.71402352 -1165.08321096 86.25020395 -1167.75 86.6875 C-1168.45382812 86.81705078 -1169.15765625 86.94660156 -1169.8828125 87.08007812 C-1173.96766937 87.79758551 -1177.83690772 88.13746059 -1182 88 C-1180.68 85.69 -1179.36 83.38 -1178 81 C-1184.95956406 81.32622957 -1189.55163096 82.56700883 -1195 87 C-1197.29577243 89.51406311 -1197.29577243 89.51406311 -1199 92 C-1200.375 93.8125 -1200.375 93.8125 -1202 95 C-1202.99 94.95875 -1203.98 94.9175 -1205 94.875 C-1205.99 94.91625 -1206.98 94.9575 -1208 95 C-1209.9354148 97.39056942 -1209.9354148 97.39056942 -1211 100 C-1211.66 99.01 -1212.32 98.02 -1213 97 C-1213.5878125 97.5878125 -1213.5878125 97.5878125 -1214.1875 98.1875 C-1216.45833333 100.45833333 -1218.72916667 102.72916667 -1221 105 C-1220.34 105 -1219.68 105 -1219 105 C-1220.30027898 108.90083693 -1222.63488013 110.826073 -1226 113 C-1228.33836612 113.91663952 -1230.53433382 114.45755344 -1233 115 C-1233 115.99 -1233 116.98 -1233 118 C-1232.34 118 -1231.68 118 -1231 118 C-1233.20927127 121.48832306 -1235.08597051 122.73058503 -1239 124 C-1239 127.3 -1239 130.6 -1239 134 C-1239.66 134 -1240.32 134 -1241 134 C-1241.66 136.31 -1242.32 138.62 -1243 141 C-1243.99 141 -1244.98 141 -1246 141 C-1246.226875 142.051875 -1246.45375 143.10375 -1246.6875 144.1875 C-1247.81862756 148.18684388 -1249.87177063 150.25326202 -1253 153 C-1253.598125 153.598125 -1254.19625 154.19625 -1254.8125 154.8125 C-1255.4003125 155.4003125 -1255.4003125 155.4003125 -1256 156 C-1254.86695008 159.39914975 -1253.87481525 160.05254451 -1251 162 C-1251.66 163.98 -1252.32 165.96 -1253 168 C-1252.34 168 -1251.68 168 -1251 168 C-1251 168.66 -1251 169.32 -1251 170 C-1251.66 170 -1252.32 170 -1253 170 C-1252.72122863 173.73024781 -1252.42472097 177.45888164 -1252.125 181.1875 C-1252.04636719 182.24259766 -1251.96773437 183.29769531 -1251.88671875 184.38476562 C-1251.80292969 185.40634766 -1251.71914062 186.42792969 -1251.6328125 187.48046875 C-1251.55949707 188.41785889 -1251.48618164 189.35524902 -1251.41064453 190.32104492 C-1250.97968778 193.13251248 -1250.1114149 195.39219709 -1249 198 C-1248.835 198.9075 -1248.67 199.815 -1248.5 200.75 C-1248.2525 201.86375 -1248.2525 201.86375 -1248 203 C-1247.34 203.33 -1246.68 203.66 -1246 204 C-1244.9296875 206.28515625 -1244.9296875 206.28515625 -1243.875 209.0625 C-1243.34519531 210.44115234 -1243.34519531 210.44115234 -1242.8046875 211.84765625 C-1242.40636719 212.91306641 -1242.40636719 212.91306641 -1242 214 C-1241.34 214 -1240.68 214 -1240 214 C-1240 214.99 -1240 215.98 -1240 217 C-1239.34 217.33 -1238.68 217.66 -1238 218 C-1237.67 218.99 -1237.34 219.98 -1237 221 C-1236.525625 221.45375 -1236.05125 221.9075 -1235.5625 222.375 C-1234 224 -1234 224 -1233.125 226.5625 C-1231.6506858 229.75684743 -1230.17644017 229.77829224 -1227 231 C-1226.1875 233.125 -1226.1875 233.125 -1226 235 C-1225.34 235 -1224.68 235 -1224 235 C-1223.814375 235.928125 -1223.62875 236.85625 -1223.4375 237.8125 C-1222.28741894 241.34605752 -1222.28741894 241.34605752 -1218.5625 242.375 C-1215 244 -1215 244 -1214.26171875 245.74609375 C-1214.00841797 246.76896484 -1214.00841797 246.76896484 -1213.75 247.8125 C-1212.51005591 252.1323052 -1210.304488 253.41584518 -1206.4375 255.5625 C-1203.61632924 257.0757201 -1203.61632924 257.0757201 -1201 258 C-1200.34 257.67 -1199.68 257.34 -1199 257 C-1199.33 256.01 -1199.66 255.02 -1200 254 C-1199.21625 254.350625 -1198.4325 254.70125 -1197.625 255.0625 C-1196.75875 255.371875 -1195.8925 255.68125 -1195 256 C-1194.34 255.67 -1193.68 255.34 -1193 255 C-1192.67 256.32 -1192.34 257.64 -1192 259 C-1190.68 259.33 -1189.36 259.66 -1188 260 C-1187.67 261.32 -1187.34 262.64 -1187 264 C-1186.278125 263.835 -1185.55625 263.67 -1184.8125 263.5 C-1179.48803828 262.55342903 -1179.48803828 262.55342903 -1177 263 C-1175.6273318 264.97321053 -1174.29572383 266.97543152 -1173 269 C-1170.65898933 270.11691458 -1170.65898933 270.11691458 -1168 271 C-1166.74509766 271.54720703 -1166.74509766 271.54720703 -1165.46484375 272.10546875 C-1164.63082031 272.46253906 -1163.79679687 272.81960938 -1162.9375 273.1875 C-1161.68259766 273.73470703 -1161.68259766 273.73470703 -1160.40234375 274.29296875 C-1157.71666658 275.08338756 -1156.57631991 275.01231697 -1154 274 C-1153.01 273.34 -1152.02 272.68 -1151 272 C-1150.34 272.33 -1149.68 272.66 -1149 273 C-1149.99 273.33 -1150.98 273.66 -1152 274 C-1152 274.33 -1152 274.66 -1152 275 C-1143.15294431 275.62084601 -1138.66030922 272.65117146 -1132 267 C-1130.68 267.99 -1129.36 268.98 -1128 270 C-1128.99 270.66 -1129.98 271.32 -1131 272 C-1129.515 273.98 -1129.515 273.98 -1128 276 C-1128 275.34 -1128 274.68 -1128 274 C-1126.75126099 274.01571045 -1126.75126099 274.01571045 -1125.47729492 274.03173828 C-1122.38550844 274.06584442 -1119.29381792 274.09091076 -1116.2019043 274.10986328 C-1114.20680382 274.12485495 -1112.21179054 274.15026731 -1110.21679688 274.17578125 C-1108.96318359 274.18222656 -1107.70957031 274.18867187 -1106.41796875 274.1953125 C-1105.26063232 274.20578613 -1104.1032959 274.21625977 -1102.91088867 274.22705078 C-1099.80578827 274.22319863 -1099.80578827 274.22319863 -1097 272 C-1096.67 272.66 -1096.34 273.32 -1096 274 C-1095.34 273.01 -1094.68 272.02 -1094 271 C-1090.38204235 268.90962447 -1087.13405862 267.6079498 -1083 267 C-1083.33 268.32 -1083.66 269.64 -1084 271 C-1079.3260969 273.69983222 -1075.62075266 274.47403247 -1070.25 274.75 C-1068.93515625 274.82734375 -1067.6203125 274.9046875 -1066.265625 274.984375 C-1063.11414247 275.24519123 -1063.11414247 275.24519123 -1061 274 C-1060.67 274.66 -1060.34 275.32 -1060 276 C-1059.67 275.01 -1059.34 274.02 -1059 273 C-1055.6875 272.8125 -1055.6875 272.8125 -1052 273 C-1051.566875 273.5053125 -1051.13375 274.010625 -1050.6875 274.53125 C-1048.97830493 276.3344983 -1048.97830493 276.3344983 -1045.86328125 276.07421875 C-1044.10564453 275.88279297 -1044.10564453 275.88279297 -1042.3125 275.6875 C-1041.13300781 275.56761719 -1039.95351562 275.44773437 -1038.73828125 275.32421875 C-1037.38283203 275.16373047 -1037.38283203 275.16373047 -1036 275 C-1036 274.34 -1036 273.68 -1036 273 C-1034.9275 273.515625 -1033.855 274.03125 -1032.75 274.5625 C-1030.4380834 275.5506579 -1029.28429092 276.02369091 -1026.75 275.8125 C-1024.72251767 274.92531841 -1024.72251767 274.92531841 -1022 273 C-1021.34 273 -1020.68 273 -1020 273 C-1020 273.99 -1020 274.98 -1020 276 C-1016.71303767 276.79953138 -1015.28976808 277.09658936 -1012 276 C-1011.01 276.33 -1010.02 276.66 -1009 277 C-1008.34 276.67 -1007.68 276.34 -1007 276 C-1007 275.34 -1007 274.68 -1007 274 C-1006.175 274.33 -1005.35 274.66 -1004.5 275 C-1000.11812346 276.25196473 -995.2382509 277.11912545 -991 275 C-991 274.34 -991 273.68 -991 273 C-989.35 273 -987.7 273 -986 273 C-986 273.66 -986 274.32 -986 275 C-985.40832031 274.86722656 -984.81664062 274.73445312 -984.20703125 274.59765625 C-982.58035404 274.23410849 -980.95270582 273.874884 -979.32421875 273.51953125 C-977.58319402 273.13036102 -975.85121961 272.70031816 -974.125 272.25 C-972 272 -972 272 -969 274 C-968.34 274.99 -967.68 275.98 -967 277 C-965.02252878 277.36297936 -965.02252878 277.36297936 -962.875 277.1875 C-961.59625 277.125625 -960.3175 277.06375 -959 277 C-958.67 275.35 -958.34 273.7 -958 272 C-955.125 271.875 -955.125 271.875 -952 272 C-951.34 272.66 -950.68 273.32 -950 274 C-949.01 274 -948.02 274 -947 274 C-946.67 275.32 -946.34 276.64 -946 278 C-942.01062701 279.05087872 -942.01062701 279.05087872 -938 279 C-935.48694413 277.01140797 -933.81977827 274.61375797 -932 272 C-931.34 271.34 -930.68 270.68 -930 270 C-929.01 270.33 -928.02 270.66 -927 271 C-928.485 272.98 -928.485 272.98 -930 275 C-928.7934375 275.185625 -928.7934375 275.185625 -927.5625 275.375 C-926.716875 275.58125 -925.87125 275.7875 -925 276 C-924.67 276.66 -924.34 277.32 -924 278 C-921.47266765 278.65555119 -921.47266765 278.65555119 -919 279 C-918.67128906 278.48308594 -918.34257813 277.96617187 -918.00390625 277.43359375 C-916.45846948 275.29343606 -915.09219583 273.62017604 -913 272 C-910.48425454 271.77324063 -908.50843092 272.0810086 -906.05078125 272.6328125 C-903.81061743 273.20269371 -903.81061743 273.20269371 -901 272 C-900.731875 272.804375 -900.46375 273.60875 -900.1875 274.4375 C-899.795625 275.283125 -899.40375 276.12875 -899 277 C-898.01 277.33 -897.02 277.66 -896 278 C-894.515 277.01 -894.515 277.01 -893 276 C-892.67 276.99 -892.34 277.98 -892 279 C-886.77420991 277.05313703 -883.89419021 275.10468698 -880 271 C-877.6875 269.6875 -877.6875 269.6875 -876 269 C-876.309375 270.3921875 -876.309375 270.3921875 -876.625 271.8125 C-877.36692966 275.15173402 -877.36692966 275.15173402 -875 278 C-873.02 277.67 -871.04 277.34 -869 277 C-869 276.34 -869 275.68 -869 275 C-868.34 275 -867.68 275 -867 275 C-866.67 276.32 -866.34 277.64 -866 279 C-865.67 279 -865.34 279 -865 279 C-864.67 277.02 -864.34 275.04 -864 273 C-859.66666667 273 -855.33333333 273 -851 273 C-850.67 273.99 -850.34 274.98 -850 276 C-848.09291157 276.91428339 -848.09291157 276.91428339 -846 277 C-845.34 276.34 -844.68 275.68 -844 275 C-842.01178687 274.60235737 -840.01055661 274.26224651 -838 274 C-837.34 274.99 -836.68 275.98 -836 277 C-834.9171875 276.566875 -834.9171875 276.566875 -833.8125 276.125 C-831.20833333 275.08333333 -828.60416667 274.04166667 -826 273 C-824.02 275.475 -824.02 275.475 -822 278 C-821.67 277.01 -821.34 276.02 -821 275 C-819.56465159 274.7773254 -818.12654475 274.57238094 -816.6875 274.375 C-815.88699219 274.25898437 -815.08648438 274.14296875 -814.26171875 274.0234375 C-812 274 -812 274 -809 276 C-808.01 276 -807.02 276 -806 276 C-805.67 275.34 -805.34 274.68 -805 274 C-804.34 274 -803.68 274 -803 274 C-803 275.32 -803 276.64 -803 278 C-801.58376784 278.05447047 -800.16691809 278.09300508 -798.75 278.125 C-797.96109375 278.14820313 -797.1721875 278.17140625 -796.359375 278.1953125 C-793.7816426 277.98192406 -792.26448446 277.18981387 -790 276 C-787.75 276.375 -787.75 276.375 -786 277 C-785.67 275.35 -785.34 273.7 -785 272 C-783.02 272.33 -781.04 272.66 -779 273 C-779 273.66 -779 274.32 -779 275 C-775.98968256 275.93423645 -775.13349732 276.04449911 -772 275 C-771.01 275.66 -770.02 276.32 -769 277 C-766.15879766 276.64484971 -763.71952248 275.90650749 -761 275 C-760.67 274.34 -760.34 273.68 -760 273 C-758.68 273.66 -757.36 274.32 -756 275 C-755.34 273.35 -754.68 271.7 -754 270 C-753.01 270 -752.02 270 -751 270 C-751.33 271.98 -751.66 273.96 -752 276 C-752.99 276.33 -753.98 276.66 -755 277 C-751.92478317 278.53760842 -749.65324882 277.36599236 -746.375 276.5625 C-745.18648437 276.27503906 -743.99796875 275.98757813 -742.7734375 275.69140625 C-741.85820313 275.46324219 -740.94296875 275.23507812 -740 275 C-740 274.34 -740 273.68 -740 273 C-735.05 273 -730.1 273 -725 273 C-724.34 274.32 -723.68 275.64 -723 277 C-719.67758556 278.53895387 -717.25185904 277.72373921 -713.875 276.625 C-713.00617187 276.34914063 -712.13734375 276.07328125 -711.2421875 275.7890625 C-709.00279429 275.05345515 -709.00279429 275.05345515 -707 274 C-706.67 275.32 -706.34 276.64 -706 278 C-705.34 278 -704.68 278 -704 278 C-703.7525 277.195625 -703.505 276.39125 -703.25 275.5625 C-702 273 -702 273 -699.875 272.1875 C-699.25625 272.125625 -698.6375 272.06375 -698 272 C-698.66 273.65 -699.32 275.3 -700 277 C-697.18263828 277.78260048 -695.54030762 278.19511109 -692.75 277.1875 C-690.84925076 276.10600632 -690.84925076 276.10600632 -690 274 C-689.34 274 -688.68 274 -688 274 C-688.33 275.32 -688.66 276.64 -689 278 C-687.54077307 277.88590407 -686.08259402 277.75834456 -684.625 277.625 C-683.81289063 277.55539062 -683.00078125 277.48578125 -682.1640625 277.4140625 C-679.79665809 277.17107412 -679.79665809 277.17107412 -678 275 C-676 275 -674 275 -672 275 C-668.72435637 274.07585059 -668.72435637 274.07585059 -666 273 C-666.33 273.99 -666.66 274.98 -667 276 C-665.68 276 -664.36 276 -663 276 C-662.67 275.34 -662.34 274.68 -662 274 C-660.02 274 -658.04 274 -656 274 C-655.67 274.99 -655.34 275.98 -655 277 C-653.04105639 276.88693303 -653.04105639 276.88693303 -651 276 C-649.70339566 273.50965614 -649.70339566 273.50965614 -649 271 C-647.68 271.33 -646.36 271.66 -645 272 C-645.33 273.32 -645.66 274.64 -646 276 C-643.69 275.67 -641.38 275.34 -639 275 C-638.34 275.99 -637.68 276.98 -637 278 C-633.25546624 277.65167128 -631.34224841 277.27705824 -628.375 274.875 C-626 273 -626 273 -623.8125 273.125 C-622 274 -622 274 -620 276 C-619.62875 275.54625 -619.2575 275.0925 -618.875 274.625 C-616.45735315 272.52970606 -614.04569398 271.87986715 -611 271 C-611 272.32 -611 273.64 -611 275 C-605.40158986 274.36621772 -599.93725203 273.44123949 -594.41796875 272.3046875 C-592 272 -592 272 -589 273 C-588.67 273.66 -588.34 274.32 -588 275 C-587.01 275 -586.02 275 -585 275 C-585 274.34 -585 273.68 -585 273 C-582.69 272.67 -580.38 272.34 -578 272 C-577.67 273.65 -577.34 275.3 -577 277 C-573.60663158 277.23674663 -571.58026107 277.35121065 -568.625 275.5625 C-562.43721291 271.8792934 -555.57657791 273.08169941 -548.734375 273.94140625 C-545.82404092 274.00377055 -544.43623369 273.52554634 -542 272 C-541.67 272.66 -541.34 273.32 -541 274 C-539.14092322 274.50374228 -539.14092322 274.50374228 -537 274.6875 C-536.278125 274.77386719 -535.55625 274.86023438 -534.8125 274.94921875 C-533.9153125 274.97435547 -533.9153125 274.97435547 -533 275 C-532.67 274.67 -532.34 274.34 -532 274 C-530.15108054 273.76636119 -528.29511969 273.58696365 -526.4375 273.4375 C-525.42558594 273.35371094 -524.41367187 273.26992188 -523.37109375 273.18359375 C-522.58863281 273.12300781 -521.80617188 273.06242188 -521 273 C-520.814375 273.9590625 -520.814375 273.9590625 -520.625 274.9375 C-520.41875 275.618125 -520.2125 276.29875 -520 277 C-519.34 277.33 -518.68 277.66 -518 278 C-517.01 277.67 -516.02 277.34 -515 277 C-515 276.34 -515 275.68 -515 275 C-514.11957031 275.03480469 -513.23914063 275.06960938 -512.33203125 275.10546875 C-511.17058594 275.13253906 -510.00914062 275.15960937 -508.8125 275.1875 C-507.66394531 275.22230469 -506.51539063 275.25710938 -505.33203125 275.29296875 C-501.68288482 274.97211766 -500.05930216 273.885801 -497 272 C-494.8671875 272.14453125 -494.8671875 272.14453125 -492.875 272.8125 C-490.30931552 273.63611467 -488.75957153 274 -486 274 C-485.67 274.66 -485.34 275.32 -485 276 C-484.34 276 -483.68 276 -483 276 C-482.67 275.01 -482.34 274.02 -482 273 C-478.04 273 -474.08 273 -470 273 C-469.67 274.32 -469.34 275.64 -469 277 C-465.24579153 277.32256842 -465.24579153 277.32256842 -462.0625 275.5 C-459.2587143 273.46088312 -457.4245202 273.86570509 -454 274 C-452.80375 273.79375 -451.6075 273.5875 -450.375 273.375 C-446.97507338 272.99723038 -445.76564175 273.11936361 -443 275 C-442.34 274.01 -441.68 273.02 -441 272 C-440.34 271.67 -439.68 271.34 -439 271 C-438.67 270.34 -438.34 269.68 -438 269 C-437.01 269.66 -436.02 270.32 -435 271 C-437.97 272.98 -437.97 272.98 -441 275 C-440.67 275.66 -440.34 276.32 -440 277 C-434.91696314 277.11320856 -434.91696314 277.11320856 -430 276 C-429.3503125 275.2265625 -429.3503125 275.2265625 -428.6875 274.4375 C-426.21416874 272.33058819 -424.1362632 272.79091579 -421 273 C-421.33 273.66 -421.66 274.32 -422 275 C-421.29875 274.855625 -420.5975 274.71125 -419.875 274.5625 C-418.92625 274.376875 -417.9775 274.19125 -417 274 C-416.0925 273.773125 -415.185 273.54625 -414.25 273.3125 C-411.10637906 273.01022876 -409.47747174 273.31069145 -406.5 274.125 C-402.86152529 275.06078368 -402.15946841 275.06154921 -398.4375 273.625 C-397.633125 273.08875 -396.82875 272.5525 -396 272 C-395.67 273.32 -395.34 274.64 -395 276 C-394.67 275.01 -394.34 274.02 -394 273 C-392.515 273.3403125 -392.515 273.3403125 -391 273.6875 C-386.38990295 274.3851425 -383.20066447 272.8423967 -379 271 C-379 271.66 -379 272.32 -379 273 C-379.66 273 -380.32 273 -381 273 C-381 273.99 -381 274.98 -381 276 C-375.96488101 277.0070238 -372.76052962 276.97387813 -368 275 C-368 274.34 -368 273.68 -368 273 C-365.69 273 -363.38 273 -361 273 C-361 273.99 -361 274.98 -361 276 C-357.43048241 275.3880827 -354.34366413 274.37175964 -351 273 C-347.57811391 271.82372666 -345.51302555 272.23629879 -342 273 C-338.67130639 273.38349005 -335.33676306 273.69547988 -332 274 C-332 273.34 -332 272.68 -332 272 C-326.25 271.875 -326.25 271.875 -324 273 C-322.33178677 272.67449498 -320.66500443 272.34153937 -319 272 C-318.67 272.33 -318.34 272.66 -318 273 C-315.65012738 273.23527773 -313.29443961 273.41386417 -310.9375 273.5625 C-309.64714844 273.64628906 -308.35679687 273.73007812 -307.02734375 273.81640625 C-306.02832031 273.87699219 -305.02929688 273.93757812 -304 274 C-304 274.66 -304 275.32 -304 276 C-299.545 275.01 -299.545 275.01 -295 274 C-294.34 274.99 -293.68 275.98 -293 277 C-291.96875 276.649375 -290.9375 276.29875 -289.875 275.9375 C-286 275 -286 275 -283.0625 275.5625 C-278.67629015 276.18910141 -276.03880281 274.74086328 -272 273 C-272 273.66 -272 274.32 -272 275 C-270.25328412 275.79356801 -270.25328412 275.79356801 -268 276 C-265.27018168 274.64599355 -265.27018168 274.64599355 -263 273 C-263 273.66 -263 274.32 -263 275 C-261.68 275 -260.36 275 -259 275 C-259 274.34 -259 273.68 -259 273 C-258.34 273 -257.68 273 -257 273 C-257 272.01 -257 271.02 -257 270 C-256.34 270.33 -255.68 270.66 -255 271 C-254.67 271.99 -254.34 272.98 -254 274 C-254.66 274.33 -255.32 274.66 -256 275 C-253.65466049 275.76956136 -253.65466049 275.76956136 -251 276 C-249.97803008 275.02246356 -248.98020375 274.0194119 -248 273 C-244.8125 272.3125 -244.8125 272.3125 -242 272 C-242.66 273.32 -243.32 274.64 -244 276 C-237.84237788 276.32987261 -233.57733135 275.73974171 -228 273 C-227.22806288 270.95702552 -227.22806288 270.95702552 -227 269 C-225.0625 269.3125 -225.0625 269.3125 -223 270 C-222.67 270.99 -222.34 271.98 -222 273 C-219.14615953 274.37407134 -217.8365452 273.95284958 -214.75 273.0625 C-213.38875 272.5365625 -213.38875 272.5365625 -212 272 C-212.33 273.32 -212.66 274.64 -213 276 C-212.28972656 275.91621094 -211.57945313 275.83242188 -210.84765625 275.74609375 C-209.92855469 275.64425781 -209.00945312 275.54242187 -208.0625 275.4375 C-207.14597656 275.33308594 -206.22945312 275.22867188 -205.28515625 275.12109375 C-204.53105469 275.08113281 -203.77695313 275.04117188 -203 275 C-202.67 275.33 -202.34 275.66 -202 276 C-200.35659133 276.09854655 -198.7088539 276.12972411 -197.0625 276.125 C-196.16660156 276.12757813 -195.27070312 276.13015625 -194.34765625 276.1328125 C-191.97844445 276.15421413 -191.97844445 276.15421413 -190 275 C-190 274.34 -190 273.68 -190 273 C-186.625 273.3125 -186.625 273.3125 -183 274 C-182.34 274.99 -181.68 275.98 -181 277 C-181 276.34 -181 275.68 -181 275 C-180.34 275 -179.68 275 -179 275 C-179 274.34 -179 273.68 -179 273 C-169.92307692 272.84615385 -169.92307692 272.84615385 -166 274 C-165.34 274.66 -164.68 275.32 -164 276 C-163.34 275.01 -162.68 274.02 -162 273 C-161.34 273.33 -160.68 273.66 -160 274 C-159.154375 273.835 -158.30875 273.67 -157.4375 273.5 C-154.05376469 273.00782032 -151.27995771 273.29296522 -147.9140625 273.73828125 C-143.96057841 274.09335288 -140.03005198 274.11877802 -136.0625 274.125 C-134.92494263 274.13164673 -134.92494263 274.13164673 -133.7644043 274.13842773 C-129.75210732 274.21405685 -129.75210732 274.21405685 -126 273 C-125.01 273.33 -124.02 273.66 -123 274 C-122.01 273.01 -121.02 272.02 -120 271 C-119.67 271.66 -119.34 272.32 -119 273 C-115.93090555 273.66719444 -113.14213983 274 -110 274 C-107.83240315 274.13128486 -105.66577464 274.2789692 -103.5 274.4375 C-102.3553125 274.51871094 -101.210625 274.59992188 -100.03125 274.68359375 C-97 275 -97 275 -94 276 C-90.00751252 274.87391379 -87.75264252 273.05849168 -85 270 C-85.33 271.32 -85.66 272.64 -86 274 C-81.34947128 274.26932521 -81.34947128 274.26932521 -77 273 C-77 272.01 -77 271.02 -77 270 C-74 271 -74 271 -72 274 C-70.68 273.67 -69.36 273.34 -68 273 C-68 273.66 -68 274.32 -68 275 C-64.04 275.495 -64.04 275.495 -60 276 C-60 274.68 -60 273.36 -60 272 C-59.401875 272.185625 -58.80375 272.37125 -58.1875 272.5625 C-55.83591238 273.22093687 -55.83591238 273.22093687 -53 272 C-52.67 271.34 -52.34 270.68 -52 270 C-51.34 270 -50.68 270 -50 270 C-50.33 271.65 -50.66 273.3 -51 275 C-49.79601563 274.9278125 -48.59203125 274.855625 -47.3515625 274.78125 C-45.77604351 274.68746911 -44.20052257 274.5937208 -42.625 274.5 C-41.8309375 274.45230469 -41.036875 274.40460938 -40.21875 274.35546875 C-34.2265625 274 -34.2265625 274 -32 274 C-29.71767582 271.79311693 -29.71767582 271.79311693 -28 269 C-28.33 267.68 -28.66 266.36 -29 265 C-24.71 265.33 -20.42 265.66 -16 266 C-16 266.66 -16 267.32 -16 268 C-16.99 268.33 -17.98 268.66 -19 269 C-19.33 269.99 -19.66 270.98 -20 272 C-19.01 272 -18.02 272 -17 272 C-17 272.66 -17 273.32 -17 274 C-15.07690578 273.96044102 -15.07690578 273.96044102 -13 273 C-10.69569706 269.24608256 -10.69569706 269.24608256 -10 265 C-7.66785852 263.79371992 -5.50357861 262.8345262 -3 262 C-2.67 263.32 -2.34 264.64 -2 266 C-0.14223235 262.86501708 0.20140476 260.62528568 0 257 C0.66 257 1.32 257 2 257 C3.6446674 254.53673288 3.6446674 254.53673288 5 252 C4.67 251.67 4.34 251.34 4 251 C5.65 251 7.3 251 9 251 C9.33 250.34 9.66 249.68 10 249 C11.84765625 248.1484375 11.84765625 248.1484375 14.0625 247.375 C14.79597656 247.11460937 15.52945312 246.85421875 16.28515625 246.5859375 C16.85105469 246.39257812 17.41695312 246.19921875 18 246 C18 244.68 18 243.36 18 242 C18.969375 241.71125 19.93875 241.4225 20.9375 241.125 C24.10664203 240.35785318 24.10664203 240.35785318 25 238 C27.06640625 237.5859375 27.06640625 237.5859375 29.5625 237.375 C30.38878906 237.30023437 31.21507812 237.22546875 32.06640625 237.1484375 C32.70449219 237.09945312 33.34257813 237.05046875 34 237 C34 236.01 34 235.02 34 234 C32.68 233.67 31.36 233.34 30 233 C30.639375 232.79375 31.27875 232.5875 31.9375 232.375 C34.34925077 231.10461791 34.34925077 231.10461791 34.75 227.875 C34.87375 226.451875 34.87375 226.451875 35 225 C36.32 224.67 37.64 224.34 39 224 C39.99 226.64 40.98 229.28 42 232 C46.06190119 226.93559704 46.06190119 226.93559704 47.1953125 220.76953125 C47.18886719 219.96708984 47.18242188 219.16464844 47.17578125 218.33789062 C47.15902344 217.50451172 47.14226562 216.67113281 47.125 215.8125 C47.11146484 214.5450293 47.11146484 214.5450293 47.09765625 213.25195312 C47.07410703 211.16784757 47.03823647 209.08388783 47 207 C46.34 207 45.68 207 45 207 C45 206.34 45 205.68 45 205 C45.66 204.67 46.32 204.34 47 204 C46.67 203.01 46.34 202.02 46 201 C46.99 200.67 47.98 200.34 49 200 C48.34 199.01 47.68 198.02 47 197 C47.66 197 48.32 197 49 197 C48.67 195.68 48.34 194.36 48 193 C49.32 192.34 50.64 191.68 52 191 C51.67 190.01 51.34 189.02 51 188 C51.66 187.67 52.32 187.34 53 187 C53 186.34 53 185.68 53 185 C54.485 184.505 54.485 184.505 56 184 C56.59070014 182.05396726 56.59070014 182.05396726 57 180 C57.66 179.34 58.32 178.68 59 178 C59 177.34 59 176.68 59 176 C57.68 176 56.36 176 55 176 C55 173 55 173 56.0625 171.25 C57.41576406 168.00216626 56.54998527 165.42213058 56 162 C56.4375 159.5625 56.4375 159.5625 57 158 C56.34 157.67 55.68 157.34 55 157 C54.29373761 155.01363702 53.63106429 153.01151741 53 151 C52.50306641 150.05253906 52.50306641 150.05253906 51.99609375 149.0859375 C50.61218006 146.18785943 50.20665351 143.26743235 49.66015625 140.12109375 C48.89172124 137.65209842 47.86028205 136.74667704 46 135 C43.0570337 128.66130334 41.65363556 125.41418759 43.72265625 118.83984375 C43.81417969 118.23269531 43.90570312 117.62554687 44 117 C43.34 116.34 42.68 115.68 42 115 C40.515 116.485 40.515 116.485 39 118 C37.93453047 114.8035914 37.92572162 112.34252724 38 109 C37.236875 108.979375 36.47375 108.95875 35.6875 108.9375 C34.800625 108.628125 33.91375 108.31875 33 108 C32.2942527 106.38686331 31.60261244 104.76522527 31.00390625 103.109375 C28.17173718 97.15851392 22.87176669 91.9124712 17 89 C13.76443801 89.21849209 13.76443801 89.21849209 11 90 C11.33 89.01 11.66 88.02 12 87 C9.87640616 84.37500791 9.87640616 84.37500791 7 82 C5.989375 82 4.97875 82 3.9375 82 C2.968125 82 1.99875 82 1 82 C0.0409375 80.7934375 0.0409375 80.7934375 -0.9375 79.5625 C-2.84514373 76.66455809 -2.84514373 76.66455809 -6.5 76.125 C-9.78108014 75.82042859 -9.78108014 75.82042859 -11.95703125 76.5859375 C-14.54998495 77.11146923 -15.77118034 76.52110412 -18.1875 75.5 C-23.14195848 73.69615268 -26.89669632 74.16437133 -32 75 C-33.6662553 75.0370279 -35.33401319 75.04759962 -37 75 C-38.32 75 -39.64 75 -41 75 C-41.99 75 -42.98 75 -44 75 C-44.33 74.34 -44.66 73.68 -45 73 C-45.53625 73.28875 -46.0725 73.5775 -46.625 73.875 C-49.35280484 75.16711808 -52.12612718 76.08558592 -55 77 C-55.33 76.34 -55.66 75.68 -56 75 C-56.99 75 -57.98 75 -59 75 C-59 75.66 -59 76.32 -59 77 C-59.66 77 -60.32 77 -61 77 C-61 76.34 -61 75.68 -61 75 C-61.66 75 -62.32 75 -63 75 C-63.33 74.34 -63.66 73.68 -64 73 C-64 73.66 -64 74.32 -64 75 C-65.299375 74.979375 -66.59875 74.95875 -67.9375 74.9375 C-69.29165633 74.91600546 -70.64756083 74.92851801 -72 75 C-72.33 75.33 -72.66 75.66 -73 76 C-75.55563371 76.07211665 -78.09660453 75.99633716 -80.65234375 75.9375 C-83.02245407 75.83487207 -83.02245407 75.83487207 -85 77 C-85.33 76.01 -85.66 75.02 -86 74 C-86.33 74.66 -86.66 75.32 -87 76 C-87.928125 75.79375 -88.85625 75.5875 -89.8125 75.375 C-93.15173402 74.63307034 -93.15173402 74.63307034 -96 77 C-98.60481085 77.17094977 -101.08682619 77.2349305 -103.6875 77.1875 C-104.41428955 77.18105469 -105.1410791 77.17460937 -105.88989258 77.16796875 C-109.35231087 77.11816658 -112.76088588 77.00956115 -116.1875 76.5 C-121.76750776 75.7681957 -127.37938269 75.71938181 -133 76 C-133.33 76.33 -133.66 76.66 -134 77 C-135.99952758 77.04346799 -138.00039988 77.039992 -140 77 C-140.99 77 -141.98 77 -143 77 C-143.33 76.01 -143.66 75.02 -144 74 C-152.75627582 75.19486028 -152.75627582 75.19486028 -160.6875 78.75 C-161.450625 79.1625 -162.21375 79.575 -163 80 C-163.73992187 79.69964844 -164.47984375 79.39929688 -165.2421875 79.08984375 C-168.48900677 77.80675228 -170.95682746 77.76740295 -174.4375 77.8125 C-175.52933594 77.81894531 -176.62117188 77.82539063 -177.74609375 77.83203125 C-180.98647737 77.93347076 -180.98647737 77.93347076 -184.0859375 78.5390625 C-186.99232095 78.99878535 -189.27934883 78.91886951 -192.1875 78.5625 C-200.58969681 77.62314929 -200.58969681 77.62314929 -209 78 C-209.66 78.70125 -210.32 79.4025 -211 80.125 C-211.66 80.74375 -212.32 81.3625 -213 82 C-217.71837039 81.79324825 -222.22600434 80.74185273 -226.578125 78.921875 C-229.03733052 77.98579032 -230.70592432 77.7866415 -233.3125 77.875 C-234.529375 77.91625 -235.74625 77.9575 -237 78 C-237.33 76.68 -237.66 75.36 -238 74 C-241.04881436 73.712376 -243.96357174 73.54125904 -247 74 C-248.04892238 75.63631892 -249.04906703 77.30485863 -250 79 C-253.3649218 80.05854831 -256.75697784 80.62151108 -260 79 C-263.11288759 78.79247416 -265.37499252 78.7222189 -268.25 80 C-272.40984567 81.51267115 -276.61372333 81.33382283 -281 81 C-281.66 80.67 -282.32 80.34 -283 80 C-283 80.66 -283 81.32 -283 82 C-293.09803922 83.45098039 -293.09803922 83.45098039 -298 81 C-299.32 81 -300.64 81 -302 81 C-302 81.66 -302 82.32 -302 83 C-302.66 83 -303.32 83 -304 83 C-303 80 -303 80 -301.4375 78.5625 C-299.54862898 76.86323949 -299.54862898 76.86323949 -300 73 C-300 72.67 -300 72.34 -300 72 C-300.763125 72 -301.52625 72 -302.3125 72 C-308 72 -308 72 -310.875 71.3125 C-314.71899425 70.92810058 -315.85331599 71.90221066 -319 74 C-321.8125 74.6875 -321.8125 74.6875 -324 75 C-324.66 77.64 -325.32 80.28 -326 83 C-326.99 82.34 -327.98 81.68 -329 81 C-331.00284159 81.01042407 -331.00284159 81.01042407 -333.0625 81.4375 C-337 82 -337 82 -339 81 C-339.66 81.99 -340.32 82.98 -341 84 C-343.1875 84.9375 -343.1875 84.9375 -346 85 C-348.52912973 83.87710838 -350.66238326 82.51257554 -353 81 C-353 79.68 -353 78.36 -353 77 C-352.34 76.67 -351.68 76.34 -351 76 C-351 75.34 -351 74.68 -351 74 C-350.34 73.67 -349.68 73.34 -349 73 C-352.1879913 71.09309527 -354.26095088 70.79661881 -357.9375 71.1875 C-358.77152344 71.26355469 -359.60554688 71.33960938 -360.46484375 71.41796875 C-364.83521711 72.42133644 -367.29976378 73.95040515 -369.80078125 77.69921875 C-370.29964844 78.68535156 -370.79851563 79.67148437 -371.3125 80.6875 C-371.82425781 81.68136719 -372.33601563 82.67523438 -372.86328125 83.69921875 C-373.23839844 84.45847656 -373.61351562 85.21773437 -374 86 C-375.32 85.34 -376.64 84.68 -378 84 C-379.485 85.98 -379.485 85.98 -381 88 C-385.62 86.35 -390.24 84.7 -395 83 C-395 81.35 -395 79.7 -395 78 C-396.6396875 77.7834375 -396.6396875 77.7834375 -398.3125 77.5625 C-402 77 -402 77 -405 76 C-407.33299825 75.96045766 -409.66708189 75.95598268 -412 76 C-412.185625 74.7934375 -412.185625 74.7934375 -412.375 73.5625 C-412.58125 72.716875 -412.7875 71.87125 -413 71 C-413.66 70.67 -414.32 70.34 -415 70 Z M-900 78 C-900 79.65 -900 81.3 -900 83 C-899.67 83 -899.34 83 -899 83 C-899 81.35 -899 79.7 -899 78 C-899.33 78 -899.66 78 -900 78 Z M-387 82 C-386 84 -386 84 -386 84 Z M41 233 C41 233.66 41 234.32 41 235 C40.01 235 39.02 235 38 235 C38.33 235.66 38.66 236.32 39 237 C39.99 237.33 40.98 237.66 42 238 C42.33 237.01 42.66 236.02 43 235 C42.34 234.34 41.68 233.68 41 233 Z M-1216 245 C-1215 247 -1215 247 -1215 247 Z M-859 274 C-858 276 -858 276 -858 276 Z M-544 275 C-544 275.66 -544 276.32 -544 277 C-543.34 277 -542.68 277 -542 277 C-542 276.34 -542 275.68 -542 275 C-542.66 275 -543.32 275 -544 275 Z " fill="#91673D" transform="translate(1460,383)"/>
<path d="M0 0 C0.721875 0.103125 1.44375 0.20625 2.1875 0.3125 C1.6015625 6.46484375 1.6015625 6.46484375 1.1875 8.3125 C-1.52129335 9.66689668 -3.82183268 9.37751451 -6.8125 9.3125 C-7.625 7.625 -7.625 7.625 -7.8125 5.3125 C-5.38938332 2.17670194 -4.02309723 0.4470108 0 0 Z " fill="#91673D" transform="translate(675.8125,461.6875)"/>
<path d="M0 0 C0 1.98 0 3.96 0 6 C-1.98 6.99 -1.98 6.99 -4 8 C-4.33 6.68 -4.66 5.36 -5 4 C-5.66 4 -6.32 4 -7 4 C-7 3.01 -7 2.02 -7 1 C-4.50935112 0.31292445 -2.62113708 0 0 0 Z " fill="#91673D" transform="translate(966,463)"/>
<path d="M0 0 C1.32 0.33 2.64 0.66 4 1 C3.67 2.98 3.34 4.96 3 7 C1.68 7.33 0.36 7.66 -1 8 C-1.625 5.6875 -1.625 5.6875 -2 3 C-1.34 2.01 -0.68 1.02 0 0 Z " fill="#91673D" transform="translate(456,462)"/>
<path d="M0 0 C1.32 0 2.64 0 4 0 C3.67 1.32 3.34 2.64 3 4 C2.34 4 1.68 4 1 4 C0.67 4.99 0.34 5.98 0 7 C-0.99 6.67 -1.98 6.34 -3 6 C-2.42655063 3.13275314 -2.1385485 2.1385485 0 0 Z " fill="#91673D" transform="translate(647,463)"/>
<path d="M0 0 C1.32 0.33 2.64 0.66 4 1 C3.34 2.32 2.68 3.64 2 5 C1.34 5 0.68 5 0 5 C0 3.35 0 1.7 0 0 Z " fill="#91673D" transform="translate(1364,649)"/>
<path d="M0 0 C-0.66 1.32 -1.32 2.64 -2 4 C-2.99 3.67 -3.98 3.34 -5 3 C-5 2.34 -5 1.68 -5 1 C-3 0 -3 0 0 0 Z " fill="#91673D" transform="translate(857,466)"/>
<path d="M0 0 C0.33 1.32 0.66 2.64 1 4 C-0.65 4 -2.3 4 -4 4 C-2.68 2.68 -1.36 1.36 0 0 Z " fill="#91673D" transform="translate(1444,643)"/>
<path d="M0 0 C0.99 0 1.98 0 3 0 C3 0.99 3 1.98 3 3 C2.01 3.33 1.02 3.66 0 4 C0 2.68 0 1.36 0 0 Z " fill="#91673D" transform="translate(385,463)"/>
<path d="M0 0 C0.99 0.495 0.99 0.495 2 1 C1.67 2.32 1.34 3.64 1 5 C0.67 5 0.34 5 0 5 C0 3.35 0 1.7 0 0 Z " fill="#91673D" transform="translate(691,654)"/>
<path d="M0 0 C0.66 0 1.32 0 2 0 C1.67 0.99 1.34 1.98 1 3 C0.01 2.67 -0.98 2.34 -2 2 C-1.34 1.34 -0.68 0.68 0 0 Z " fill="#91673D" transform="translate(479,651)"/>
<path d="M0 0 C0.66 0.33 1.32 0.66 2 1 C1.67 1.99 1.34 2.98 1 4 C0.34 3.34 -0.32 2.68 -1 2 C-0.67 1.34 -0.34 0.68 0 0 Z " fill="#91673D" transform="translate(558,468)"/>
<path d="M0 0 C0.66 0 1.32 0 2 0 C1.67 0.99 1.34 1.98 1 3 C0.34 3 -0.32 3 -1 3 C-0.67 2.01 -0.34 1.02 0 0 Z " fill="#91673D" transform="translate(879,464)"/>
<path d="M0 0 C0.66 0 1.32 0 2 0 C1.67 0.99 1.34 1.98 1 3 C0.34 2.67 -0.32 2.34 -1 2 C-0.67 1.34 -0.34 0.68 0 0 Z " fill="#91673D" transform="translate(1180,652)"/>
<path d="M0 0 C1.32 0 2.64 0 4 0 C4 0.66 4 1.32 4 2 C2.68 1.34 1.36 0.68 0 0 Z " fill="#91673D" transform="translate(1205,651)"/>
<path d="M0 0 C0.99 0.33 1.98 0.66 3 1 C2.01 1.66 1.02 2.32 0 3 C0 2.01 0 1.02 0 0 Z " fill="#91673D" transform="translate(1378,461)"/>
<path d="M0 0 C0.66 0 1.32 0 2 0 C2 0.66 2 1.32 2 2 C1.01 1.67 0.02 1.34 -1 1 C-0.67 0.67 -0.34 0.34 0 0 Z " fill="#91673D" transform="translate(1240,649)"/>
<path d="M0 0 C0.66 0.66 1.32 1.32 2 2 C1.01 2.495 1.01 2.495 0 3 C0 2.01 0 1.02 0 0 Z " fill="#91673D" transform="translate(560,651)"/>
<path d="M0 0 C0.66 0 1.32 0 2 0 C2 0.66 2 1.32 2 2 C1.34 2 0.68 2 0 2 C0 1.34 0 0.68 0 0 Z " fill="#91673D" transform="translate(1354,650)"/>
<path d="M0 0 C0 3 0 3 0 3 Z " fill="#91673D" transform="translate(1483,617)"/>
<path d="M0 0 C3 1 3 1 3 1 Z " fill="#91673D" transform="translate(441,655)"/>
<path d="" fill="#91673D" transform="translate(0,0)"/>
<path d="M0 0 C0.66 0 1.32 0 2 0 C1.67 0.66 1.34 1.32 1 2 C0.67 1.34 0.34 0.68 0 0 Z " fill="#91673D" transform="translate(1496,502)"/>
<path d="M0 0 C3 1 3 1 3 1 Z " fill="#91673D" transform="translate(523,470)"/>
<path d="" fill="#91673D" transform="translate(0,0)"/>
<path d="" fill="#91673D" transform="translate(0,0)"/>
<path d="" fill="#91673D" transform="translate(0,0)"/>
<path d="" fill="#91673D" transform="translate(0,0)"/>
<path d="M0 0 C2 1 2 1 2 1 Z " fill="#91673D" transform="translate(1133,650)"/>
<path d="M0 0 C2 1 2 1 2 1 Z " fill="#91673D" transform="translate(1509,550)"/>
<path d="" fill="#91673D" transform="translate(0,0)"/>
<path d="M0 0 C2 1 2 1 2 1 Z " fill="#91673D" transform="translate(537,469)"/>
<path d="" fill="#91673D" transform="translate(0,0)"/>
<path d="" fill="#91673D" transform="translate(0,0)"/>
<path d="" fill="#91673D" transform="translate(0,0)"/>
<path d="" fill="#91673D" transform="translate(0,0)"/>
<path d="" fill="#91673D" transform="translate(0,0)"/>
<path d="" fill="#91673D" transform="translate(0,0)"/>
<path d="" fill="#91673D" transform="translate(0,0)"/>
<path d="" fill="#91673D" transform="translate(0,0)"/>
<path d="" fill="#91673D" transform="translate(0,0)"/>
<path d="" fill="#91673D" transform="translate(0,0)"/>
<path d="" fill="#91673D" transform="translate(0,0)"/>
<path d="" fill="#91673D" transform="translate(0,0)"/>
<path d="" fill="#91673D" transform="translate(0,0)"/>
<path d="" fill="#91673D" transform="translate(0,0)"/>
<path d="" fill="#91673D" transform="translate(0,0)"/>
<path d="" fill="#91673D" transform="translate(0,0)"/>
</svg>
