<?xml version="1.0" encoding="UTF-8"?>
<svg version="1.1" xmlns="http://www.w3.org/2000/svg" width="1920" height="1080">
<path d="M0 0 C1.3303125 -0.309375 1.3303125 -0.309375 2.6875 -0.625 C3.8321875 -0.810625 3.8321875 -0.810625 5 -1 C6.02297922 -0.02351983 7.01904252 0.98131338 8 2 C9.03125 2.2475 10.0625 2.495 11.125 2.75 C15.52975237 3.82319178 18.42106337 6.51720483 21.7890625 9.44140625 C24.23721425 11.16722347 26.09130546 11.47881753 29 12 C29.33 12.66 29.66 13.32 30 14 C31.5778125 13.5359375 31.5778125 13.5359375 33.1875 13.0625 C38.68012084 11.5317696 43.27273023 10.88770059 49 11 C48.94199219 10.38511719 48.88398438 9.77023437 48.82421875 9.13671875 C48.6870957 6.68025729 48.65543691 4.43778388 49 2 C51.1875 -0.1875 51.1875 -0.1875 54 -1 C56.5625 -0.75 56.5625 -0.75 59 1 C60.6227971 3.89785197 61.85326868 6.88652838 63 10 C63.86625 9.835 64.7325 9.67 65.625 9.5 C68.81225199 9.02781452 71.78485027 8.92344882 75 9 C74.79375 8.38125 74.5875 7.7625 74.375 7.125 C74.25125 6.42375 74.1275 5.7225 74 5 C74.66 4.34 75.32 3.68 76 3 C76.721875 3.020625 77.44375 3.04125 78.1875 3.0625 C82.02410395 2.97724213 84.53833951 1.6290167 88 0 C90.36913861 2.20574974 91.88164305 3.69366437 93.0625 6.75 C94.78728604 9.21927389 94.78728604 9.21927389 97.45703125 9.4921875 C102.88352054 9.77759577 102.88352054 9.77759577 107.83203125 7.8671875 C109.36150245 6.39430455 109.36150245 6.39430455 111 4 C116.75 5.625 116.75 5.625 119 9 C119.70125 8.401875 120.4025 7.80375 121.125 7.1875 C124.01709399 4.9869937 126.63145227 3.36175334 130 2 C131.33981486 2.3062434 132.67511887 2.63451555 134 3 C134.43957031 2.53335937 134.87914062 2.06671875 135.33203125 1.5859375 C137.4056696 -0.38571863 138.68507637 -0.5653584 141.5 -0.875 C142.66015625 -1.02582031 142.66015625 -1.02582031 143.84375 -1.1796875 C146 -1 146 -1 147.70703125 0.19921875 C149.25759509 2.35876537 149.69680577 4.083046 150.1875 6.6875 C150.42533203 7.89986328 150.42533203 7.89986328 150.66796875 9.13671875 C150.77753906 9.75160156 150.88710938 10.36648438 151 11 C152.485 10.505 152.485 10.505 154 10 C153.773125 9.236875 153.54625 8.47375 153.3125 7.6875 C153 5 153 5 154.125 3.375 C154.74375 2.92125 155.3625 2.4675 156 2 C157.11375 1.1646875 157.11375 1.1646875 158.25 0.3125 C161.81313598 -1.38808763 164.09730031 -1.56766541 168 -1 C170.3125 1.3125 170.3125 1.3125 172 4 C172.66 4.99 173.32 5.98 174 7 C174.7115625 6.01 174.7115625 6.01 175.4375 5 C179.92768327 1.49546672 185.30734579 2.85924244 190.7109375 3.30859375 C192.02320313 3.41300781 193.33546875 3.51742188 194.6875 3.625 C195.92886719 3.74101562 197.17023438 3.85703125 198.44921875 3.9765625 C202.13701556 4.00090439 204.58754626 3.32250683 208 2 C213.20531551 0.88457525 216.03937829 1.31127772 221 3 C222.03125 2.79375 223.0625 2.5875 224.125 2.375 C225.07375 2.25125 226.0225 2.1275 227 2 C227.61875 2.639375 228.2375 3.27875 228.875 3.9375 C230.73713978 6.15927421 230.73713978 6.15927421 232.8828125 6.234375 C234.25635399 6.20396449 235.62969533 6.14199467 237 6.04296875 C239.18642784 5.99599471 240.88583813 6.46644492 243 7 C248.72679092 7.31660308 254.76044151 7.61977925 260 5 C260.94875 5.33 261.8975 5.66 262.875 6 C266.05604231 7.01793354 266.96632308 6.97511044 270 6 C270.66 6.33 271.32 6.66 272 7 C272 6.34 272 5.68 272 5 C272.721875 5.226875 273.44375 5.45375 274.1875 5.6875 C277.07851732 6.2963141 277.07851732 6.2963141 279.5 4.5 C282 3 282 3 284.625 3.25 C286.42177527 3.81740272 288.21245629 4.4041521 290 5 C290.66 4.34 291.32 3.68 292 3 C295.16015625 2.98828125 295.16015625 2.98828125 299.0625 3.3125 C300.07534058 3.39588623 300.07534058 3.39588623 301.10864258 3.48095703 C303.07311313 3.64601488 305.03658968 3.82277534 307 4 C307.94101562 4.06316406 308.88203125 4.12632812 309.8515625 4.19140625 C315.57664252 4.64137073 315.57664252 4.64137073 317.890625 6.6015625 C319.95548156 8.28794089 319.95548156 8.28794089 322.69140625 7.75 C323.63886719 7.5025 324.58632813 7.255 325.5625 7 C328.44140625 6.25 328.44140625 6.25 331 6 C332.83984375 7.4375 332.83984375 7.4375 334 9 C334.66 8.34 335.32 7.68 336 7 C338.05859375 6.76953125 338.05859375 6.76953125 340.4375 6.8125 C341.61119141 6.82216797 341.61119141 6.82216797 342.80859375 6.83203125 C345 7 345 7 348 8 C348.66 7.34 349.32 6.68 350 6 C352.05859375 5.515625 352.05859375 5.515625 354.4375 5.25 C355.61119141 5.10304688 355.61119141 5.10304688 356.80859375 4.953125 C359 5 359 5 362 7 C364.53951544 6.90888062 364.53951544 6.90888062 367 6 C367.43957031 5.48179687 367.87914062 4.96359375 368.33203125 4.4296875 C370 3 370 3 372.48046875 2.92578125 C373.82044922 3.11720703 373.82044922 3.11720703 375.1875 3.3125 C376.08855469 3.43238281 376.98960937 3.55226563 377.91796875 3.67578125 C378.60503906 3.78277344 379.29210937 3.88976562 380 4 C380.27972656 3.35933594 380.55945313 2.71867187 380.84765625 2.05859375 C382 0 382 0 384.4375 -0.9375 C387 -1 387 -1 388.8125 0.3125 C390 2 390 2 390 4 C390.969375 4.2475 391.93875 4.495 392.9375 4.75 C393.948125 5.1625 394.95875 5.575 396 6 C396.875 8.125 396.875 8.125 397 10 C400.71599191 10.20086443 401.77208445 10.1519437 405 8 C409.45843134 7.60369499 412.83998439 8.41523215 417 10 C417.185625 9.38125 417.37125 8.7625 417.5625 8.125 C419.30668147 5.54664479 420.83061914 5.07648414 423.8046875 4.3671875 C427.32870968 3.7777603 430.8637937 3.48802037 434.42578125 3.23046875 C437.13396659 3.04728733 437.13396659 3.04728733 440.25 2.25 C444.25344251 1.88605068 446.46106471 3.12644602 450 5 C450.33 5.66 450.66 6.32 451 7 C451.70125 6.690625 452.4025 6.38125 453.125 6.0625 C457.21062163 4.55259635 460.43180738 3.52589525 464.6875 4.8125 C467 6 467 6 470 8 C470.33 6.68 470.66 5.36 471 4 C472.97033203 4.03480469 472.97033203 4.03480469 474.98046875 4.0703125 C476.71614013 4.08907651 478.45181768 4.10727604 480.1875 4.125 C481.05181641 4.14175781 481.91613281 4.15851563 482.80664062 4.17578125 C487.44522623 4.21132597 490.71488969 3.90202651 495 2 C497.9375 1.76953125 497.9375 1.76953125 501 1.8125 C502.010625 1.81894531 503.02125 1.82539063 504.0625 1.83203125 C506.81152813 1.98922302 509.30759553 2.45717652 512 3 C513.58280637 3.04084662 515.1672369 3.04249028 516.75 3 C518.16616987 2.96248557 519.58410678 2.95319361 521 3 C521.33 3.33 521.66 3.66 522 4 C522.33 3.34 522.66 2.68 523 2 C523.64066406 2.16757812 524.28132812 2.33515625 524.94140625 2.5078125 C530.84988811 3.89907946 534.13757381 3.75872786 540 2 C543.54314784 1.96261626 547.05812148 2.06230164 550.59765625 2.22265625 C554.41654354 1.97274055 556.67667494 0.8201448 560 -1 C562.1875 -0.75 562.1875 -0.75 564 0 C568.00660185 1.33553395 571.18008574 0.55634138 575.30859375 -0.0390625 C578.53387593 0.00774856 579.66916145 0.85099992 582 3 C582 2.34 582 1.68 582 1 C582.99 1 583.98 1 585 1 C585.33 1.66 585.66 2.32 586 3 C588.75279778 4.44586908 588.75279778 4.44586908 592 5 C592.825 4.505 593.65 4.01 594.5 3.5 C595.325 3.005 596.15 2.51 597 2 C600.0625 2.875 600.0625 2.875 603 4 C605.2875976 3.72359986 605.2875976 3.72359986 607 3 C607.66 3.99 608.32 4.98 609 6 C612.02689417 5.49481236 612.02689417 5.49481236 614.25 3.5 C617.03881381 1.10958816 620.44756969 1.02602513 624 1 C626.54514682 1.42758467 629.02540563 2.0060676 631.53515625 2.60546875 C632.36917969 2.79753906 633.20320313 2.98960937 634.0625 3.1875 C634.89910156 3.38730469 635.73570312 3.58710938 636.59765625 3.79296875 C639.41817302 4.03603768 640.54192664 3.27283883 643 2 C645.75 3.375 645.75 3.375 648 5 C648.66 4.01 649.32 3.02 650 2 C650.721875 2.37125 651.44375 2.7425 652.1875 3.125 C655.67377039 4.20961746 656.76602631 3.49260324 660 2 C663.30300113 2 665.84308184 2.16923206 669 3 C669.66 3.66 670.32 4.32 671 5 C671.515625 4.67 672.03125 4.34 672.5625 4 C675.81215644 2.66680762 678.52001247 2.80666736 682 3 C682.66 3.33 683.32 3.66 684 4 C684.66 2.68 685.32 1.36 686 0 C687.98 0 689.96 0 692 0 C692.66 1.32 693.32 2.64 694 4 C694.71542969 3.9278125 695.43085937 3.855625 696.16796875 3.78125 C702.83950355 3.15983926 709.3903923 2.92967321 716.08984375 3.0625 C719.00018569 3.08812882 719.00018569 3.08812882 721.79296875 2.421875 C722.52128906 2.28265625 723.24960938 2.1434375 724 2 C725.375 3.25 725.375 3.25 727 5 C730.37668094 6.89959629 730.37668094 6.89959629 734 8 C736.13355094 7.18330183 736.13355094 7.18330183 738 6 C741.48883564 6.34037421 743.02819033 7.01879355 746 9 C746.33 8.01 746.66 7.02 747 6 C748.12019531 6.09539062 749.24039063 6.19078125 750.39453125 6.2890625 C751.8671435 6.40161885 753.33980237 6.5135663 754.8125 6.625 C755.55048828 6.68945312 756.28847656 6.75390625 757.04882812 6.8203125 C761.80558496 7.17970261 761.80558496 7.17970261 766 5 C768.6015625 4.62109375 768.6015625 4.62109375 771.625 4.4375 C775.49970338 4.1785587 779.33494439 3.86352631 783.1875 3.375 C784.445625 3.25125 785.70375 3.1275 787 3 C787.33 3.33 787.66 3.66 788 4 C788.721875 3.154375 789.44375 2.30875 790.1875 1.4375 C793 -1 793 -1 795.5625 -1.3125 C799.31572542 0.70846753 800.6279038 4.06001425 802 8 C802 8.99 802 9.98 802 11 C803.98 11 805.96 11 808 11 C808.20625 10.071875 808.4125 9.14375 808.625 8.1875 C810.37087498 4.14024435 812.00849344 3.62918635 816 2 C817.485 1.01 817.485 1.01 819 0 C821.3125 -0.125 821.3125 -0.125 824 1 C827.70596681 4.83707413 830 7.55998028 830 13 C830.66 13 831.32 13 832 13 C832.4640625 11.7934375 832.4640625 11.7934375 832.9375 10.5625 C834 8 834 8 835 7 C837.1875 6.5625 837.1875 6.5625 840 7 C841.41796875 8.375 841.41796875 8.375 842.875 10.0625 C845.29981777 12.6667048 845.6125632 12.97130098 849.375 13.25 C853.36955331 11.87256782 855.77632545 9.97706068 859.03515625 7.375 C862.03963486 5.27246229 864.36390892 5 868 5 C870.31704531 5.45527908 872.59352291 6.00783407 874.8828125 6.5859375 C877.78464407 7.15345438 880.11680472 6.5884072 883 6 C886.33503143 5.90442595 889.66443367 5.94067175 893 6 C893.66 4.68 894.32 3.36 895 2 C895.71027344 2.15210938 896.42054687 2.30421875 897.15234375 2.4609375 C899.95899147 2.99223707 902.72007156 3.34826844 905.5625 3.625 C906.49191406 3.72039062 907.42132812 3.81578125 908.37890625 3.9140625 C910.94338385 4.1205861 910.94338385 4.1205861 913.1328125 3.453125 C915 3 915 3 918.3125 4.125 C921.95719065 5.403953 921.95719065 5.403953 924.89453125 3.5703125 C930.42583711 1.01064748 936.40753943 1.6454472 942.375 1.75 C944.24224731 1.7653479 944.24224731 1.7653479 946.1472168 1.78100586 C954.31694875 1.87482553 962.44095488 2.19556202 970.58203125 2.87890625 C974.17968275 3.0063659 977.44617851 2.51746378 981 2 C982.62720712 2.45561799 984.25384509 2.91833616 985.85546875 3.45703125 C989.70908469 4.43271907 993.66471596 4.51603814 997.62109375 4.75390625 C1003.67016081 5.19447414 1009.58417829 6.07225283 1015.54418945 7.15625 C1027.75353555 9.3429201 1036.56098981 10.15149479 1048.25 5.09375 C1051 4 1051 4 1054 4 C1054.66 4.99 1055.32 5.98 1056 7 C1056.66 7 1057.32 7 1058 7 C1058.33 5.68 1058.66 4.36 1059 3 C1061.27141109 3.11402064 1063.54214552 3.24158505 1065.8125 3.375 C1067.07707031 3.44460938 1068.34164063 3.51421875 1069.64453125 3.5859375 C1073 4 1073 4 1076 6 C1076.99 6 1077.98 6 1079 6 C1082.46093483 7.00943933 1084.98365923 7.98910615 1088 10 C1090.04059106 10.45709749 1090.04059106 10.45709749 1092.25 10.625 C1093.04019531 10.70105469 1093.83039063 10.77710938 1094.64453125 10.85546875 C1096.73842762 10.98394995 1098.83992977 10.97079477 1100.9375 10.9375 C1104 11 1104 11 1106 13 C1106.125 16.625 1106.125 16.625 1106 20 C1107.65 20.33 1109.3 20.66 1111 21 C1111 21.66 1111 22.32 1111 23 C1111.8353125 23.0928125 1111.8353125 23.0928125 1112.6875 23.1875 C1115 24 1115 24 1117.3125 26.5 C1120.58774196 29.54673671 1122.64024084 29.58870197 1127 30 C1129 32 1129 32 1130.3125 35.3125 C1131.86561451 39.0677918 1134.00942737 41.21333005 1137 44 C1140.98320228 48.39364935 1144.81161462 52.92890381 1148.640625 57.45703125 C1150.63686298 59.72287609 1152.50927717 61.67878258 1155.046875 63.33984375 C1157.57867184 65.49187106 1158.19983301 67.43283567 1159.25 70.5625 C1159.58515625 71.53316406 1159.9203125 72.50382812 1160.265625 73.50390625 C1161 76 1161 76 1161 78 C1161.66 78 1162.32 78 1163 78 C1164.625 79.375 1164.625 79.375 1166 81 C1166 81.66 1166 82.32 1166 83 C1166.57234375 83.13277344 1167.1446875 83.26554687 1167.734375 83.40234375 C1169.97650875 83.99380317 1172.08579619 84.73288854 1174.25 85.5625 C1174.95640625 85.83191406 1175.6628125 86.10132813 1176.390625 86.37890625 C1176.92171875 86.58386719 1177.4528125 86.78882813 1178 87 C1178.66 85.68 1179.32 84.36 1180 83 C1182.21875 82.625 1182.21875 82.625 1185 83 C1186.77993144 84.99937504 1188.09960827 86.75937323 1189.5 89 C1190.08744995 89.89041992 1190.08744995 89.89041992 1190.68676758 90.79882812 C1192.7735081 93.98241731 1194.74304383 97.22777603 1196.6875 100.5 C1198.91164598 104.18107785 1201.65171066 106.33658803 1205 109 C1206 112 1206 112 1205 115 C1199.77254141 116.2063366 1195.23471686 115.75612577 1190 115 C1190.42152344 115.79664063 1190.84304688 116.59328125 1191.27734375 117.4140625 C1191.82519531 118.47367188 1192.37304688 119.53328125 1192.9375 120.625 C1193.48277344 121.66914062 1194.02804687 122.71328125 1194.58984375 123.7890625 C1195.98142838 126.95771226 1196.50162044 129.59665132 1197 133 C1197.63222955 134.92830012 1198.29989192 136.84529419 1199 138.75 C1201.47116253 145.99275273 1203.12941459 153.45025735 1201 161 C1200.34 161.33 1199.68 161.66 1199 162 C1198.67 162.99 1198.34 163.98 1198 165 C1198.99 165.33 1199.98 165.66 1201 166 C1200.52369209 171.52767863 1199.95647691 176.78272824 1198 182 C1197.01 182.33 1196.02 182.66 1195 183 C1195 183.99 1195 184.98 1195 186 C1195 187.32 1195 188.64 1195 190 C1193.66666667 191 1192.33333333 192 1191 193 C1191 194.32 1191 195.64 1191 197 C1190.69595322 198.67225729 1190.36871088 200.34080104 1190 202 C1189.34 202 1188.68 202 1188 202 C1188 202.66 1188 203.32 1188 204 C1189.093125 204.226875 1190.18625 204.45375 1191.3125 204.6875 C1195 206 1195 206 1197.125 208.125 C1198.16715722 211.54923085 1197.7114553 213.57332072 1196.265625 216.8203125 C1191.57409089 224.90017679 1185.11555734 229.71083201 1177 234 C1175.82351977 234.63934044 1174.64777602 235.28003743 1173.47265625 235.921875 C1170.32562914 237.63457172 1167.16605122 239.3226876 1164 241 C1166.30129009 243.30129009 1166.88943651 243.2712821 1170 243.5 C1173.77777778 243.77777778 1173.77777778 243.77777778 1176 246 C1175.625 248.625 1175.625 248.625 1175 251 C1176.423125 251.3403125 1176.423125 251.3403125 1177.875 251.6875 C1181 253 1181 253 1182.5625 255.3125 C1183 258 1183 258 1182.125 260.8125 C1180 263 1180 263 1176.0625 263.375 C1173.26157731 263.23468403 1170.70334112 262.73782465 1168 262 C1168.13019531 262.94101562 1168.26039062 263.88203125 1168.39453125 264.8515625 C1169.50769595 274.90125503 1169.50769595 274.90125503 1167.953125 278.265625 C1166.5625 279.875 1166.5625 279.875 1164 282 C1164.804375 282.2475 1165.60875 282.495 1166.4375 282.75 C1169 284 1169 284 1169.9375 286 C1169.958125 286.66 1169.97875 287.32 1170 288 C1166.88652277 291.11347723 1163.29806174 290.39473303 1159.04296875 290.55859375 C1155.69276141 291.04456734 1153.84401044 292.24311983 1151 294 C1148.1875 293.1875 1148.1875 293.1875 1146 292 C1146 291.34 1146 290.68 1146 290 C1145.34 290 1144.68 290 1144 290 C1143.938125 290.763125 1143.87625 291.52625 1143.8125 292.3125 C1143 295 1143 295 1140.875 296.546875 C1137.67340555 298.1650722 1134.66566536 299.05947993 1131.1875 299.9375 C1130.54240479 300.1029834 1129.89730957 300.2684668 1129.23266602 300.43896484 C1127.1573507 300.96871573 1125.07925076 301.48592581 1123 302 C1120.84212422 302.53557034 1118.6842501 303.07114152 1116.52661133 303.60766602 C1114.53845126 304.10000108 1112.5485638 304.58534498 1110.55859375 305.0703125 C1107.01946298 305.94376763 1107.01946298 305.94376763 1103.7265625 307.14453125 C1100.42611827 308.18005745 1098.36059561 307.64351831 1095 307 C1093.32900023 307.31088368 1091.66128463 307.64080332 1090 308 C1089.01 307.67 1088.02 307.34 1087 307 C1083.82151681 307.72317506 1083.82151681 307.72317506 1082.3046875 310.484375 C1079.24358958 313.8256412 1076.42511829 313.95017524 1072.125 314.25 C1070.73168163 314.37925031 1069.33845046 314.5094444 1067.9453125 314.640625 C1066.64335938 314.75921875 1065.34140625 314.8778125 1064 315 C1062.90300781 315.21011719 1061.80601563 315.42023438 1060.67578125 315.63671875 C1057.0336831 316.13119339 1055.22874068 314.64731667 1052 313 C1048.33200185 312.58228196 1048.33200185 312.58228196 1045 313 C1044.34 313.66 1043.68 314.32 1043 315 C1039.60402937 315.21676408 1037.24221555 315.08073852 1034 314 C1033.175 314.165 1032.35 314.33 1031.5 314.5 C1029 315 1029 315 1026 314 C1026 313.34 1026 312.68 1026 312 C1024.4639942 311.46270153 1022.92080233 310.94592761 1021.375 310.4375 C1020.51648437 310.14746094 1019.65796875 309.85742188 1018.7734375 309.55859375 C1015.51654166 308.9026274 1013.26768879 309.43824236 1010 310 C1006.20072217 309.93037502 1002.41671645 309.56257315 998.6328125 309.22851562 C992.82076644 308.80288599 988.76251867 309.71980842 983.4375 312.1875 C980.46593976 313.17802008 978.92328582 313.10610815 976 312 C974.6875 309.9375 974.6875 309.9375 974 308 C971.62625139 307.66574265 971.62625139 307.66574265 969 308 C968.525625 308.66 968.05125 309.32 967.5625 310 C966 312 966 312 963.125 312.4375 C960 312 960 312 957.625 310.4375 C953.95099191 308.42554319 950.90540187 308.9902383 947 310 C945.73724858 310.51123539 944.48599369 311.05209305 943.25 311.625 C940 313 940 313 937.6875 313.0625 C936 312 936 312 935.3125 309.125 C934.35243172 306.0146922 934.35243172 306.0146922 932.40625 304.97265625 C926.31886768 302.68988788 920.05728912 302.56111518 913.62109375 302.25 C909.2256867 301.94654148 905.25236987 301.1190447 901 300 C901 299.34 901 298.68 901 298 C900.34 298 899.68 298 899 298 C898.67 298.99 898.34 299.98 898 301 C897.071875 301.144375 896.14375 301.28875 895.1875 301.4375 C891.99274889 301.92100111 891.99274889 301.92100111 889 303 C887.33032028 302.3409159 885.66392045 301.67349161 884 301 C882.35 301 880.7 301 879 301 C879.33 305.29 879.66 309.58 880 314 C875 315 875 315 873.19921875 314.00390625 C871.79947917 312.66927083 870.39973958 311.33463542 869 310 C868.319375 310.53625 867.63875 311.0725 866.9375 311.625 C862.94528681 313.49369554 861.08269641 312.38520057 857 311 C854.20755955 310.83071457 854.20755955 310.83071457 852 311 C851.34 309.68 850.68 308.36 850 307 C848.783125 307.144375 847.56625 307.28875 846.3125 307.4375 C845.21035156 307.56318359 845.21035156 307.56318359 844.0859375 307.69140625 C841.88614887 307.95248013 841.88614887 307.95248013 839.4375 308.875 C835.45330471 309.07931771 832.95854224 306.46403086 830 304 C829.87625 304.78375 829.7525 305.5675 829.625 306.375 C829 309 829 309 827 311 C822.71789472 310.72667413 820.8972092 310.02317482 818 307 C814.83405777 306.10704193 812.32893972 306 809 306 C808.01 306 807.02 306 806 306 C805.401875 306.66 804.80375 307.32 804.1875 308 C802 310 802 310 799.375 310.4375 C795.52519758 309.93845154 792.11508806 308.85607395 788.46484375 307.55859375 C785.58020573 306.90486437 783.80536185 307.09641802 781 308 C780.34 308.825 779.68 309.65 779 310.5 C777 313 777 313 774.625 313.9375 C772 314 772 314 769.25 313.0625 C765.62081996 311.8760373 762.82053569 311.91665433 759.05078125 312.125 C757 312 757 312 754 310 C752.00047242 309.95653201 749.99960012 309.960008 748 310 C746.32546201 309.708776 744.65449105 309.38929201 743 309 C743.0309375 310.4540625 743.0309375 310.4540625 743.0625 311.9375 C743 315 743 315 742 316 C740.33382885 316.04063832 738.66611905 316.042721 737 316 C737 315.34 737 314.68 737 314 C736.34 314 735.68 314 735 314 C735 313.34 735 312.68 735 312 C734.071875 312.20625 733.14375 312.4125 732.1875 312.625 C729 313 729 313 726 311 C725.67 310.01 725.34 309.02 725 308 C725 309.65 725 311.3 725 313 C723.68 313.66 722.36 314.32 721 315 C716.125 311.25 716.125 311.25 715 309 C714.62875 309.495 714.2575 309.99 713.875 310.5 C712 312 712 312 709.3125 312.5 C705.35511185 311.90265839 703.1307204 310.40774969 699.9296875 308.09375 C697.78970269 306.67126571 697.78970269 306.67126571 694 307 C693.01 306.34 692.02 305.68 691 305 C691.350625 306.258125 691.70125 307.51625 692.0625 308.8125 C692.93609485 311.94716388 693.07239297 312.78282108 692 316 C690.0625 316.75 690.0625 316.75 688 317 C687.34 316.67 686.68 316.34 686 316 C686 315.34 686 314.68 686 314 C685.34 314 684.68 314 684 314 C679 308.52380952 679 308.52380952 679 306 C678.34 306.165 677.68 306.33 677 306.5 C673.26900206 307.12183299 669.78126622 307.06408926 666 307 C665.67 306.34 665.34 305.68 665 305 C664.34 305.99 663.68 306.98 663 308 C661.0625 309.0625 661.0625 309.0625 659 310 C658.01 310.66 657.02 311.32 656 312 C652.70703125 312.01171875 652.70703125 312.01171875 648.8125 311.6875 C648.13848145 311.63408447 647.46446289 311.58066895 646.77001953 311.52563477 C643.29482128 311.24015708 639.83241076 310.88875515 636.375 310.4375 C630.33596009 309.53525212 630.33596009 309.53525212 625 312 C621.49675716 312.31847662 619.11594848 312.03972569 615.7734375 310.89453125 C611.37540658 309.85193386 608.73709503 310.36696548 604.375 311.4375 C599.75130013 312.55825484 596.61230102 313.16113872 592 312 C590.96875 312.185625 589.9375 312.37125 588.875 312.5625 C586 313 586 313 583 311 C582.43292791 307.75569331 582.78235981 306.34922368 584.53125 303.54296875 C585.50578125 302.37701172 585.50578125 302.37701172 586.5 301.1875 C587.1496875 300.39730469 587.799375 299.60710937 588.46875 298.79296875 C588.9740625 298.20128906 589.479375 297.60960937 590 297 C589.01 297 588.02 297 587 297 C587 297.66 587 298.32 587 299 C585.7625 299.020625 584.525 299.04125 583.25 299.0625 C582.55390625 299.07410156 581.8578125 299.08570313 581.140625 299.09765625 C578.96707597 298.99849799 577.08693463 298.59693851 575 298 C574.76216797 299.10408203 574.76216797 299.10408203 574.51953125 300.23046875 C573.44566638 304.72171576 572.41824047 308.36033811 569.875 312.25 C566.27876027 314.43901549 564.3793541 314.28476752 560.3203125 313.6015625 C558.11205188 313.02905049 556.15228119 312.28028983 554.0625 311.375 C549.3485793 309.42114152 544.91717918 310.01290827 540 311 C539.01 311.495 539.01 311.495 538 312 C537.01 311.95875 536.02 311.9175 535 311.875 C533.515 311.936875 533.515 311.936875 532 312 C531.34 312.99 530.68 313.98 530 315 C527.6875 315.5 527.6875 315.5 525 315 C523.33333333 313.33333333 521.66666667 311.66666667 520 310 C517.45792029 309.66656449 517.45792029 309.66656449 515 310 C514.41234863 309.8450708 513.82469727 309.6901416 513.21923828 309.53051758 C508.24997334 308.34259539 502.95842964 308.72814576 497.875 308.6875 C496.09609375 308.64399414 496.09609375 308.64399414 494.28125 308.59960938 C487.39940681 308.55023633 482.24474153 309.14529408 476.09033203 312.33129883 C474 313 474 313 471.88232422 312.2644043 C469.23743501 310.487766 467.19375963 308.30344761 465 306 C464.236875 305.236875 463.47375 304.47375 462.6875 303.6875 C462.130625 303.130625 461.57375 302.57375 461 302 C460.649375 302.66 460.29875 303.32 459.9375 304 C458 306 458 306 454.6875 306.6875 C449.60522363 305.73995695 447.8608815 303.10793241 445 299 C444.01 299.33 443.02 299.66 442 300 C440.97990001 302.07156997 440.97990001 302.07156997 440.1875 304.5 C439.171875 306.95703125 439.171875 306.95703125 438 309 C434.9375 310.1875 434.9375 310.1875 432 310 C431.01 309.34 430.02 308.68 429 308 C428.51789062 308.33128906 428.03578125 308.66257812 427.5390625 309.00390625 C423.19251195 310.70909146 418.62888848 310.03671602 414.0234375 309.83398438 C412.01549866 309.7834373 410.00508741 309.88168739 408 310 C407.34 310.99 406.68 311.98 406 313 C401.90892832 312.25616878 397.93275129 311.36133698 394 310 C393.67 309.01 393.34 308.02 393 307 C393.33 306.34 393.66 305.68 394 305 C392.8553125 305.495 392.8553125 305.495 391.6875 306 C389 307 389 307 386 307 C386.20625 308.11375 386.4125 309.2275 386.625 310.375 C386.74875 311.57125 386.8725 312.7675 387 314 C386.34 314.66 385.68 315.32 385 316 C381.60346183 315.68563228 380.20048129 314.42162592 378.0625 311.875 C375.80769187 309.37182791 375.80769187 309.37182791 372.5625 308.9375 C370.50296519 309.79145346 368.46599256 310.69972269 366.4375 311.625 C363 313 363 313 360.5625 312.6875 C359.7890625 312.3471875 359.7890625 312.3471875 359 312 C358.67 310.68 358.34 309.36 358 308 C356.8553125 308.0928125 356.8553125 308.0928125 355.6875 308.1875 C353 308 353 308 351.6875 306.5 C349.3167655 304.39268044 347.19731572 304.71491423 344.140625 304.828125 C341.06042128 305.07544063 338.04828376 305.49195271 335 306 C334.7525 306.763125 334.505 307.52625 334.25 308.3125 C332.82567118 311.37480696 332.03419681 312.52390425 329 314 C323.64553708 313.59874418 319.37338712 312.1316718 314.5625 309.9375 C313.92634766 309.65583984 313.29019531 309.37417969 312.63476562 309.08398438 C311.08636949 308.39710188 309.54266643 307.69965593 308 307 C307.3503125 307.70962891 307.3503125 307.70962891 306.6875 308.43359375 C304.3912536 310.56506321 301.9642873 311.07366022 299 312 C298.01 312.66 297.02 313.32 296 314 C293.26821208 313.76849255 290.69662638 313.42989696 288 313 C281.13889176 311.93971676 274.43509427 311.88357881 267.5 311.9375 C265.83710937 311.94426758 265.83710937 311.94426758 264.140625 311.95117188 C261.42702601 311.96286842 258.71354239 311.97925914 256 312 C255.599021 311.02885254 255.599021 311.02885254 255.18994141 310.03808594 C254.79726074 309.36551758 254.40458008 308.69294922 254 308 C250.89069059 307.29327794 250.89069059 307.29327794 247.375 307.25 C246.18648437 307.19328125 244.99796875 307.1365625 243.7734375 307.078125 C242.85820313 307.05234375 241.94296875 307.0265625 241 307 C241 307.66 241 308.32 241 309 C235.47912396 309.7748598 230.20343267 310.02297139 224.625 309.9375 C218.96721843 309.88069496 213.86590703 310.34971374 208.3671875 311.66015625 C203.51793272 312.35633639 199.91730927 310.79807805 196 308 C196 307.34 196 306.68 196 306 C195.21625 306.66 194.4325 307.32 193.625 308 C189.44570145 310.81279759 184.86894817 310.72070489 180 310 C179.01 309.34 178.02 308.68 177 308 C174.66800612 307.92094936 172.33167378 307.91201231 170 308 C170 309.65 170 311.3 170 313 C164.70264891 314.83369845 159.94999722 313.18382231 155 311 C155 309.02 155 307.04 155 305 C152.03 303.68 149.06 302.36 146 301 C145.67 304.3 145.34 307.6 145 311 C140.25 312.125 140.25 312.125 138 311 C138 310.34 138 309.68 138 309 C137.525625 309.639375 137.05125 310.27875 136.5625 310.9375 C132.88602795 313.89661165 129.65710751 314.21830191 125 314 C122.39135648 313.37169866 119.90352339 312.5723188 117.3671875 311.69921875 C114.11833296 310.7395736 111.36595106 310.85975204 108 311 C106 310 106 310 105 307 C102.61933199 306.12012394 100.38518099 305.42741106 97.9375 304.8125 C97.27427734 304.63525391 96.61105469 304.45800781 95.92773438 304.27539062 C94.28812574 303.83894804 92.64440762 303.41799781 91 303 C91.14308594 303.92232422 91.14308594 303.92232422 91.2890625 304.86328125 C91.39992188 305.67152344 91.51078125 306.47976563 91.625 307.3125 C91.79902344 308.51326172 91.79902344 308.51326172 91.9765625 309.73828125 C92 312 92 312 90 315 C87.875 315 87.875 315 85 314 C81.60753723 310.45333438 78.92127283 306.8805525 78 302 C77.34 302 76.68 302 76 302 C75.896875 303.093125 75.79375 304.18625 75.6875 305.3125 C75 309 75 309 73.9375 310.71875 C70.92221777 312.71272696 67.7943821 312.31429122 64.3125 312.1875 C63.61060547 312.17396484 62.90871094 312.16042969 62.18554688 312.14648438 C60.45670171 312.11120182 58.72825235 312.05739583 57 312 C56.896875 312.639375 56.79375 313.27875 56.6875 313.9375 C56.460625 314.618125 56.23375 315.29875 56 316 C55.01 316.33 54.02 316.66 53 317 C50.95703125 315.63671875 50.95703125 315.63671875 48.8125 313.6875 C48.09707031 313.05199219 47.38164062 312.41648437 46.64453125 311.76171875 C45 310 45 310 45 308 C42.12586875 307.66602213 42.12586875 307.66602213 39 308 C38.525625 308.66 38.05125 309.32 37.5625 310 C37.046875 310.66 36.53125 311.32 36 312 C32.4375 312.375 32.4375 312.375 29 312 C28.34 311.34 27.68 310.68 27 310 C24.31139384 309.8010607 21.74894817 309.72164699 19.0625 309.75 C18.33353516 309.74226563 17.60457031 309.73453125 16.85351562 309.7265625 C13.04161777 309.74053829 11.2418889 309.83874073 8 312 C0.60089855 312.89159751 -6.00299196 311.63449763 -13.10546875 309.6796875 C-17.38002624 308.67594526 -21.655987 308.23208089 -26 309 C-26.77472656 309.50015625 -27.54945313 310.0003125 -28.34765625 310.515625 C-31.76636626 312.42889423 -34.11151009 312.26746623 -38 312.125 C-42.23582609 311.98806597 -45.86214349 312.15778142 -50 313 C-52.3125 312.0625 -52.3125 312.0625 -54 311 C-54.33 311.33 -54.66 311.66 -55 312 C-60.62498715 312.44999897 -64.06143138 311.41889075 -69 309 C-69.20625 309.639375 -69.4125 310.27875 -69.625 310.9375 C-71 313 -71 313 -73.75 313.875 C-77.41883387 314.01610899 -79.55999489 313.25692494 -83 312 C-86.31801769 311.25197669 -89.65791042 310.63028314 -93 310 C-93.90621094 309.79503906 -94.81242188 309.59007812 -95.74609375 309.37890625 C-96.48988281 309.25386719 -97.23367188 309.12882812 -98 309 C-98.33 309.33 -98.66 309.66 -99 310 C-104.44212325 309.86209044 -109.49766508 308.88847723 -114.71875 307.390625 C-118.82993049 306.68665574 -122.99988167 307.13129311 -127.14453125 307.41796875 C-130 307 -130 307 -132.01171875 304.73828125 C-133 302 -133 302 -132.1875 299.6875 C-131.5996875 298.8521875 -131.5996875 298.8521875 -131 298 C-132.18320576 297.36690809 -133.37187848 296.74403282 -134.5625 296.125 C-135.22378906 295.77695312 -135.88507813 295.42890625 -136.56640625 295.0703125 C-139.59346445 293.73898995 -142.82034903 292.9084717 -146 292 C-146 298.27 -146 304.54 -146 311 C-147.32 311.66 -148.64 312.32 -150 313 C-153.26008643 309.83047153 -156.22237877 306.60062011 -159 303 C-159.66 303.66 -160.32 304.32 -161 305 C-165.47567995 305 -167.4143976 304.55836508 -170.6875 301.4375 C-171.49343768 300.31608014 -172.26371858 299.16833545 -173 298 C-173.37125 297.42121094 -173.7425 296.84242188 -174.125 296.24609375 C-178.98942431 287.67969946 -179.38386384 277.63924742 -179 268 C-179.639375 267.896875 -180.27875 267.79375 -180.9375 267.6875 C-181.9584375 267.3471875 -181.9584375 267.3471875 -183 267 C-183.495 265.515 -183.495 265.515 -184 264 C-185.91622148 262.42618716 -185.91622148 262.42618716 -188.25 261 C-189.05824219 260.47664063 -189.86648437 259.95328125 -190.69921875 259.4140625 C-192.44983806 258.33813009 -194.24737391 257.33812813 -196.0625 256.375 C-197.0215625 255.694375 -197.0215625 255.694375 -198 255 C-198 253.68 -198 252.36 -198 251 C-199.32 251 -200.64 251 -202 251 C-202.33 249.68 -202.66 248.36 -203 247 C-203.99 247 -204.98 247 -206 247 C-206.93423645 243.98968256 -207.04449911 243.13349732 -206 240 C-211.74771637 241.17901874 -214.77693532 244.37010707 -218.75390625 248.41796875 C-221 250 -221 250 -223.77734375 249.73828125 C-224.51082031 249.49464844 -225.24429688 249.25101563 -226 249 C-227.6154589 244.99562006 -226.27082159 242.42045261 -224.6875 238.5625 C-224.23761719 237.45003906 -223.78773438 236.33757812 -223.32421875 235.19140625 C-222.51007472 233.22929512 -221.64843908 231.28515947 -220.7109375 229.37890625 C-219.78570203 226.28292604 -220.4309213 225.17636997 -221.9375 222.375 C-223.15234375 220.0859375 -223.15234375 220.0859375 -224 218 C-223.67 217.01 -223.34 216.02 -223 215 C-222.01 215 -221.02 215 -220 215 C-220 214.34 -220 213.68 -220 213 C-221.98 213.33 -223.96 213.66 -226 214 C-226.70074844 210.846632 -227 208.27275026 -227 205 C-226.01 205 -225.02 205 -224 205 C-224 203.68 -224 202.36 -224 201 C-225.32 200.67 -226.64 200.34 -228 200 C-228.33 196.37 -228.66 192.74 -229 189 C-228.34 189 -227.68 189 -227 189 C-227.33 188.01 -227.66 187.02 -228 186 C-228.51949219 186.40992188 -229.03898438 186.81984375 -229.57421875 187.2421875 C-236.92422134 192.92111741 -236.92422134 192.92111741 -241 194 C-243 193 -243 193 -243.74609375 191.27734375 C-244.74517957 182.31631244 -235.70750088 171.24230904 -231 164 C-232.65 164 -234.3 164 -236 164 C-236.66 162.68 -237.32 161.36 -238 160 C-231.52030948 149.89168279 -231.52030948 149.89168279 -228 147 C-227.34 147 -226.68 147 -226 147 C-225.27345049 145.14869244 -225.27345049 145.14869244 -225 143 C-226.8810462 140.85279623 -228.69939289 139.01655247 -230.8125 137.125 C-237.98939207 130.66662301 -237.98939207 130.66662301 -239 125 C-238.63802622 121.31112117 -237.93099917 117.77950389 -237.21484375 114.14453125 C-236.63749213 111.02729169 -236.63749213 111.02729169 -238.44921875 109.265625 C-238.96097656 108.84796875 -239.47273437 108.4303125 -240 108 C-239.875 104.9375 -239.875 104.9375 -239 102 C-237.515 101.01 -237.515 101.01 -236 100 C-235.55761078 97.30142575 -235.23947146 94.71227459 -235 92 C-234.54464433 89.38170491 -234.18382473 87.36764946 -233 85 C-230.25 84.6875 -230.25 84.6875 -227 85 C-223 89 -223 89 -223 92 C-221.68 92 -220.36 92 -219 92 C-218.979375 90.96875 -218.95875 89.9375 -218.9375 88.875 C-217.82012027 84.2564971 -216.40908416 83.12468305 -212.765625 80.34765625 C-210.84577077 78.96423869 -210.84577077 78.96423869 -208.9375 76.75 C-206.49496289 74.54383745 -204.14487445 73.85769303 -201 73 C-201.33 72.34 -201.66 71.68 -202 71 C-203.25057177 67.24828468 -203.72135181 63.88302144 -203 60 C-199.85116328 55.02280648 -195.62895024 52.09832341 -190.79296875 48.80859375 C-188.71806367 47.11689789 -188.71806367 47.11689789 -188.86328125 44.41015625 C-188.90839844 43.61480469 -188.95351562 42.81945312 -189 42 C-188.34 41.34 -187.68 40.68 -187 40 C-185.3603125 40.0928125 -185.3603125 40.0928125 -183.6875 40.1875 C-179.92249894 40.30363197 -179.92249894 40.30363197 -177 38.0625 C-174.5715264 34.3438998 -174.61637415 32.6608578 -175.33203125 28.40234375 C-176.25039331 25.09946265 -177.71732409 22.15739356 -179.203125 19.078125 C-180.35071752 16.08538373 -180.02112078 13.99042514 -179 11 C-177 9 -177 9 -174.25 8.9375 C-169.73052945 10.41501922 -167.75725198 13.2552216 -165 17 C-163.63875 16.5359375 -163.63875 16.5359375 -162.25 16.0625 C-159.83436662 15.2727737 -157.47219715 14.57050703 -155 14 C-155 13.34 -155 12.68 -155 12 C-152.29120665 10.64560332 -149.99066732 10.93498549 -147 11 C-145.23937836 14.32561865 -144.89215772 15.59173995 -145.875 19.3125 C-146.431875 20.6428125 -146.431875 20.6428125 -147 22 C-144.69 22.99 -142.38 23.98 -140 25 C-139.84144531 24.30132812 -139.68289063 23.60265625 -139.51953125 22.8828125 C-138.82128912 20.1592824 -138.09764768 17.59010144 -137 15 C-134.5 13.8125 -134.5 13.8125 -132 13 C-131.505 11.824375 -131.01 10.64875 -130.5 9.4375 C-129 6 -129 6 -126.78125 5.125 C-122.26496248 4.92202079 -118.91585975 7.11274745 -114.9375 9.06640625 C-112.0771604 10.26174255 -112.0771604 10.26174255 -109.4375 9.33984375 C-106.97553072 8.03045582 -106.97553072 8.03045582 -104.65625 6.4453125 C-101.26308697 4.59903262 -98.32934603 4.29622806 -94.5 3.875 C-89.4473406 3.34001149 -89.4473406 3.34001149 -84.46875 2.3828125 C-82 2 -82 2 -78.7578125 2.47265625 C-73.58423184 3.19867848 -68.67931953 2.68385648 -63.49609375 2.22851562 C-59.11560005 1.90718093 -56.0081742 1.8832333 -52 4 C-51.67 3.01 -51.34 2.02 -51 1 C-47.75 0.1875 -47.75 0.1875 -44 0 C-41.5625 2.4375 -41.5625 2.4375 -40 5 C-39.28714844 4.855625 -38.57429687 4.71125 -37.83984375 4.5625 C-32.43730473 3.51543995 -27.5083082 3 -22 3 C-17.44174288 2.31333947 -13.08276404 1.39562532 -8.75 -0.1875 C-5.44911892 -1.16276032 -3.34646224 -0.64081192 0 0 Z M552 7 C553 9 553 9 553 9 Z M-60 11 C-59.01 12.485 -59.01 12.485 -58 14 C-58 13.01 -58 12.02 -58 11 C-58.66 11 -59.32 11 -60 11 Z " fill="#573912" transform="translate(406,403)"/>
</svg>
